<svg width="303" height="233" viewBox="0 0 303 233" fill="none" xmlns="http://www.w3.org/2000/svg">
<g clip-path="url(#clip0_0_11646)">
<path d="M103.012 172.768H44.9028V161.061H103.012V172.768ZM45.6575 172.012H102.258V161.816H45.6575V172.012Z" fill="#424242"/>
<path d="M95.8431 170.69C97.927 170.69 99.6164 169 99.6164 166.914C99.6164 164.828 97.927 163.138 95.8431 163.138C93.7591 163.138 92.0697 164.828 92.0697 166.914C92.0697 169 93.7591 170.69 95.8431 170.69Z" fill="#001B40"/>
<path d="M85.2777 170.69C87.3617 170.69 89.0511 169 89.0511 166.914C89.0511 164.828 87.3617 163.138 85.2777 163.138C83.1938 163.138 81.5044 164.828 81.5044 166.914C81.5044 169 83.1938 170.69 85.2777 170.69Z" fill="#001B40"/>
<path d="M74.7123 170.69C76.7963 170.69 78.4857 169 78.4857 166.914C78.4857 164.828 76.7963 163.138 74.7123 163.138C72.6284 163.138 70.939 164.828 70.939 166.914C70.939 169 72.6284 170.69 74.7123 170.69Z" fill="#001B40"/>
<path d="M64.147 170.69C66.231 170.69 67.9204 169 67.9204 166.914C67.9204 164.828 66.231 163.138 64.147 163.138C62.063 163.138 60.3737 164.828 60.3737 166.914C60.3737 169 62.063 170.69 64.147 170.69Z" fill="#001B40"/>
<path d="M53.5816 170.69C55.6655 170.69 57.3549 169 57.3549 166.914C57.3549 164.828 55.6655 163.138 53.5816 163.138C51.4976 163.138 49.8082 164.828 49.8082 166.914C49.8082 169 51.4976 170.69 53.5816 170.69Z" fill="#001B40"/>
<path d="M249.796 181.264H203.006V191.083H249.796V181.264Z" fill="#001B40"/>
<path d="M259.984 132.927H191.309V141.99H259.984V132.927Z" fill="#001B40"/>
<path d="M293.567 232.245H0V233H293.567V232.245Z" fill="#424242"/>
<path d="M271.751 233H185.956C183.274 232.997 180.702 231.929 178.805 230.031C176.908 228.133 175.841 225.559 175.838 222.874V63.3726C175.841 60.688 176.908 58.1141 178.805 56.2158C180.702 54.3175 183.274 53.2496 185.956 53.2466H271.751C274.434 53.2496 277.006 54.3175 278.902 56.2158C280.799 58.1141 281.866 60.688 281.869 63.3726V222.874C281.866 225.559 280.799 228.133 278.902 230.031C277.006 231.929 274.434 232.997 271.751 233ZM185.956 54.0018C183.474 54.0047 181.094 54.9929 179.338 56.7496C177.583 58.5064 176.596 60.8882 176.593 63.3726V222.874C176.596 225.359 177.583 227.74 179.338 229.497C181.094 231.254 183.474 232.242 185.956 232.245H271.751C274.234 232.242 276.614 231.254 278.369 229.497C280.124 227.74 281.112 225.359 281.115 222.874V63.3726C281.112 60.8882 280.124 58.5064 278.369 56.7496C276.614 54.9929 274.234 54.0047 271.751 54.0018H185.956Z" fill="#424242"/>
<path d="M218.666 60.7992C218.218 60.7992 217.78 60.6663 217.408 60.4173C217.035 60.1684 216.745 59.8145 216.574 59.4005C216.403 58.9865 216.358 58.5309 216.445 58.0914C216.532 57.6518 216.748 57.2481 217.065 56.9312C217.381 56.6143 217.785 56.3985 218.224 56.3111C218.663 56.2237 219.118 56.2686 219.532 56.4401C219.946 56.6115 220.299 56.902 220.548 57.2746C220.797 57.6472 220.93 58.0852 220.93 58.5334C220.929 59.1341 220.69 59.71 220.266 60.1348C219.841 60.5596 219.266 60.7985 218.666 60.7992ZM218.666 57.0228C218.367 57.0228 218.075 57.1114 217.827 57.2774C217.579 57.4434 217.385 57.6793 217.271 57.9553C217.157 58.2313 217.127 58.5351 217.185 58.8281C217.244 59.1211 217.387 59.3902 217.598 59.6015C217.809 59.8127 218.078 59.9566 218.371 60.0149C218.664 60.0732 218.967 60.0433 219.243 59.9289C219.519 59.8146 219.755 59.621 219.921 59.3726C220.086 59.1242 220.175 58.8321 220.175 58.5334C220.175 58.1329 220.015 57.7489 219.732 57.4657C219.449 57.1826 219.066 57.0233 218.666 57.0228Z" fill="#001B40"/>
<path d="M240.928 58.1558H224.326V58.911H240.928V58.1558Z" fill="#001B40"/>
<path d="M275.077 64.1978V94.4084C267.071 94.4081 259.393 91.2251 253.732 85.5595C248.071 79.894 244.891 72.21 244.89 64.1978H275.077Z" fill="#001B40"/>
<path d="M275.455 222.804H182.253V63.8203H275.455V222.804ZM183.007 222.049H274.7V64.5756H183.007V222.049Z" fill="#424242"/>
<path opacity="0.1" d="M253.192 92.5201C258.819 92.5201 263.38 87.9552 263.38 82.324C263.38 76.6929 258.819 72.1279 253.192 72.1279C247.565 72.1279 243.004 76.6929 243.004 82.324C243.004 87.9552 247.565 92.5201 253.192 92.5201Z" fill="black"/>
<path d="M251.682 93.6535C257.309 93.6535 261.87 89.0885 261.87 83.4573C261.87 77.8262 257.309 73.2612 251.682 73.2612C246.056 73.2612 241.494 77.8262 241.494 83.4573C241.494 89.0885 246.056 93.6535 251.682 93.6535Z" fill="#001B40"/>
<path d="M200.742 70.2397H186.403V75.5266H200.742V70.2397Z" fill="#424242"/>
<path d="M208.666 120.465H194.328V125.752H208.666V120.465Z" fill="#424242"/>
<path d="M263.757 140.102H194.328V130.284H263.757V140.102ZM195.082 139.347H263.002V131.039H195.082V139.347Z" fill="#838383"/>
<path d="M259.984 161.627H191.309V170.691H259.984V161.627Z" fill="#001B40"/>
<path d="M208.666 149.166H194.328V154.452H208.666V149.166Z" fill="#424242"/>
<path d="M263.757 168.802H194.328V158.984H263.757V168.802ZM195.082 168.047H263.002V159.739H195.082V168.047Z" fill="#838383"/>
<path d="M252.814 188.817H205.27V178.243H252.814V188.817ZM206.025 188.062H252.06V178.998H206.025V188.062Z" fill="#838383"/>
<path d="M261.871 136.326C261.87 137.103 261.631 137.862 261.184 138.497C260.737 139.133 260.105 139.616 259.374 139.879C258.643 140.142 257.849 140.173 257.1 139.968C256.35 139.762 255.683 139.33 255.188 138.731L255.184 138.727C254.823 138.289 254.566 137.776 254.431 137.225C254.296 136.674 254.287 136.099 254.404 135.544C254.521 134.989 254.762 134.467 255.109 134.018C255.456 133.569 255.899 133.203 256.406 132.949C256.913 132.695 257.471 132.558 258.038 132.55C258.605 132.541 259.166 132.66 259.681 132.899C260.195 133.137 260.65 133.489 261.01 133.927C261.37 134.365 261.627 134.879 261.761 135.431C261.761 135.431 261.761 135.432 261.761 135.432C261.762 135.433 261.762 135.433 261.762 135.433C261.763 135.434 261.763 135.434 261.763 135.434C261.764 135.434 261.764 135.434 261.765 135.434C261.835 135.726 261.87 136.025 261.871 136.326Z" fill="#001B40"/>
<path opacity="0.1" d="M261.871 136.326C261.87 137.103 261.631 137.862 261.184 138.498C260.737 139.134 260.105 139.616 259.374 139.879C258.643 140.142 257.849 140.173 257.1 139.968C256.35 139.762 255.683 139.331 255.188 138.731L255.184 138.728C255.114 138.436 255.079 138.137 255.078 137.836C255.079 137.059 255.318 136.3 255.765 135.665C256.212 135.029 256.844 134.546 257.575 134.283C258.306 134.02 259.1 133.989 259.849 134.194C260.599 134.4 261.266 134.832 261.761 135.431C261.761 135.431 261.761 135.432 261.761 135.432C261.762 135.433 261.762 135.433 261.762 135.434C261.763 135.434 261.763 135.434 261.763 135.434C261.764 135.435 261.764 135.435 261.765 135.435C261.835 135.727 261.87 136.026 261.871 136.326Z" fill="black"/>
<path d="M259.606 142.368C261.69 142.368 263.38 140.677 263.38 138.592C263.38 136.506 261.69 134.815 259.606 134.815C257.523 134.815 255.833 136.506 255.833 138.592C255.833 140.677 257.523 142.368 259.606 142.368Z" fill="#001B40"/>
<path d="M261.871 165.026C261.87 165.803 261.631 166.562 261.184 167.198C260.737 167.834 260.105 168.316 259.374 168.579C258.643 168.842 257.849 168.873 257.1 168.668C256.35 168.462 255.683 168.031 255.188 167.431L255.184 167.428C254.823 166.99 254.566 166.476 254.431 165.925C254.296 165.374 254.287 164.799 254.404 164.244C254.521 163.689 254.762 163.167 255.109 162.718C255.456 162.269 255.899 161.903 256.406 161.649C256.913 161.395 257.471 161.259 258.038 161.25C258.605 161.241 259.166 161.361 259.681 161.599C260.195 161.837 260.65 162.189 261.01 162.627C261.37 163.066 261.627 163.579 261.761 164.131C261.761 164.131 261.761 164.132 261.761 164.132C261.762 164.133 261.762 164.133 261.762 164.134C261.763 164.134 261.763 164.134 261.763 164.134C261.764 164.135 261.764 164.135 261.765 164.135C261.835 164.427 261.87 164.726 261.871 165.026Z" fill="#001B40"/>
<path opacity="0.1" d="M261.871 165.026C261.87 165.803 261.631 166.562 261.184 167.198C260.737 167.834 260.105 168.316 259.374 168.579C258.643 168.843 257.849 168.874 257.1 168.668C256.35 168.463 255.683 168.031 255.188 167.432L255.184 167.428C255.114 167.136 255.079 166.837 255.078 166.537C255.079 165.759 255.318 165.001 255.765 164.365C256.212 163.729 256.844 163.246 257.575 162.983C258.306 162.72 259.1 162.689 259.849 162.895C260.599 163.1 261.266 163.532 261.761 164.131C261.761 164.132 261.761 164.132 261.761 164.133C261.762 164.133 261.762 164.133 261.762 164.134C261.763 164.134 261.763 164.134 261.763 164.135C261.764 164.135 261.764 164.135 261.765 164.135C261.835 164.427 261.87 164.726 261.871 165.026Z" fill="black"/>
<path d="M259.606 171.068C261.69 171.068 263.38 169.378 263.38 167.292C263.38 165.206 261.69 163.516 259.606 163.516C257.523 163.516 255.833 165.206 255.833 167.292C255.833 169.378 257.523 171.068 259.606 171.068Z" fill="#001B40"/>
<path d="M196.214 18.1265H176.593V37.7634H196.214V18.1265Z" fill="#001B40"/>
<path d="M253.192 32.4768C252.296 32.4768 251.421 32.211 250.676 31.7131C249.932 31.2151 249.351 30.5074 249.008 29.6794C248.666 28.8513 248.576 27.9402 248.751 27.0611C248.926 26.1821 249.357 25.3746 249.99 24.7409C250.623 24.1071 251.43 23.6755 252.308 23.5006C253.187 23.3258 254.097 23.4155 254.925 23.7585C255.752 24.1015 256.459 24.6823 256.957 25.4276C257.454 26.1728 257.72 27.0489 257.72 27.9452C257.719 29.1466 257.241 30.2985 256.392 31.148C255.543 31.9976 254.392 32.4754 253.192 32.4768ZM253.192 24.1688C252.446 24.1688 251.716 24.3903 251.095 24.8053C250.475 25.2202 249.991 25.81 249.706 26.5C249.42 27.1901 249.345 27.9494 249.491 28.6819C249.637 29.4144 249.996 30.0873 250.524 30.6155C251.051 31.1436 251.724 31.5032 252.456 31.649C253.188 31.7947 253.946 31.7199 254.636 31.4341C255.325 31.1482 255.915 30.6642 256.329 30.0432C256.744 29.4222 256.965 28.6921 256.965 27.9452C256.964 26.944 256.566 25.9841 255.859 25.2762C255.151 24.5682 254.192 24.17 253.192 24.1688Z" fill="#001B40"/>
<path d="M153.575 95.5411H143.765V85.7227H153.575V95.5411ZM144.519 94.7859H152.821V86.4779H144.519V94.7859Z" fill="#001B40"/>
<path d="M303 168.802H293.189V158.984H303V168.802ZM293.944 168.047H302.245V159.739H293.944V168.047Z" fill="#424242"/>
<path d="M109.428 102.968L111.112 103.876L116.84 106.966L126.089 111.953L131.479 101.945C131.986 101.005 132.304 99.9732 132.413 98.91C132.521 97.8468 132.42 96.7725 132.113 95.7487C131.807 94.7249 131.302 93.7716 130.627 92.9433C129.952 92.1151 129.12 91.4283 128.179 90.9221C126.169 89.8358 123.867 89.4162 121.603 89.7235C119.339 90.0309 117.232 91.0495 115.583 92.6325L115.581 92.6353C114.77 93.4148 114.085 94.3162 113.552 95.3069L109.428 102.968Z" fill="#2F2E41"/>
<path d="M134.671 205.031L133.541 217.47L129.304 218.036L126.479 203.9L134.671 205.031Z" fill="#FFBE9D"/>
<path d="M128.174 218.036C128.174 218.036 133.541 215.209 134.671 217.47C134.671 217.47 133.824 224.255 137.213 225.103C140.603 225.951 142.016 231.888 137.213 232.454C132.411 233.019 129.304 231.323 127.609 231.323C125.914 231.323 127.609 225.386 127.609 225.386L128.174 218.036Z" fill="#2F2E41"/>
<path d="M100.49 205.031L101.62 217.47L105.858 218.036L108.682 203.9L100.49 205.031Z" fill="#FFBE9D"/>
<path d="M106.987 218.036C106.987 218.036 101.62 215.209 100.49 217.47C100.49 217.47 101.338 224.255 97.9479 225.103C94.5581 225.951 93.1457 231.888 97.9479 232.454C102.75 233.019 105.857 231.323 107.552 231.323C109.247 231.323 107.552 225.386 107.552 225.386L106.987 218.036Z" fill="#2F2E41"/>
<path d="M123.654 105.235C127.71 105.235 130.999 101.945 130.999 97.8851C130.999 93.8256 127.71 90.5347 123.654 90.5347C119.598 90.5347 116.309 93.8256 116.309 97.8851C116.309 101.945 119.598 105.235 123.654 105.235Z" fill="#FFBE9D"/>
<path d="M100.208 112.303L106.14 121.633L113.202 121.067L124.784 121.915C124.784 121.915 125.877 119.727 126.77 117.598C127.259 116.535 127.634 115.424 127.891 114.282C128.174 112.303 124.219 110.324 124.219 110.324C124.219 110.324 124.064 110.296 123.804 110.234C123.459 110.152 122.928 110.016 122.346 109.818C121.033 109.372 119.453 108.614 119.134 107.497C118.569 105.518 122.807 102.691 122.807 102.691L117.722 97.8853C117.722 97.8853 113.205 104.164 107.719 105.595C107.401 105.679 107.079 105.745 106.753 105.793C106.736 105.795 106.722 105.798 106.705 105.801C100.773 106.649 100.208 112.303 100.208 112.303Z" fill="#FFBE9D"/>
<path d="M103.315 109.759L100.208 112.303C100.208 112.303 97.6655 124.46 98.5129 127.852C99.3604 131.245 98.2305 134.354 98.2305 134.92C98.2305 135.485 95.6881 156.688 95.6881 156.688C95.6881 156.688 90.6034 167.997 95.9706 166.866C101.338 165.735 99.3604 154.427 99.3604 154.427L105.858 134.637V117.957L103.315 109.759Z" fill="#FFBE9D"/>
<path d="M125.631 112.021L127.891 113.717L129.021 137.464L137.496 157.819C137.496 157.819 143.71 167.714 139.756 167.997C135.801 168.279 133.258 157.819 133.258 157.819L125.631 138.312L124.501 119.371L125.631 112.021Z" fill="#FFBE9D"/>
<path d="M111.507 113.717C111.507 113.717 117.157 117.675 126.196 116.261C126.196 116.261 128.739 121.35 127.326 124.177C125.914 127.004 129.021 133.789 129.586 134.637C130.151 135.485 136.648 153.013 138.908 171.955C141.168 190.896 147.383 203.9 142.015 205.597C136.648 207.293 125.631 209.272 124.501 207.576C123.372 205.879 121.677 163.756 121.677 163.756L118.569 179.87C118.569 179.87 122.807 207.293 119.699 207.858C116.592 208.424 97.1005 206.728 97.6655 203.335C98.2304 199.943 103.88 182.132 103.88 182.132C103.88 182.132 103.598 146.511 109.247 139.726C109.247 139.726 111.507 136.051 108.4 131.245C105.293 126.439 105.575 118.806 105.575 118.806C105.575 118.806 107.835 118.806 111.507 113.717Z" fill="#455A64"/>
<path d="M106.753 105.792L111.507 116.261L112.637 115.696L107.719 105.594L106.753 105.792Z" fill="#2F2E41"/>
<path d="M122.346 109.818L125.914 117.675L126.77 117.598L126.479 116.261L123.804 110.234C123.459 110.152 122.928 110.016 122.346 109.818Z" fill="#2F2E41"/>
<path d="M111.112 103.876C111.383 104.75 111.907 105.525 112.617 106.103C113.326 106.682 114.191 107.037 115.102 107.126C116.012 107.215 116.929 107.033 117.737 106.602C118.545 106.172 119.208 105.513 119.643 104.707C116.069 100.031 119.134 97.0936 124.939 94.8716C125.377 94.0594 125.563 93.1354 125.473 92.2171C125.384 91.2989 125.024 90.4279 124.439 89.715C122.839 89.5102 121.214 89.6658 119.681 90.1706C118.149 90.6754 116.749 91.5166 115.583 92.6325L115.581 92.6353L111.456 100.291C111.163 100.835 110.981 101.433 110.922 102.049C110.862 102.664 110.927 103.286 111.112 103.876Z" fill="#2F2E41"/>
<path d="M119.276 100.43C119.822 100.43 120.264 99.6702 120.264 98.7333C120.264 97.7965 119.822 97.0371 119.276 97.0371C118.73 97.0371 118.287 97.7965 118.287 98.7333C118.287 99.6702 118.73 100.43 119.276 100.43Z" fill="#FFBE9D"/>
<path d="M122.222 95.9653L130.713 99.8157L132.27 96.378C132.002 95.1216 131.44 93.9465 130.631 92.9488L124.787 90.2998L122.222 95.9653Z" fill="#2F2E41"/>
<path d="M142.633 171.823C144.717 171.823 146.406 170.132 146.406 168.047C146.406 165.961 144.717 164.271 142.633 164.271C140.549 164.271 138.859 165.961 138.859 168.047C138.859 170.132 140.549 171.823 142.633 171.823Z" fill="#001B40"/>
<path d="M21.4917 194.272C22.8536 194.272 23.9577 193.167 23.9577 191.804C23.9577 190.441 22.8536 189.336 21.4917 189.336C20.1297 189.336 19.0256 190.441 19.0256 191.804C19.0256 193.167 20.1297 194.272 21.4917 194.272Z" fill="#407BFF"/>
<path d="M33.9507 204.667H33.196V232.767H33.9507V204.667Z" fill="#424242"/>
<path d="M33.5734 208.641C35.7663 208.641 37.544 206.862 37.544 204.667C37.544 202.472 35.7663 200.693 33.5734 200.693C31.3805 200.693 29.6028 202.472 29.6028 204.667C29.6028 206.862 31.3805 208.641 33.5734 208.641Z" fill="#424242"/>
<path d="M33.5736 221.986C33.5736 221.986 33.0063 209.776 21.3781 211.195L33.5736 221.986Z" fill="#424242"/>
</g>
<defs>
<clipPath id="clip0_0_11646">
<rect width="303" height="233" fill="white"/>
</clipPath>
</defs>
</svg>
