<?xml version="1.0" encoding="utf-8"?>
<!-- Generator: Adobe Illustrator 18.1.1, SVG Export Plug-In . SVG Version: 6.00 Build 0)  -->
<svg version="1.1" xmlns="http://www.w3.org/2000/svg" xmlns:xlink="http://www.w3.org/1999/xlink" x="0px" y="0px"
	 viewBox="0 0 437.1 269.6" enable-background="new 0 0 437.1 269.6" xml:space="preserve">
<g id="Background_Complete">
</g>
<g id="Background_Simple" display="none">
</g>
<g id="Floor">
	<g>
		<g>
			<path fill="#263238" d="M421,247.9c0,0.1-89.8,0.3-200.5,0.3c-110.8,0-200.5-0.1-200.5-0.3s89.8-0.3,200.5-0.3
				C331.2,247.7,421,247.8,421,247.9z"/>
		</g>
	</g>
</g>
<g id="Window">
</g>
<g id="Rocket">
</g>
<g id="Search_bar">
</g>
<g id="Text">
</g>
<g id="Document">
</g>
<g id="Folders">
</g>
<g id="Plant">
</g>
<g id="Character">
	<g>
		<circle fill="#FFFFFF" cx="123.8" cy="181.9" r="20.3"/>
		<g>
			<g>
				<g>
					<g>
						<g>
							<g>
								<g>
									<g>
										<g>
											<g>
												<g>
													<g>
														<g>
															<g>
																<path fill="#455A64" d="M120.9,233l-0.3,14.6l19.2,0.5c-0.1-1.7-9.9-5.4-9.9-5.4l0.6-9.3L120.9,233z"/>
															</g>
														</g>
													</g>
												</g>
											</g>
										</g>
									</g>
								</g>
							</g>
						</g>
					</g>
				</g>
				<g opacity="0.6">
					<g>
						<g>
							<g>
								<g>
									<g>
										<g>
											<g>
												<g>
													<g>
														<g>
															<g>
																<g>
																	<path fill="#FFFFFF" d="M124,241.6c-0.4,0.1-0.6,0.5-0.6,0.8c0.1,0.4,0.5,0.6,0.9,0.5c0.4-0.1,0.7-0.5,0.6-0.9
																		C124.7,241.8,124.2,241.5,124,241.6"/>
																</g>
															</g>
														</g>
													</g>
												</g>
											</g>
										</g>
									</g>
								</g>
							</g>
						</g>
					</g>
				</g>
				<g opacity="0.6">
					<g>
						<g>
							<g>
								<g>
									<g>
										<g>
											<g>
												<g>
													<g>
														<g>
															<g>
																<path fill="#FFFFFF" d="M120.6,247.5l0.1-1.5l18.3,1c0,0,0.8,0.4,0.7,0.9L120.6,247.5z"/>
															</g>
														</g>
													</g>
												</g>
											</g>
										</g>
									</g>
								</g>
							</g>
						</g>
					</g>
				</g>
				<g>
					<g>
						<g>
							<g>
								<g>
									<g>
										<g>
											<g>
												<g>
													<g>
														<g>
															<g>
																<g>
																	<path fill="#263238" d="M130.2,242.5c0,0.1-0.5,0.1-0.9,0.4c-0.5,0.3-0.7,0.6-0.8,0.6c-0.1,0,0.1-0.5,0.6-0.9
																		C129.6,242.3,130.2,242.4,130.2,242.5z"/>
																</g>
															</g>
														</g>
													</g>
												</g>
											</g>
										</g>
									</g>
								</g>
							</g>
						</g>
					</g>
				</g>
				<g>
					<g>
						<g>
							<g>
								<g>
									<g>
										<g>
											<g>
												<g>
													<g>
														<g>
															<g>
																<g>
																	<path fill="#263238" d="M132.2,243.3c0,0.1-0.4,0.2-0.7,0.6c-0.3,0.4-0.4,0.8-0.5,0.8c-0.1,0-0.1-0.5,0.3-1
																		C131.6,243.2,132.2,243.2,132.2,243.3z"/>
																</g>
															</g>
														</g>
													</g>
												</g>
											</g>
										</g>
									</g>
								</g>
							</g>
						</g>
					</g>
				</g>
				<g>
					<g>
						<g>
							<g>
								<g>
									<g>
										<g>
											<g>
												<g>
													<g>
														<g>
															<g>
																<g>
																	<path fill="#263238" d="M133.2,245.6c-0.1,0-0.2-0.4,0-0.9c0.2-0.5,0.7-0.7,0.7-0.6c0.1,0.1-0.2,0.3-0.4,0.7
																		C133.4,245.2,133.3,245.6,133.2,245.6z"/>
																</g>
															</g>
														</g>
													</g>
												</g>
											</g>
										</g>
									</g>
								</g>
							</g>
						</g>
					</g>
				</g>
				<g>
					<g>
						<g>
							<g>
								<g>
									<g>
										<g>
											<g>
												<g>
													<g>
														<g>
															<g>
																<g>
																	<path fill="#263238" d="M130.1,240.3c0,0.1-0.5-0.1-1,0c-0.5,0-0.9,0.2-1,0.1c-0.1-0.1,0.4-0.4,1-0.4
																		C129.7,240,130.1,240.3,130.1,240.3z"/>
																</g>
															</g>
														</g>
													</g>
												</g>
											</g>
										</g>
									</g>
								</g>
							</g>
						</g>
					</g>
				</g>
				<g>
					<g>
						<g>
							<g>
								<g>
									<g>
										<g>
											<g>
												<g>
													<g>
														<g>
															<g>
																<g>
																	<path fill="#263238" d="M129.7,238.2c0,0-0.4,0.1-1,0c-0.3-0.1-0.6-0.2-1-0.3c-0.2-0.1-0.4-0.2-0.5-0.3
																		c-0.1-0.1-0.2-0.1-0.3-0.2c-0.1-0.1-0.2-0.3,0-0.5c0.1-0.1,0.3-0.2,0.4-0.2c0.1,0,0.3,0,0.4,0.1
																		c0.2,0.1,0.4,0.1,0.6,0.2c0.4,0.2,0.7,0.4,0.9,0.6C129.5,237.9,129.7,238.2,129.7,238.2c-0.1,0.1-0.3-0.2-0.7-0.5
																		c-0.2-0.2-0.5-0.3-0.8-0.5c-0.2-0.1-0.4-0.1-0.5-0.2c-0.2-0.1-0.4-0.1-0.4,0c0,0,0,0,0,0.1c0,0.1,0.1,0.1,0.2,0.2
																		c0.2,0.1,0.3,0.2,0.5,0.3c0.3,0.2,0.6,0.3,0.9,0.4C129.3,238.1,129.7,238.1,129.7,238.2z"/>
																</g>
															</g>
														</g>
													</g>
												</g>
											</g>
										</g>
									</g>
								</g>
							</g>
						</g>
					</g>
				</g>
				<g>
					<g>
						<g>
							<g>
								<g>
									<g>
										<g>
											<g>
												<g>
													<g>
														<g>
															<g>
																<g>
																	<path fill="#263238" d="M129.5,238.3c0,0-0.2-0.3-0.2-0.9c0-0.3,0-0.6,0.2-1c0.1-0.2,0.1-0.4,0.3-0.5
																		c0.1-0.2,0.3-0.4,0.6-0.4c0.2,0,0.3,0.1,0.4,0.3c0.1,0.1,0.1,0.2,0.1,0.3c0,0.2,0,0.4,0,0.6
																		c-0.1,0.4-0.2,0.7-0.4,0.9c-0.4,0.5-0.8,0.6-0.8,0.5c0,0,0.3-0.2,0.6-0.7c0.1-0.2,0.3-0.5,0.3-0.8
																		c0-0.2,0-0.3,0-0.5c0-0.2-0.1-0.4-0.2-0.3c-0.1,0-0.3,0.1-0.3,0.3c-0.1,0.2-0.2,0.3-0.3,0.5
																		c-0.1,0.3-0.2,0.6-0.2,0.9C129.5,237.9,129.6,238.3,129.5,238.3z"/>
																</g>
															</g>
														</g>
													</g>
												</g>
											</g>
										</g>
									</g>
								</g>
							</g>
						</g>
					</g>
				</g>
			</g>
		</g>
		<g>
			<g>
				<g>
					<g>
						<g>
							<g>
								<g>
									<g>
										<g>
											<g>
												<g>
													<g>
														<g>
															<g>
																<path fill="#455A64" d="M106.4,234.2l-1.8,14.4l-19-2.4c0.3-1.7,10.6-3.9,10.6-3.9l0.8-9.3L106.4,234.2z"/>
															</g>
														</g>
													</g>
												</g>
											</g>
										</g>
									</g>
								</g>
							</g>
						</g>
					</g>
				</g>
				<g opacity="0.6">
					<g>
						<g>
							<g>
								<g>
									<g>
										<g>
											<g>
												<g>
													<g>
														<g>
															<g>
																<g>
																	<path fill="#FFFFFF" d="M102.1,242.3c0.4,0.1,0.6,0.6,0.4,0.9c-0.1,0.3-0.6,0.5-0.9,0.4c-0.4-0.1-0.6-0.6-0.5-1
																		C101.3,242.3,101.8,242.1,102.1,242.3"/>
																</g>
															</g>
														</g>
													</g>
												</g>
											</g>
										</g>
									</g>
								</g>
							</g>
						</g>
					</g>
				</g>
				<g opacity="0.6">
					<g>
						<g>
							<g>
								<g>
									<g>
										<g>
											<g>
												<g>
													<g>
														<g>
															<g>
																<path fill="#FFFFFF" d="M104.5,248.6l0.1-1.5l-18.3-1.7c0,0-0.9,0.2-0.9,0.8L104.5,248.6z"/>
															</g>
														</g>
													</g>
												</g>
											</g>
										</g>
									</g>
								</g>
							</g>
						</g>
					</g>
				</g>
				<g>
					<g>
						<g>
							<g>
								<g>
									<g>
										<g>
											<g>
												<g>
													<g>
														<g>
															<g>
																<g>
																	<path fill="#263238" d="M95.8,242.2c0,0.1,0.5,0.2,0.9,0.5c0.4,0.3,0.6,0.7,0.7,0.7c0.1,0,0-0.5-0.5-1
																		C96.4,242.1,95.8,242.1,95.8,242.2z"/>
																</g>
															</g>
														</g>
													</g>
												</g>
											</g>
										</g>
									</g>
								</g>
							</g>
						</g>
					</g>
				</g>
				<g>
					<g>
						<g>
							<g>
								<g>
									<g>
										<g>
											<g>
												<g>
													<g>
														<g>
															<g>
																<g>
																	<path fill="#263238" d="M93.7,242.7c0,0.1,0.4,0.3,0.6,0.7c0.3,0.4,0.3,0.8,0.4,0.8c0.1,0,0.2-0.5-0.1-1
																		C94.3,242.8,93.7,242.7,93.7,242.7z"/>
																</g>
															</g>
														</g>
													</g>
												</g>
											</g>
										</g>
									</g>
								</g>
							</g>
						</g>
					</g>
				</g>
				<g>
					<g>
						<g>
							<g>
								<g>
									<g>
										<g>
											<g>
												<g>
													<g>
														<g>
															<g>
																<g>
																	<path fill="#263238" d="M92.3,244.9c0.1,0,0.3-0.4,0.1-0.9c-0.2-0.5-0.6-0.8-0.6-0.7c-0.1,0.1,0.2,0.4,0.3,0.8
																		C92.2,244.5,92.2,244.8,92.3,244.9z"/>
																</g>
															</g>
														</g>
													</g>
												</g>
											</g>
										</g>
									</g>
								</g>
							</g>
						</g>
					</g>
				</g>
				<g>
					<g>
						<g>
							<g>
								<g>
									<g>
										<g>
											<g>
												<g>
													<g>
														<g>
															<g>
																<g>
																	<path fill="#263238" d="M96.2,240.1c0,0.1,0.5,0,1,0.1c0.5,0.1,0.9,0.3,1,0.2c0.1-0.1-0.3-0.4-0.9-0.5
																		C96.7,239.8,96.2,240,96.2,240.1z"/>
																</g>
															</g>
														</g>
													</g>
												</g>
											</g>
										</g>
									</g>
								</g>
							</g>
						</g>
					</g>
				</g>
				<g>
					<g>
						<g>
							<g>
								<g>
									<g>
										<g>
											<g>
												<g>
													<g>
														<g>
															<g>
																<g>
																	<path fill="#263238" d="M96.9,238c0,0,0.4,0.1,1,0.1c0.3,0,0.7-0.1,1-0.2c0.2-0.1,0.4-0.1,0.6-0.2
																		c0.1,0,0.2-0.1,0.3-0.2c0.1-0.1,0.2-0.3,0.1-0.5c-0.1-0.2-0.2-0.2-0.4-0.3c-0.1,0-0.3,0-0.4,0
																		c-0.2,0-0.4,0.1-0.6,0.1c-0.4,0.1-0.7,0.3-0.9,0.4C97.1,237.8,96.9,238.1,96.9,238c0.1,0.1,0.3-0.1,0.8-0.4
																		c0.2-0.1,0.5-0.3,0.9-0.3c0.2,0,0.4-0.1,0.6-0.1c0.2,0,0.4,0,0.4,0.1c0,0,0,0,0,0.1c0,0-0.1,0.1-0.2,0.1
																		c-0.2,0.1-0.4,0.2-0.5,0.2c-0.4,0.1-0.7,0.2-1,0.2C97.3,238,96.9,238,96.9,238z"/>
																</g>
															</g>
														</g>
													</g>
												</g>
											</g>
										</g>
									</g>
								</g>
							</g>
						</g>
					</g>
				</g>
				<g>
					<g>
						<g>
							<g>
								<g>
									<g>
										<g>
											<g>
												<g>
													<g>
														<g>
															<g>
																<g>
																	<path fill="#263238" d="M97,238.2c0,0,0.3-0.3,0.4-0.8c0.1-0.3,0.1-0.6,0-1c0-0.2-0.1-0.4-0.2-0.6
																		c-0.1-0.2-0.2-0.4-0.6-0.5c-0.2,0-0.4,0.1-0.4,0.2c-0.1,0.1-0.1,0.2-0.1,0.3c-0.1,0.2-0.1,0.4-0.1,0.6
																		c0,0.4,0.1,0.7,0.3,1c0.3,0.5,0.7,0.7,0.7,0.6c0,0-0.3-0.2-0.5-0.7c-0.1-0.2-0.2-0.5-0.2-0.9c0-0.2,0-0.3,0.1-0.5
																		c0.1-0.2,0.1-0.3,0.2-0.3c0.1,0,0.2,0.2,0.3,0.3c0.1,0.2,0.1,0.3,0.2,0.5c0.1,0.3,0.1,0.7,0.1,0.9
																		C97.1,237.8,97,238.2,97,238.2z"/>
																</g>
															</g>
														</g>
													</g>
												</g>
											</g>
										</g>
									</g>
								</g>
							</g>
						</g>
					</g>
				</g>
			</g>
		</g>
		<g>
			<g>
				<g>
					<g>
						<g>
							<path fill="#263238" d="M131.1,241.4"/>
						</g>
					</g>
				</g>
			</g>
			<g>
				<g>
					<g>
						<g>
							<path fill="#27343C" d="M135.8,155.7l-29.8,1c0,0-7,47-6.8,50.2L94.8,241l12.6,0.4c0,0,2-11,3.4-18.6
								c0.9-5,2.6-12.4,3.1-16.6c0.5-4.2,7.8-33.5,7.8-33.5s-0.5,34-0.5,35.4c0,1.4-1.5,33.3-1.5,33.3h12.5
								c0.6-5.8,2.2-28.8,2.5-33.4c0.6-8.4,2.5-32.1,2.8-38.2C137.7,163.7,135.8,155.7,135.8,155.7z"/>
						</g>
					</g>
				</g>
			</g>
		</g>
		<g>
			<g>
				<g>
					<g>
						<ellipse fill="#455A64" cx="133.8" cy="154.9" rx="0.1" ry="1.1"/>
					</g>
				</g>
			</g>
		</g>
		<g>
			<g>
				<g>
					<g>
						<path fill="#455A64" d="M135,156.5c-0.1,0-0.2-0.6-0.1-1.4c0.1-0.8,0.3-1.4,0.3-1.3c0.1,0-0.1,0.6-0.1,1.4
							C135.1,155.9,135.1,156.5,135,156.5z"/>
					</g>
				</g>
			</g>
		</g>
		<g>
			<g>
				<g>
					<g>
						<path fill="#455A64" d="M123.9,154.3c0,0-0.3,0-0.6,0.4c-0.1,0.2-0.3,0.4-0.2,0.7c0,0.3,0.3,0.5,0.6,0.6
							c0.3,0.1,0.7-0.1,0.8-0.3c0.1-0.2,0.1-0.5,0.1-0.7c-0.1-0.4-0.5-0.5-0.5-0.6c0,0,0.1,0,0.2,0.1c0.1,0.1,0.3,0.2,0.4,0.5
							c0.1,0.2,0.1,0.6,0,0.9c-0.2,0.3-0.6,0.5-1,0.4c-0.4-0.1-0.7-0.4-0.8-0.7c-0.1-0.4,0.1-0.7,0.3-0.8c0.2-0.2,0.4-0.3,0.5-0.3
							C123.8,154.2,123.9,154.3,123.9,154.3z"/>
					</g>
				</g>
			</g>
		</g>
		<g>
			<g>
				<g>
					<g>
						<g>
							<g>
								<g>
									<g>
										<g>
											<path fill="#263238" d="M108.5,85.2c0.1-1.7,1.2-2.8,2.7-3.7c1.5-0.9,3.4-1,5-0.2c1.1,0.5,2,1.4,3.1,1.5
												c1.9,0.2,3.7-1.5,5.6-1.1c1.1,0.3,1.9,1.4,1.9,2.5c0,1.1-1,2.2-2.1,2.3c1.2,0.2,1.9,1.8,1.5,2.9c-0.5,1.2-1.8,1.8-3,1.9
												c-1.3,0-2.5-0.5-3.6-1.1c-1.1-0.6-2.1-1.4-3.2-1.9c-1.1-0.5-2.4-0.9-3.7-0.5c-1.6,0.4-2.8,2-3.2,3.6
												c-0.4,1.6-0.2,3.4,0,5.1c0.3,1.7,0.6,3.4,0.4,5.1c0,0.2-0.1,0.4-0.2,0.5c-0.3,0.1-0.5-0.1-0.7-0.3
												c-2.1-2.5-3.7-5.4-4.7-8.5c-0.6-1.8-0.9-3.6-0.2-5.3C104.7,86.1,107.1,84.5,108.5,85.2"/>
										</g>
									</g>
								</g>
							</g>
						</g>
					</g>
				</g>
				<g>
					<g>
						<g>
							<g>
								<g>
									<g>
										<g>
											<g>
												<g>
													<g>
														<g>
															<g>
																<g>
																	<g>
																		<g>
																			<g>
																				<g>
																					<g>
																						<g>
																							<g>
																								<path fill="#FFBE9D" d="M106.9,93.6l2.8,17.2c0.5,3.2,2.6,6.3,7.6,5.2l0,0c4.3-1.2,4-4.3,3.4-8.1
																									c0,0,0,0.1,0,0c0,0,4.7-1.2,4.3-6c-0.2-2.3-1-7.1-1.8-11.4c-0.8-4.6-5.1-7.8-9.7-7.3l-0.5,0
																									C108.1,84,106,88.6,106.9,93.6z"/>
																							</g>
																						</g>
																					</g>
																				</g>
																			</g>
																		</g>
																	</g>
																</g>
															</g>
														</g>
													</g>
												</g>
											</g>
										</g>
										<g>
											<g>
												<g>
													<g>
														<g>
															<g>
																<g>
																	<g>
																		<g>
																			<g>
																				<g>
																					<g>
																						<g>
																							<g>
																								<path fill="#EB996E" d="M120.7,107.8c0,0-3,0.5-6.4-1.2c0,0,1.9,3.6,6.6,2.7L120.7,107.8z"/>
																							</g>
																						</g>
																					</g>
																				</g>
																			</g>
																		</g>
																	</g>
																</g>
															</g>
														</g>
													</g>
												</g>
											</g>
										</g>
									</g>
								</g>
							</g>
							<g>
								<g>
									<g>
										<g>
											<g>
												<g>
													<g>
														<g>
															<g>
																<g>
																	<g>
																		<g>
																			<g>
																				<g>
																					<g>
																						<g>
																							<g>
																								<g>
																									<g>
																										<g>
																											<path fill="#263238" d="M122.3,94.6c0,0.4-0.2,0.7-0.6,0.8c-0.4,0.1-0.7-0.2-0.8-0.5
																												c0-0.4,0.2-0.7,0.6-0.8C121.9,94,122.3,94.3,122.3,94.6z"/>
																										</g>
																									</g>
																								</g>
																							</g>
																						</g>
																					</g>
																				</g>
																			</g>
																		</g>
																	</g>
																</g>
															</g>
														</g>
													</g>
													<g>
														<g>
															<g>
																<g>
																	<g>
																		<g>
																			<g>
																				<g>
																					<g>
																						<g>
																							<g>
																								<g>
																									<g>
																										<g>
																											<g>
																												<path fill="#263238" d="M122.4,92.9c-0.1,0.1-0.6-0.2-1.4-0.2c-0.7,0.1-1.2,0.5-1.3,0.4
																													c0,0,0-0.2,0.2-0.4c0.2-0.2,0.6-0.4,1.1-0.4c0.5,0,0.9,0.1,1.1,0.2C122.4,92.7,122.5,92.9,122.4,92.9z"
																													/>
																											</g>
																										</g>
																									</g>
																								</g>
																							</g>
																						</g>
																					</g>
																				</g>
																			</g>
																		</g>
																	</g>
																</g>
															</g>
														</g>
													</g>
												</g>
												<g>
													<g>
														<g>
															<g>
																<g>
																	<g>
																		<g>
																			<g>
																				<g>
																					<g>
																						<g>
																							<g>
																								<g>
																									<g>
																										<g>
																											<path fill="#263238" d="M115.6,95.7c0,0.4-0.2,0.7-0.6,0.8c-0.4,0.1-0.7-0.2-0.8-0.5
																												c0-0.4,0.2-0.7,0.6-0.8C115.2,95.1,115.5,95.3,115.6,95.7z"/>
																										</g>
																									</g>
																								</g>
																							</g>
																						</g>
																					</g>
																				</g>
																			</g>
																		</g>
																	</g>
																</g>
															</g>
														</g>
													</g>
													<g>
														<g>
															<g>
																<g>
																	<g>
																		<g>
																			<g>
																				<g>
																					<g>
																						<g>
																							<g>
																								<g>
																									<g>
																										<g>
																											<g>
																												<path fill="#263238" d="M115.4,93.8c-0.1,0.1-0.6-0.2-1.4-0.2c-0.7,0.1-1.2,0.5-1.3,0.4
																													c0,0,0-0.2,0.2-0.4c0.2-0.2,0.6-0.4,1.1-0.4c0.5,0,0.9,0.1,1.1,0.2C115.3,93.6,115.4,93.7,115.4,93.8z"
																													/>
																											</g>
																										</g>
																									</g>
																								</g>
																							</g>
																						</g>
																					</g>
																				</g>
																			</g>
																		</g>
																	</g>
																</g>
															</g>
														</g>
													</g>
												</g>
												<g>
													<g>
														<g>
															<g>
																<g>
																	<g>
																		<g>
																			<g>
																				<g>
																					<g>
																						<g>
																							<g>
																								<g>
																									<g>
																										<g>
																											<path fill="#263238" d="M118.4,99c0,0,0.4-0.2,1.2-0.3c0.2,0,0.4-0.1,0.4-0.2c0-0.1-0.1-0.3-0.2-0.5
																												c-0.2-0.4-0.5-0.9-0.7-1.4c-1-2-1.7-3.6-1.6-3.6c0.1,0,0.9,1.5,1.9,3.5c0.2,0.5,0.5,0.9,0.7,1.4
																												c0.1,0.2,0.2,0.4,0.2,0.7c0,0.1-0.2,0.3-0.3,0.3c-0.1,0-0.2,0.1-0.3,0.1C118.9,99,118.4,99,118.4,99z"/>
																										</g>
																									</g>
																								</g>
																							</g>
																						</g>
																					</g>
																				</g>
																			</g>
																		</g>
																	</g>
																</g>
															</g>
														</g>
													</g>
												</g>
											</g>
										</g>
									</g>
									<g>
										<g>
											<g>
												<g>
													<g>
														<g>
															<g>
																<g>
																	<g>
																		<g>
																			<g>
																				<g>
																					<g>
																						<g>
																							<path fill="#263238" d="M115.1,90.9c-0.1,0.2-0.8,0.2-1.7,0.4c-0.9,0.2-1.5,0.5-1.7,0.3
																								c-0.1-0.1,0-0.3,0.3-0.5c0.3-0.2,0.7-0.5,1.2-0.6c0.5-0.1,1-0.1,1.3,0C115,90.6,115.1,90.8,115.1,90.9z"/>
																						</g>
																					</g>
																				</g>
																			</g>
																		</g>
																	</g>
																</g>
															</g>
														</g>
													</g>
												</g>
											</g>
										</g>
									</g>
									<g>
										<g>
											<g>
												<g>
													<g>
														<g>
															<g>
																<g>
																	<g>
																		<g>
																			<g>
																				<g>
																					<g>
																						<g>
																							<path fill="#263238" d="M122,90.8c-0.1,0.2-0.6,0.1-1.2,0.1c-0.6,0-1.1,0.2-1.3,0.1c-0.1-0.1,0-0.3,0.2-0.4
																								c0.2-0.2,0.6-0.3,1-0.4c0.4,0,0.8,0.1,1,0.2C121.9,90.5,122,90.7,122,90.8z"/>
																						</g>
																					</g>
																				</g>
																			</g>
																		</g>
																	</g>
																</g>
															</g>
														</g>
													</g>
												</g>
											</g>
										</g>
									</g>
								</g>
							</g>
						</g>
					</g>
				</g>
				<g>
					<g>
						<g>
							<g>
								<g>
									<g>
										<g>
											<g>
												<g>
													<g>
														<g>
															<g>
																<g>
																	<g>
																		<g>
																			<path fill="#FFBE9D" d="M107.7,97.1c-0.1,0-3.4-0.6-3,2.6c0.4,3.3,3.6,2.2,3.6,2.1
																				C108.3,101.7,107.7,97.1,107.7,97.1z"/>
																		</g>
																	</g>
																</g>
															</g>
														</g>
													</g>
												</g>
											</g>
										</g>
									</g>
								</g>
							</g>
						</g>
					</g>
					<g>
						<g>
							<g>
								<g>
									<g>
										<g>
											<g>
												<g>
													<g>
														<g>
															<g>
																<g>
																	<g>
																		<g>
																			<g>
																				<path fill="#EB996E" d="M107.2,100.7c0,0-0.1,0-0.1,0.1c-0.1,0.1-0.2,0.1-0.4,0.1c-0.4-0.1-0.7-0.6-0.8-1.2
																					c0-0.3,0-0.6,0.1-0.8c0.1-0.3,0.2-0.4,0.4-0.5c0.2-0.1,0.3,0,0.4,0.1c0.1,0.1,0,0.2,0.1,0.2c0,0,0.1-0.1,0-0.2
																					c0-0.1-0.1-0.1-0.2-0.2c-0.1-0.1-0.2-0.1-0.3,0c-0.2,0.1-0.4,0.3-0.5,0.6c-0.1,0.3-0.1,0.6-0.1,0.9
																					c0.1,0.7,0.5,1.2,1,1.3c0.2,0,0.4-0.1,0.5-0.2C107.2,100.7,107.2,100.7,107.2,100.7z"/>
																			</g>
																		</g>
																	</g>
																</g>
															</g>
														</g>
													</g>
												</g>
											</g>
										</g>
									</g>
								</g>
							</g>
						</g>
					</g>
				</g>
				<g>
					<g>
						<path fill="#263238" d="M122.8,86c-0.5-0.9-1.4-1.6-2.2-2.1c-1.9-1.2-4.2-1.8-6.4-1.6c-2.2,0.2-4.4,1.2-5.9,2.9
							c-1.2,1.4-1.8,3.1-2.1,4.9c-0.2,1.8,0,3.6,0.5,5.3c0.2,0.8,0.5,1.5,1.1,2c0.4,0.3,1,0.5,1.3,0.2c0.2-0.2,0.3-0.5,0.3-0.8
							c0.4-2.6,0.7-5.4-0.4-7.7c0.5-0.9,1.2-1.7,2.1-2.3c0.9-0.6,1.9-0.9,2.9-0.7c1.5,0.3,2.6,1.6,3.8,2.5c1.8,1.2,4.2,1.5,6.3,0.8
							L122.8,86z"/>
					</g>
				</g>
			</g>
			<g>
				<g>
					<g>
						<g>
							<g>
								<g>
									<path fill="#EB996E" d="M119.1,101c-0.1,0.3-0.1,0.6-0.2,0.9c-0.1,0.3-0.4,0.5-0.7,0.6c-0.3,0.1-0.7,0-0.9-0.3
										c-0.2-0.2-0.4-0.6-0.4-0.9c0-0.3,0-0.7,0.3-0.8c0.1,0,0.2,0,0.4,0c0.6,0.1,1.1,0.2,1.7,0.3"/>
								</g>
							</g>
						</g>
					</g>
				</g>
				<g>
					<g>
						<g>
							<g>
								<g>
									<g>
										<path fill="#263238" d="M118.7,102.3c0,0-0.3,0.2-0.8,0.1c-0.2,0-0.5-0.2-0.7-0.4c-0.2-0.3-0.3-0.6-0.2-1
											c0-0.1,0.1-0.2,0.1-0.3c0-0.1,0-0.1,0.1-0.1c0.1,0,0.2,0,0.3,0c0.1,0,0.2,0,0.3,0c0.4,0.1,0.7,0.1,1,0.2
											c0.5,0.1,0.9,0.1,0.9,0.1c0,0-0.3-0.1-0.9-0.3c-0.3-0.1-0.6-0.1-0.9-0.2c-0.1,0-0.2,0-0.3-0.1c-0.1,0-0.2,0-0.3-0.1
											c-0.1,0-0.2,0-0.2,0.1c-0.1,0-0.1,0.1-0.1,0.2c0,0.1-0.1,0.2-0.1,0.3c-0.1,0.5,0,0.9,0.3,1.2c0.3,0.3,0.6,0.4,0.9,0.5
											c0.3,0,0.5,0,0.7-0.1C118.7,102.4,118.7,102.4,118.7,102.3z"/>
									</g>
								</g>
							</g>
						</g>
					</g>
				</g>
			</g>
		</g>
		<g>
			<g>
				<path fill="#FFBE9D" d="M130.9,93.9l0.8-0.2l12.1,11.7l9.8,1.2c0,0-0.1-3-3.8-6.7c-3.3-3.4-11-7.4-13.6-9.4
					c-0.6-0.5-1.1-0.7-1.1-0.7L130.9,93.9z"/>
			</g>
			<g>
				<g>
					<path fill="#FFBE9D" d="M130.9,88.3l-1.2-0.3l-2.9-1.4l-3.3,1.2c0,0,0.1,1.1,0.9,0.8l-3.5,1.1c0,0,0.3,0.8,0.4,0.9
						c0.2,0.1-2,0.2-2,0.2s0,1.1,2.1,1.1c2.1,0,2.9-0.4,2.9-0.4l1.7,0.4l-0.1,1l-2.3,0l0.1,1.3c0.3,0.2,2.9,0.4,2.9,0.4
						s3.5,0.1,4.5-0.4c0.9-0.5,2.2-1.1,2.2-1.1l1.8-3.5L130.9,88.3z"/>
				</g>
				<g>
					<g>
						<path fill="#EB996E" d="M127.8,88.9c0,0-0.2-0.1-0.5-0.2c-0.3-0.1-0.7-0.3-1.2-0.6l0.2,0c0,0-0.1,0.1-0.1,0.1
							c-0.5,0.3-1,0.5-1.4,0.5c-0.4,0-0.6,0-0.6,0c0-0.1,0.9-0.1,1.8-0.7c0,0,0.1-0.1,0.1-0.1l0.1,0l0.1,0.1
							c0.4,0.3,0.8,0.5,1.1,0.7C127.7,88.7,127.8,88.9,127.8,88.9z"/>
					</g>
				</g>
				<g>
					<g>
						<path fill="#EB996E" d="M126.7,90.7c0,0-0.2,0.1-0.6-0.1c-0.3-0.1-0.7-0.5-1.2-0.7l0.1,0c-0.2,0.1-0.4,0.3-0.7,0.4
							c-0.7,0.3-1.4,0.4-1.9,0.5c-0.5,0-0.8-0.1-0.8-0.1c0-0.1,1.2,0,2.6-0.6c0.2-0.1,0.4-0.2,0.6-0.4l0.1,0l0.1,0
							c0.5,0.3,0.9,0.6,1.2,0.8C126.5,90.6,126.7,90.6,126.7,90.7z"/>
					</g>
				</g>
				<g>
					<g>
						<path fill="#EB996E" d="M129.8,91.8c0,0-0.3,0-0.7,0c-0.4,0-0.9,0.1-1.4,0.4c-0.3,0.2-0.6,0.5-0.7,0.7l0,0l0,0
							c-0.7,0.1-1.2,0.2-1.2,0.1c0,0,0.4-0.2,1.1-0.4l-0.1,0.1c0.2-0.3,0.4-0.6,0.8-0.8c0.6-0.4,1.2-0.4,1.6-0.4
							C129.6,91.6,129.8,91.7,129.8,91.8z"/>
					</g>
				</g>
				<g>
					<g>
						<path fill="none" d="M135.1,89.8l-4.2-1.4l-1.2-0.3l-2.9-1.4l-3.3,1.2c0,0,0.1,1.1,0.9,0.8l-3.5,1.1c0,0,0.3,0.8,0.4,0.9
							c0.2,0.1-2,0.2-2,0.2s0,1.1,2.1,1.1c2.1,0,2.9-0.4,2.9-0.4l1.7,0.4l-0.1,1l-2.2-0.1l0.2,1.4c0.3,0.2,2.7,0.4,2.7,0.4
							s3.5,0.1,4.5-0.4c0.9-0.5,2.2-1.1,2.2-1.1"/>
					</g>
					<g>
						<g>
							<path fill="#EB996E" d="M133.3,93.2c0,0,0,0-0.1,0.1c-0.1,0-0.2,0.1-0.3,0.2c-0.3,0.2-0.7,0.4-1.2,0.7
								c-0.3,0.1-0.5,0.3-0.9,0.4c-0.4,0.1-0.8,0.1-1.2,0.2c-0.9,0.1-1.8,0.1-2.9,0.1h0l0,0c-0.4,0-0.9-0.1-1.3-0.1
								c-0.5-0.1-0.9-0.1-1.4-0.2l-0.1,0l0-0.1c-0.1-0.4-0.1-0.9-0.2-1.4l0-0.1l0.1,0c0.7,0,1.4,0.1,2.2,0.1l-0.1,0.1
								c0-0.3,0-0.6,0.1-1l0.1,0.1c-0.5-0.1-1.1-0.3-1.7-0.4l0.1,0c-0.8,0.3-1.6,0.3-2.5,0.4c-0.4,0-0.9,0-1.3-0.1
								c-0.4-0.1-0.9-0.3-1.2-0.7c-0.1-0.1-0.1-0.3-0.1-0.4l0-0.1l0.1,0c0.5,0,1-0.1,1.5-0.1c0.1,0,0.3,0,0.4,0l0.1,0c0,0,0,0,0,0
								c0,0,0,0,0,0c0,0,0,0.1,0,0.1c0,0,0.1,0.1,0.1,0.1c0,0-0.1,0-0.1-0.1c-0.1-0.1-0.1-0.1-0.1-0.2c-0.1-0.2-0.2-0.5-0.3-0.7
								l0-0.1l0.1,0c1.2-0.4,2.4-0.8,3.5-1.1l0.1,0.2c-0.1,0-0.3,0.1-0.4,0c-0.2,0-0.3-0.1-0.4-0.2c-0.2-0.2-0.2-0.5-0.3-0.8l0-0.1
								l0.1,0c1.2-0.4,2.3-0.8,3.3-1.2l0,0l0,0c1.1,0.5,2,1,2.9,1.4l0,0c0.4,0.1,0.8,0.2,1.2,0.4c0.4,0.1,0.7,0.3,1.1,0.4
								c0.7,0.2,1.2,0.4,1.7,0.6c0.4,0.2,0.8,0.3,1.1,0.4c0.2,0.1,0.4,0.1,0.4,0.2c0,0-0.1,0-0.4-0.1c-0.3-0.1-0.6-0.2-1.1-0.3
								c-0.5-0.2-1-0.3-1.7-0.6c-0.3-0.1-0.7-0.2-1.1-0.4c-0.4-0.1-0.8-0.2-1.2-0.3l0,0l0,0c-0.9-0.4-1.9-0.9-2.9-1.4l0.1,0
								c-1,0.4-2.1,0.8-3.3,1.2l0.1-0.1c0,0.2,0.1,0.5,0.2,0.6c0.1,0.2,0.3,0.2,0.6,0.1l0.1,0.2c-1.1,0.4-2.3,0.8-3.5,1.2l0.1-0.2
								c0.1,0.2,0.2,0.5,0.3,0.7c0,0,0.1,0.1,0.1,0.1c0,0,0,0,0,0c0,0,0,0,0,0.1l0,0l0,0c0-0.1,0,0,0-0.1c0,0,0,0,0,0
								c0,0,0,0.1,0,0.1c0,0,0,0.1,0,0.1c0,0,0,0,0,0c0,0,0,0,0,0c0,0-0.1,0-0.1,0c-0.1,0-0.3,0-0.4,0.1c-0.5,0.1-1,0.1-1.5,0.1
								l0.1-0.1c0,0.1,0,0.2,0.1,0.3c0.2,0.3,0.6,0.5,1,0.6c0.4,0.1,0.8,0.1,1.3,0.1c0.8,0,1.7-0.1,2.4-0.4l0,0l0,0
								c0.6,0.2,1.1,0.3,1.7,0.4l0.1,0l0,0.1c0,0.3,0,0.7-0.1,1l0,0.1l-0.1,0c-0.7,0-1.5-0.1-2.2-0.1l0.1-0.1c0.1,0.5,0.1,1,0.2,1.4
								l-0.1-0.1c0.4,0.1,0.9,0.2,1.4,0.2c0.5,0.1,0.9,0.1,1.3,0.1l0,0c1.1,0,2,0,2.9-0.1c0.4,0,0.8-0.1,1.2-0.2
								c0.3-0.1,0.6-0.3,0.9-0.4c0.5-0.3,0.9-0.5,1.2-0.6c0.1-0.1,0.2-0.1,0.3-0.2C133.2,93.2,133.3,93.2,133.3,93.2z"/>
						</g>
					</g>
				</g>
				<g>
					<g>
						<path fill="#EB996E" d="M129.1,89.4c0.1,0-0.4,0.7-1.3,1.3c-0.8,0.6-1.6,0.9-1.7,0.8c0-0.1,0.7-0.4,1.5-1
							C128.5,90,129,89.4,129.1,89.4z"/>
					</g>
				</g>
			</g>
		</g>
		<g>
			<g>
				<path fill="#0062A8" d="M153.5,106.2l-9.7-0.8l-11.4,4.4l-2.5,1.5l3.6,12.2c0,0,17.9-10.6,18.7-11.5
					C154.4,109.3,153.5,106.2,153.5,106.2z"/>
			</g>
			<g>
				<g>
					<g>
						<g>
							<path fill="#006405" d="M101.7,115.2l-3.3,2.1l7.7,30.3l-1.4,17.4c2,1.7,7,3.2,16.5,2.7c9.5-0.5,15.9-4.7,15.9-4.7l-0.9-18
								l-2.2-20.3l-2.5-13.9l-7.3,0.5l-2.9-1.7l-1.3,0.6l-1.6,4.6l-4.3-3.1l-5-2.4l-1.8,3.4L101.7,115.2z"/>
						</g>
					</g>
				</g>
			</g>
			<g>
				<g>
					<path fill="#263238" d="M131.6,114.5c0,0,0.1,0.2,0.3,0.7c0.2,0.4,0.4,1.1,0.6,1.9c0.5,1.6,1,3.8,1.5,6.3
						c0.4,2.5,0.7,4.8,0.8,6.5c0.1,0.8,0.1,1.5,0.1,2c0,0.5,0,0.7,0,0.7s0-0.3-0.1-0.7c0-0.5-0.1-1.2-0.2-2
						c-0.2-1.7-0.4-3.9-0.9-6.4c-0.4-2.5-1-4.7-1.4-6.3c-0.2-0.8-0.4-1.4-0.5-1.9C131.6,114.7,131.5,114.5,131.6,114.5z"/>
				</g>
			</g>
		</g>
		<g>
			<g>
				<path fill="#263238" d="M117.1,114.7c0,0-0.3,0-0.7-0.3c-0.4-0.2-1-0.6-1.5-1.3l0.2,0c-0.1,1.2-0.3,2.8-0.9,4.4l-0.1,0.2
					l-0.1-0.1c-0.1-0.1-0.2-0.2-0.4-0.2c-1.7-1.2-3.3-2.3-4.4-3.1c-0.5-0.4-1-0.7-1.3-1c-0.3-0.2-0.5-0.4-0.5-0.4
					c0,0,0.2,0.1,0.5,0.3c0.4,0.2,0.8,0.5,1.4,0.9c1.1,0.8,2.7,1.8,4.4,3c0.1,0.1,0.2,0.2,0.4,0.2l-0.2,0.1c0.6-1.6,0.8-3.1,0.9-4.3
					l0-0.3l0.2,0.2c0.5,0.7,1,1.1,1.4,1.3C116.8,114.6,117.1,114.7,117.1,114.7z"/>
			</g>
		</g>
		<g>
			<g>
				<path fill="#263238" d="M123.9,112c0,0-0.6,0.8-1.6,1.8l-0.1,0.1l-0.1-0.1c-0.3-0.4-0.7-0.7-1.1-1.1c-0.2-0.2-0.4-0.4-0.6-0.5
					c-0.1-0.1-0.2-0.1-0.3-0.2c0,0-0.1,0-0.1,0c0,0,0,0,0,0.1c-0.2,0.4-0.3,0.8-0.5,1.2c-0.3,0.7-0.5,1.1-0.5,1.1
					c0,0,0.1-0.4,0.3-1.1c0.1-0.4,0.3-0.8,0.4-1.2c0-0.1,0.1-0.2,0.2-0.2c0.1-0.1,0.2,0,0.3,0c0.1,0.1,0.2,0.1,0.3,0.2
					c0.2,0.2,0.4,0.3,0.6,0.5c0.4,0.4,0.8,0.8,1.1,1.1l-0.2,0C123.2,112.7,123.9,112,123.9,112z"/>
			</g>
		</g>
		<g>
			<g>
				<g>
					<g>
						<g>
							<g>
								<g>
									<g>
										<g>
											<g>
												<g>
													<path fill="#455A64" d="M122,166.4c4.1-0.8,8.5-0.3,12.6,1.6c5,2.3,8.8,6.5,10.7,11.7c1.9,5.2,1.7,10.8-0.7,15.9
														c-4.8,10.4-17.2,14.9-27.6,10.1l0,0c-5-2.3-8.8-6.5-10.7-11.7c-1.9-5.2-1.7-10.8,0.7-15.9
														C109.9,171.8,115.6,167.6,122,166.4z M129.3,205.8c5.9-1.1,11.2-5,14-10.8c2.2-4.7,2.4-9.9,0.6-14.8
														c-1.8-4.9-5.3-8.7-10-10.9c-4.7-2.2-9.9-2.4-14.8-0.6c-4.9,1.8-8.7,5.3-10.9,10c-2.2,4.7-2.4,9.9-0.6,14.8
														c1.8,4.9,5.3,8.7,10,10.9C121.4,206.1,125.5,206.6,129.3,205.8z"/>
												</g>
												<g>
													<path fill="#455A64" stroke="#FFFFFF" stroke-miterlimit="10" d="M125.7,208.6c-3.1,0-6.2-0.7-9.1-2
														c-5.3-2.5-9.3-6.8-11.3-12.3c-2-5.5-1.7-11.4,0.7-16.6c2.9-6.3,8.8-10.9,15.7-12.2c4.5-0.8,9-0.3,13.2,1.6
														c5.3,2.5,9.3,6.8,11.3,12.3c2,5.5,1.7,11.4-0.7,16.6c-2.4,5.3-6.8,9.2-12.3,11.2C130.8,208.1,128.3,208.6,125.7,208.6z
														 M125.8,168.5c-2.1,0-4.2,0.4-6.3,1.1c-4.6,1.7-8.3,5.1-10.3,9.5c-2.1,4.4-2.3,9.4-0.6,14c1.7,4.6,5.1,8.3,9.5,10.3
														c3.5,1.6,7.3,2.1,11.1,1.4l0,0c5.8-1.1,10.8-4.9,13.3-10.3c2.1-4.4,2.3-9.4,0.6-14c-1.7-4.6-5.1-8.3-9.5-10.3
														C131.1,169,128.4,168.5,125.8,168.5z"/>
												</g>
											</g>
										</g>
									</g>
								</g>
							</g>
						</g>
						<g>
							<g>
								<g>
									<g>
										<g>
											<g>
												<g>
													<path fill="#455A64" d="M75.3,166.6l0.2-0.5c0.4-1,1.3-1.5,1.9-1.3l30.3,12.3c0.1,0.1,0.2,0.3,0.1,0.5l-1.3,3.2
														c-0.1,0.2-0.3,0.3-0.4,0.3l-30.3-12.3C75.2,168.5,74.9,167.5,75.3,166.6z"/>
												</g>
											</g>
										</g>
									</g>
								</g>
							</g>
						</g>
					</g>
				</g>
			</g>
			<g>
				<g>
					<g>
						<g>
							<g>
								<g>
									<g>
										<path fill="#FFBE9D" d="M103.6,131.7l-3.6,12.1l1.8,24.6l-5.4,0.7c0,0-6.2-20.9-5.5-24.7c0.6-3.8,3.1-14.8,3.1-14.8
											L103.6,131.7z"/>
									</g>
								</g>
							</g>
						</g>
					</g>
					<g>
						<g>
							<g>
								<g>
									<g>
										<path fill="#FFBE9D" d="M101.8,168.1l2.5,4.3l1.6,4l-2.4-0.9c0,0-1,4.8-1.4,5c-0.4,0.1-1.5-0.3-1.4-1.2
											c0,0-0.6,0.6-1.3,0.4c-0.7-0.1-0.9-0.6-0.8-1.5c0,0-0.8,0.7-1.3,0.3c-0.5-0.4-0.4-1.2-0.4-1.2s-1.1,0.1-1.2-0.5
											c-0.1-0.6-0.2-2.2-0.1-2.8c0.1-0.6,0.6-3.1,0.6-3.1l0.2-2L101.8,168.1z"/>
									</g>
								</g>
							</g>
						</g>
						<g>
							<g>
								<g>
									<g>
										<g>
											
												<ellipse transform="matrix(0.1873 -0.9823 0.9823 0.1873 -92.6778 243.7117)" fill="#EB996E" cx="100.9" cy="177.9" rx="1.4" ry="0.1"/>
										</g>
									</g>
								</g>
							</g>
						</g>
						<g>
							<g>
								<g>
									<g>
										<g>
											
												<ellipse transform="matrix(0.1968 -0.9804 0.9804 0.1968 -94.2137 239.0568)" fill="#EB996E" cx="98.8" cy="177" rx="1.1" ry="0.1"/>
										</g>
									</g>
								</g>
							</g>
						</g>
						<g>
							<g>
								<g>
									<g>
										<g>
											<path fill="#EB996E" d="M97.2,175.4c-0.1,0-0.1,0.4-0.2,0.9c-0.1,0.5-0.2,0.9-0.2,0.9c0.1,0,0.3-0.4,0.4-0.9
												C97.3,175.8,97.2,175.4,97.2,175.4z"/>
										</g>
									</g>
								</g>
							</g>
						</g>
						<g>
							<g>
								<g>
									<g>
										<g>
											<path fill="#EB996E" d="M103.7,174.1c-0.1,0-0.2,0.6-0.4,1.3c-0.2,0.7-0.3,1.4-0.3,1.4c0.1,0,0.3-0.6,0.5-1.3
												C103.7,174.7,103.8,174.1,103.7,174.1z"/>
										</g>
									</g>
								</g>
							</g>
						</g>
					</g>
				</g>
				<g>
					<path fill="#0062A8" d="M90.6,152.4c0-0.4-1.7-6.1-1.2-9.1c0.5-3,6.6-23,7.4-24.5c0.8-1.4,2.6-2.2,2.6-2.2s3.6,1.7,4.9,6.1
						c1.2,4.4,1.2,9.9,1.2,9.9l-4.9,12.2l0.6,6.9L90.6,152.4z"/>
				</g>
			</g>
			<g>
				<g>
					<path fill="#263238" d="M105.2,132.2c0,0,0-0.9,0-2.3c0-0.7-0.1-1.6-0.2-2.5c-0.2-0.9-0.4-2-0.7-3c-0.3-1-0.7-2-1.2-2.9
						c-0.4-0.9-0.9-1.6-1.3-2.2c-0.8-1.2-1.4-1.9-1.3-1.9c0,0,0.2,0.1,0.4,0.5c0.3,0.3,0.6,0.8,1.1,1.4c0.4,0.6,0.9,1.3,1.3,2.2
						c0.4,0.9,0.8,1.8,1.2,2.9c0.3,1.1,0.6,2.1,0.7,3.1c0.1,1,0.2,1.8,0.2,2.6c0,0.7,0,1.3-0.1,1.7
						C105.3,132,105.3,132.2,105.2,132.2z"/>
				</g>
			</g>
			<g>
				<g>
					<path fill="#263238" d="M104.9,134.8c0,0-0.2,0.6-0.5,1.5c-0.4,0.9-0.9,2.2-1.5,3.6c-0.6,1.3-1.1,2.5-1.6,3.5
						c-0.4,0.9-0.6,1.5-0.7,1.4c0,0,0.2-0.6,0.5-1.5c0.4-0.9,0.9-2.2,1.5-3.6c0.6-1.3,1.1-2.5,1.6-3.5
						C104.7,135.3,104.9,134.8,104.9,134.8z"/>
				</g>
			</g>
			<g>
				<g>
					<path fill="#263238" d="M100.9,145.3c0,0.1-1.4-0.9-3.4-1.5c-1.9-0.6-3.6-0.6-3.6-0.6c0,0,0.4-0.1,1.1-0.1
						c0.7,0,1.6,0.1,2.6,0.4c1,0.3,1.8,0.7,2.4,1.1C100.6,145,101,145.3,100.9,145.3z"/>
				</g>
			</g>
			<g>
				<g>
					
						<ellipse transform="matrix(0.7598 -0.6501 0.6501 0.7598 -92.0557 125.6292)" fill="#FFFFFF" cx="124" cy="187.4" rx="11.7" ry="0.1"/>
				</g>
			</g>
			<g>
				<g>
					
						<ellipse transform="matrix(0.7583 -0.6519 0.6519 0.7583 -89.8762 130.0542)" fill="#FFFFFF" cx="130.5" cy="186.2" rx="9.9" ry="0.1"/>
				</g>
			</g>
			<g>
				<g>
					<path fill="#263238" d="M145.5,186.8c0,0,0-0.1,0-0.3c0-0.2,0-0.5-0.1-0.9c0-0.2,0-0.4,0-0.7c0-0.3-0.1-0.5-0.1-0.8
						c0-0.3-0.1-0.6-0.2-1c0-0.3-0.2-0.7-0.3-1.1c-0.3-1.5-1.1-3.3-2.2-5.2c-1.1-1.9-2.8-3.9-5-5.6c-0.3-0.2-0.6-0.4-0.8-0.6
						c-0.3-0.2-0.6-0.4-0.9-0.6c-0.3-0.2-0.6-0.4-1-0.6c-0.3-0.2-0.7-0.3-1-0.5c-0.2-0.1-0.3-0.2-0.5-0.2c-0.2-0.1-0.4-0.1-0.5-0.2
						c-0.4-0.1-0.7-0.3-1.1-0.4c-0.4-0.1-0.8-0.2-1.2-0.3c-0.4-0.1-0.8-0.2-1.2-0.3c-0.8-0.1-1.6-0.3-2.5-0.3c-0.4,0-0.8-0.1-1.3,0
						c-0.4,0-0.9,0-1.3,0.1c-0.2,0-0.4,0-0.7,0l-0.7,0.1c-0.4,0.1-0.9,0.1-1.3,0.2c-0.9,0.2-1.8,0.4-2.6,0.8
						c-0.9,0.3-1.7,0.7-2.6,1.1c-0.4,0.2-0.8,0.5-1.2,0.7c-0.2,0.1-0.4,0.2-0.6,0.4l-0.6,0.4c-0.8,0.5-1.5,1.2-2.2,1.9
						c-0.7,0.7-1.3,1.4-1.9,2.3l-0.4,0.6l-0.4,0.6l-0.4,0.6c-0.1,0.2-0.3,0.4-0.4,0.7c-0.2,0.5-0.4,0.9-0.7,1.4
						c-0.2,0.5-0.4,1-0.5,1.4c-0.6,2-1,4-1,6.2c0,2.1,0.4,4.2,1,6.2c0.2,0.5,0.4,1,0.5,1.4c0.2,0.5,0.4,0.9,0.7,1.4l0.2,0.3l0.2,0.3
						l0.4,0.6l0.4,0.6l0.4,0.6c0.6,0.8,1.3,1.5,1.9,2.3c0.7,0.7,1.4,1.3,2.2,1.9l0.6,0.4c0.2,0.1,0.4,0.3,0.6,0.4
						c0.4,0.2,0.8,0.5,1.2,0.7c0.8,0.4,1.7,0.8,2.6,1.1c0.9,0.4,1.7,0.5,2.6,0.8c0.4,0.1,0.9,0.1,1.3,0.2l0.7,0.1c0.2,0,0.4,0,0.7,0
						c0.4,0,0.9,0,1.3,0.1c0.4,0,0.9,0,1.3,0c0.8,0,1.7-0.2,2.5-0.3c0.4,0,0.8-0.2,1.2-0.3c0.4-0.1,0.8-0.2,1.2-0.3
						c0.4-0.1,0.7-0.3,1.1-0.4c0.2-0.1,0.4-0.1,0.5-0.2c0.2-0.1,0.3-0.2,0.5-0.2c0.3-0.2,0.7-0.3,1-0.5c0.3-0.2,0.6-0.4,1-0.6
						c0.3-0.2,0.6-0.4,0.9-0.6c0.3-0.2,0.6-0.4,0.8-0.6c2.2-1.7,3.9-3.7,5-5.6c1.1-1.9,1.8-3.7,2.2-5.2c0.1-0.4,0.2-0.7,0.3-1.1
						c0.1-0.3,0.1-0.7,0.2-1c0-0.3,0.1-0.6,0.1-0.8c0-0.3,0-0.5,0-0.7c0-0.4,0-0.7,0.1-0.9C145.4,186.9,145.5,186.8,145.5,186.8
						s0,0.1,0,0.3c0,0.2,0,0.5,0,0.9c0,0.2,0,0.4,0,0.7c0,0.3-0.1,0.5-0.1,0.8c0,0.3-0.1,0.6-0.1,1c0,0.3-0.2,0.7-0.2,1.1
						c-0.3,1.5-1,3.3-2.2,5.3c-1.1,1.9-2.8,3.9-5,5.6c-0.3,0.2-0.6,0.4-0.9,0.6c-0.3,0.2-0.6,0.4-0.9,0.6c-0.3,0.2-0.6,0.4-1,0.6
						c-0.3,0.2-0.7,0.3-1,0.5c-0.2,0.1-0.3,0.2-0.5,0.2c-0.2,0.1-0.4,0.1-0.5,0.2c-0.4,0.1-0.7,0.3-1.1,0.4
						c-0.4,0.1-0.8,0.2-1.2,0.3c-0.4,0.1-0.8,0.2-1.2,0.3c-0.8,0.1-1.6,0.3-2.5,0.3c-0.4,0-0.9,0.1-1.3,0.1c-0.4,0-0.9,0-1.3-0.1
						c-0.2,0-0.4,0-0.7,0l-0.7-0.1c-0.4-0.1-0.9-0.1-1.3-0.2c-0.9-0.2-1.8-0.4-2.6-0.8c-0.9-0.3-1.7-0.7-2.6-1.1
						c-0.4-0.2-0.8-0.5-1.2-0.7c-0.2-0.1-0.4-0.2-0.6-0.4l-0.6-0.4c-0.8-0.6-1.5-1.2-2.2-1.9c-0.7-0.7-1.4-1.5-1.9-2.3l-0.5-0.6
						l-0.4-0.7l-0.4-0.7l-0.2-0.3l-0.2-0.3c-0.2-0.5-0.4-0.9-0.7-1.4c-0.2-0.5-0.4-1-0.5-1.5c-0.6-2-1-4.1-1-6.3
						c0-2.1,0.4-4.3,1-6.2c0.2-0.5,0.4-1,0.5-1.5c0.2-0.5,0.4-0.9,0.7-1.4c0.1-0.2,0.2-0.5,0.4-0.7l0.4-0.7l0.4-0.7l0.5-0.6
						c0.6-0.8,1.3-1.6,1.9-2.3c0.7-0.7,1.4-1.4,2.2-1.9l0.6-0.4c0.2-0.1,0.4-0.3,0.6-0.4c0.4-0.2,0.8-0.5,1.2-0.7
						c0.9-0.4,1.7-0.8,2.6-1.1c0.9-0.4,1.8-0.5,2.6-0.8c0.4-0.1,0.9-0.1,1.3-0.2l0.7-0.1c0.2,0,0.4,0,0.7,0c0.4,0,0.9,0,1.3-0.1
						c0.4,0,0.9,0,1.3,0.1c0.9,0,1.7,0.2,2.5,0.3c0.4,0,0.8,0.2,1.2,0.3c0.4,0.1,0.8,0.2,1.2,0.3c0.4,0.1,0.7,0.3,1.1,0.4
						c0.2,0.1,0.4,0.1,0.5,0.2c0.2,0.1,0.3,0.2,0.5,0.2c0.3,0.2,0.7,0.3,1,0.5c0.3,0.2,0.6,0.4,1,0.6c0.3,0.2,0.6,0.4,0.9,0.6
						c0.3,0.2,0.6,0.4,0.9,0.6c2.2,1.7,3.9,3.7,5,5.6c1.1,1.9,1.8,3.7,2.2,5.3c0.1,0.4,0.2,0.7,0.2,1.1c0.1,0.3,0.1,0.7,0.1,1
						c0,0.3,0.1,0.6,0.1,0.8c0,0.3,0,0.5,0,0.7c0,0.4,0,0.7,0,0.9C145.5,186.7,145.5,186.8,145.5,186.8z"/>
				</g>
			</g>
			<g>
				<g>
					<path fill="#263238" d="M138.2,197.3c0,0,0.2-0.2,0.5-0.7c0.3-0.4,0.8-1.1,1.3-1.9c1-1.6,2-4.1,2.3-7c0.3-2.9-0.2-5.5-0.8-7.3
						c-0.3-0.9-0.6-1.6-0.8-2.1c-0.2-0.5-0.4-0.7-0.3-0.8c0,0,0.1,0.1,0.1,0.2c0.1,0.1,0.2,0.3,0.3,0.5c0.3,0.5,0.6,1.2,0.9,2.1
						c0.7,1.8,1.2,4.5,0.9,7.4c-0.3,2.9-1.4,5.4-2.4,7.1c-0.5,0.8-1,1.4-1.3,1.8c-0.2,0.2-0.3,0.4-0.4,0.5
						C138.3,197.2,138.2,197.3,138.2,197.3z"/>
				</g>
			</g>
			<g>
				<g>
					
						<ellipse transform="matrix(0.8682 -0.4961 0.4961 0.8682 -80.864 94.0995)" fill="#263238" cx="136.7" cy="199.3" rx="0.5" ry="0.1"/>
				</g>
			</g>
			<g>
				<g>
					<path fill="#FFFFFF" d="M111.3,195.2c0,0,0-0.1-0.1-0.2c-0.1-0.2-0.2-0.4-0.3-0.7c-0.2-0.6-0.5-1.5-0.8-2.7
						c-0.5-2.3-0.7-5.6,0.2-9.1c0.9-3.5,2.8-6.3,4.4-8c0.8-0.9,1.5-1.5,2-1.9c0.3-0.2,0.5-0.4,0.6-0.5c0.1-0.1,0.2-0.1,0.2-0.1
						c0,0-0.3,0.2-0.8,0.7c-0.5,0.4-1.2,1.1-2,2c-1.5,1.7-3.4,4.5-4.3,8c-0.9,3.5-0.8,6.8-0.3,9c0.2,1.1,0.5,2.1,0.7,2.7
						C111.2,194.9,111.4,195.2,111.3,195.2z"/>
				</g>
			</g>
			<g>
				<g>
					
						<ellipse transform="matrix(0.9965 -8.305254e-002 8.305254e-002 0.9965 -13.7655 10.7052)" fill="#FFFFFF" cx="121.8" cy="170.8" rx="1.2" ry="0.1"/>
				</g>
			</g>
		</g>
		<circle opacity="0.33" fill="#FFFFFF" cx="126" cy="186.9" r="18.6"/>
	</g>
	<g>
		<g>
			<path fill="#C1C1C1" d="M140.8,83.6l8.1-22.5c-2-2.9-3-6.1-3-9.4c0-12,13.8-21.8,30.8-21.8s30.8,9.8,30.8,21.8
				s-13.8,21.8-30.8,21.8c-3.4,0-12.5-1-16.2-1.8L140.8,83.6z M176.7,33c-15.3,0-27.8,8.4-27.8,18.8c0,2.9,1,5.7,2.9,8.3l0.5,0.6
				l-5.8,16l13.6-8.2l0.6,0.1c3,0.7,12.7,1.9,16.1,1.9c15.3,0,27.8-8.4,27.8-18.8S192.1,33,176.7,33z"/>
		</g>
		<g>
			<path fill="#ED0000" d="M166.7,47.3c0-1,0.3-2.1,1-3.1c0.7-1.1,1.6-1.9,2.9-2.6c1.3-0.7,2.7-1,4.4-1c1.6,0,3,0.3,4.2,0.9
				c1.2,0.6,2.1,1.4,2.8,2.4c0.7,1,1,2.1,1,3.2c0,0.9-0.2,1.7-0.6,2.4c-0.4,0.7-0.8,1.3-1.3,1.8c-0.5,0.5-1.4,1.3-2.8,2.5
				c-0.4,0.3-0.7,0.6-0.9,0.9c-0.2,0.3-0.4,0.5-0.5,0.7c-0.1,0.2-0.2,0.4-0.3,0.6c-0.1,0.2-0.1,0.6-0.3,1.1
				c-0.2,1.1-0.8,1.7-1.9,1.7c-0.6,0-1-0.2-1.4-0.6c-0.4-0.4-0.6-0.9-0.6-1.6c0-0.9,0.1-1.7,0.4-2.4s0.7-1.2,1.1-1.8
				c0.5-0.5,1.1-1.1,1.9-1.8c0.7-0.6,1.2-1.1,1.5-1.4s0.6-0.7,0.8-1c0.2-0.4,0.3-0.8,0.3-1.2c0-0.9-0.3-1.6-1-2.2
				c-0.6-0.6-1.5-0.9-2.5-0.9c-1.2,0-2.1,0.3-2.6,0.9c-0.6,0.6-1,1.5-1.4,2.7c-0.4,1.2-1.1,1.8-2.1,1.8c-0.6,0-1.1-0.2-1.5-0.6
				C166.9,48.3,166.7,47.8,166.7,47.3z M174.7,65.1c-0.7,0-1.2-0.2-1.7-0.6c-0.5-0.4-0.7-1-0.7-1.8c0-0.7,0.2-1.3,0.7-1.7
				s1.1-0.7,1.8-0.7c0.7,0,1.3,0.2,1.7,0.7c0.5,0.5,0.7,1,0.7,1.7c0,0.8-0.2,1.4-0.7,1.8C175.9,64.9,175.3,65.1,174.7,65.1z"/>
		</g>
	</g>
	<path fill="#DDDDDD" d="M230.4,239.8h4.4C233.3,240,231.8,240,230.4,239.8z"/>
	<polygon fill="#DDDDDD" points="252,106.8 254.8,109 252,111.2 249.3,109 	"/>
	<g>
		<path fill="#C1C1C1" d="M285.4,246.8h-104c-2.2,0-4-1.8-4-4V88.4c0-2.2,1.8-4,4-4h104c2.2,0,4,1.8,4,4v154.4
			C289.4,245,287.6,246.8,285.4,246.8z"/>
		<path fill="#E8E8E8" d="M283.5,246.8h-104c-2.2,0-4-1.8-4-4V88.4c0-2.2,1.8-4,4-4h104c2.2,0,4,1.8,4,4v154.4
			C287.5,245,285.7,246.8,283.5,246.8z"/>
		<rect x="185" y="91.4" fill="#C0C4DD" width="96.9" height="148.3"/>
		<rect x="183.1" y="91.4" fill="#FFFFFF" width="96.9" height="148.3"/>
		<path fill="#C1C1C1" d="M255,94.8h-47v-9.2c0-2.8,2.2-5,5-5h37c2.8,0,5,2.2,5,5V94.8z"/>
		<path fill="#C1C1C1" d="M231.5,69.6c-6,0-11,4.9-11,11c0,6,4.9,11,11,11c6,0,11-4.9,11-11C242.4,74.5,237.5,69.6,231.5,69.6z
			 M231.5,86c-3,0-5.5-2.5-5.5-5.5c0-3,2.5-5.5,5.5-5.5c3,0,5.5,2.5,5.5,5.5C237,83.6,234.5,86,231.5,86z"/>
		<path fill="none" stroke="#D4D6ED" stroke-miterlimit="10" d="M264,133.2h-7.8c-1.1,0-2-0.9-2-2v-7.8c0-1.1,0.9-2,2-2h7.8
			c1.1,0,2,0.9,2,2v7.8C266,132.3,265.1,133.2,264,133.2z"/>
		<path fill="none" stroke="#D4D6ED" stroke-miterlimit="10" d="M264,156h-7.8c-1.1,0-2-0.9-2-2v-7.8c0-1.1,0.9-2,2-2h7.8
			c1.1,0,2,0.9,2,2v7.8C266,155.1,265.1,156,264,156z"/>
		<path fill="none" stroke="#D4D6ED" stroke-miterlimit="10" d="M264,177.8h-7.8c-1.1,0-2-0.9-2-2v-7.8c0-1.1,0.9-2,2-2h7.8
			c1.1,0,2,0.9,2,2v7.8C266,176.9,265.1,177.8,264,177.8z"/>
		<path fill="none" stroke="#D4D6ED" stroke-miterlimit="10" d="M264,200h-7.8c-1.1,0-2-0.9-2-2v-7.8c0-1.1,0.9-2,2-2h7.8
			c1.1,0,2,0.9,2,2v7.8C266,199.1,265.1,200,264,200z"/>
		<g>
			<path fill="#C0C4DD" d="M244.9,122.8h-48c-0.5,0-0.8-0.4-0.8-0.8v-0.3c0-0.5,0.4-0.8,0.8-0.8h48c0.5,0,0.8,0.4,0.8,0.8v0.3
				C245.8,122.4,245.4,122.8,244.9,122.8z"/>
			<path fill="#C0C4DD" d="M244.9,127.8h-48c-0.5,0-0.8-0.4-0.8-0.8v-0.3c0-0.5,0.4-0.8,0.8-0.8h48c0.5,0,0.8,0.4,0.8,0.8v0.3
				C245.8,127.4,245.4,127.8,244.9,127.8z"/>
			<path fill="#C0C4DD" d="M233.2,132.8h-36.3c-0.5,0-0.8-0.4-0.8-0.8v-0.3c0-0.5,0.4-0.8,0.8-0.8h36.3c0.5,0,0.8,0.4,0.8,0.8v0.3
				C234,132.5,233.7,132.8,233.2,132.8z"/>
			<path fill="#C0C4DD" d="M244.9,145.7h-48c-0.5,0-0.8-0.4-0.8-0.8v-0.3c0-0.5,0.4-0.8,0.8-0.8h48c0.5,0,0.8,0.4,0.8,0.8v0.3
				C245.8,145.3,245.4,145.7,244.9,145.7z"/>
			<path fill="#C0C4DD" d="M244.9,150.7h-48c-0.5,0-0.8-0.4-0.8-0.8v-0.3c0-0.5,0.4-0.8,0.8-0.8h48c0.5,0,0.8,0.4,0.8,0.8v0.3
				C245.8,150.3,245.4,150.7,244.9,150.7z"/>
			<path fill="#C0C4DD" d="M233.2,155.7h-36.3c-0.5,0-0.8-0.4-0.8-0.8v-0.3c0-0.5,0.4-0.8,0.8-0.8h36.3c0.5,0,0.8,0.4,0.8,0.8v0.3
				C234,155.3,233.7,155.7,233.2,155.7z"/>
			<path fill="#C0C4DD" d="M244.9,167.5h-48c-0.5,0-0.8-0.4-0.8-0.8v-0.3c0-0.5,0.4-0.8,0.8-0.8h48c0.5,0,0.8,0.4,0.8,0.8v0.3
				C245.8,167.1,245.4,167.5,244.9,167.5z"/>
			<path fill="#C0C4DD" d="M244.9,172.5h-48c-0.5,0-0.8-0.4-0.8-0.8v-0.3c0-0.5,0.4-0.8,0.8-0.8h48c0.5,0,0.8,0.4,0.8,0.8v0.3
				C245.8,172.1,245.4,172.5,244.9,172.5z"/>
			<path fill="#C0C4DD" d="M233.2,177.5h-36.3c-0.5,0-0.8-0.4-0.8-0.8v-0.3c0-0.5,0.4-0.8,0.8-0.8h36.3c0.5,0,0.8,0.4,0.8,0.8v0.3
				C234,177.1,233.7,177.5,233.2,177.5z"/>
			<path fill="#C0C4DD" d="M244.9,189.6h-48c-0.5,0-0.8-0.4-0.8-0.8v-0.3c0-0.5,0.4-0.8,0.8-0.8h48c0.5,0,0.8,0.4,0.8,0.8v0.3
				C245.8,189.2,245.4,189.6,244.9,189.6z"/>
			<path fill="#C0C4DD" d="M244.9,194.6h-48c-0.5,0-0.8-0.4-0.8-0.8v-0.3c0-0.5,0.4-0.8,0.8-0.8h48c0.5,0,0.8,0.4,0.8,0.8v0.3
				C245.8,194.3,245.4,194.6,244.9,194.6z"/>
			<path fill="#C0C4DD" d="M233.2,199.6h-36.3c-0.5,0-0.8-0.4-0.8-0.8v-0.3c0-0.5,0.4-0.8,0.8-0.8h36.3c0.5,0,0.8,0.4,0.8,0.8v0.3
				C234,199.3,233.7,199.6,233.2,199.6z"/>
		</g>
		<g>
			<g>
				<path fill="#B2B6CC" d="M319.4,224.2l-0.1,0.2c0.1-1.4,0-2.8-0.2-4.2l0.1,0.2l6.3-4.4l-3.3-6.8l-7.4,2.1l0.1,0.2
					c-0.9-1-2-2-3.1-2.8l0.2,0.1l1.3-7.6l-7.2-2.5l-3.8,6.7l0.2,0.1c-1.4-0.1-2.8,0-4.2,0.2l0.2-0.1l-4.4-6.3l-6.8,3.3l2.1,7.4
					l0.2-0.1c-1,0.9-2,1.9-2.8,3.1l0.1-0.2l-7.6-1.3l-2.5,7.2l6.7,3.8l0.1-0.2c-0.1,1.4,0,2.8,0.2,4.2l-0.1-0.2l-6.3,4.4l3.3,6.8
					l7.4-2.1l-0.1-0.2c0.9,1,2,2,3.1,2.8l-0.2-0.1l-1.3,7.6l7.1,2.5l3.8-6.7l-0.2-0.1c1.4,0.1,2.8,0,4.2-0.2l-0.2,0.1l4.5,6.3
					l6.8-3.3l-2.1-7.4l-0.2,0.1c1-0.9,2-1.9,2.8-3.1l-0.1,0.2l7.6,1.3l2.5-7.2L319.4,224.2z M293.7,214.6c1.6-1.6,3.8-2.7,6.1-2.9
					c11.6-1.2,17.9,12,9.7,20.3c-1.6,1.6-3.8,2.7-6.1,2.9C291.7,236.1,285.4,222.9,293.7,214.6z"/>
				<path fill="#B2B6CC" d="M298.7,207.9c-2.7,0.3-5.3,1.6-7.3,3.5c-11.6,11.1-2.9,29.3,13,27.3c2.7-0.3,5.3-1.6,7.3-3.5
					C323.3,224.1,314.6,205.9,298.7,207.9z M309.4,232c-1.6,1.6-3.8,2.7-6.1,2.9c-11.6,1.2-17.9-12-9.7-20.3
					c1.6-1.6,3.8-2.7,6.1-2.9C311.4,210.5,317.7,223.7,309.4,232z"/>
			</g>
		</g>
		<g>
			<g>
				<path fill="#B2B6CC" d="M302.9,167.4l-4.6-2.2l-3,4.2l0.1,0.1c-0.9-0.2-1.9-0.2-2.8-0.2l0.2-0.1l-2.5-4.5l-4.8,1.7l0.8,5.1
					l0.2-0.1c-0.8,0.5-1.5,1.2-2.1,1.9l0.1-0.1l-5-1.4l-2.2,4.6l4.2,3l0.1-0.1c-0.2,0.9-0.2,1.9-0.2,2.8l-0.1-0.2l-4.5,2.5l1.7,4.8
					l5.1-0.8l-0.1-0.2c0.5,0.8,1.2,1.5,1.9,2.1l-0.1-0.1l-1.4,5l4.6,2.2l3-4.2l-0.1-0.1c0.9,0.2,1.9,0.2,2.8,0.2l-0.2,0.1l2.5,4.5
					l4.8-1.7l-0.8-5.1l-0.2,0.1c0.8-0.5,1.5-1.2,2.1-1.9l-0.1,0.1l5,1.4l2.2-4.6l-4.2-3l-0.1,0.1c0.2-0.9,0.2-1.9,0.2-2.8l0.1,0.2
					l4.5-2.5l-1.7-4.8l-5.1,0.8l0.1,0.2c-0.5-0.8-1.2-1.5-1.9-2.1l0.1,0.1L302.9,167.4z"/>
				<path fill="#B2B6CC" d="M293,170.8c10.3,0.1,14.6,12.1,6.9,18.7c-1.7,1.4-3.8,2.2-6,2.2c-10.3-0.1-14.6-12.1-6.9-18.7
					C288.7,171.6,290.8,170.8,293,170.8z"/>
				<path fill="#C0C4DD" d="M293,173.4c7.9,0,11.1,9.3,5,14.3c-1.2,0.9-2.7,1.4-4.2,1.4c-7.9,0-11.1-9.3-5-14.3
					C290.1,173.9,291.5,173.4,293,173.4z"/>
				<path fill="#FFFFFF" d="M292.9,175.8c5.8-0.2,8.2,6.7,3.5,10.1c-0.7,0.5-1.5,0.8-2.4,0.8c-5.8,0.2-8.2-6.7-3.5-10.1
					C291.2,176.1,292,175.8,292.9,175.8z"/>
			</g>
		</g>
	</g>
</g>
</svg>
