<?xml version="1.0" encoding="utf-8"?>
<!-- Generator: Adobe Illustrator 18.1.1, SVG Export Plug-In . SVG Version: 6.00 Build 0)  -->
<svg version="1.1" xmlns="http://www.w3.org/2000/svg" xmlns:xlink="http://www.w3.org/1999/xlink" x="0px" y="0px"
	 viewBox="0 0 449 347" enable-background="new 0 0 449 347" xml:space="preserve">
<g id="Background_Complete">
</g>
<g id="Background_Simple" display="none">
</g>
<g id="Floor">
	<g>
		<g>
			<path fill="#263238" d="M340.3,248.6c0,0.1-56.6,0.2-126.5,0.2c-69.9,0-126.5-0.1-126.5-0.2s56.6-0.2,126.5-0.2
				C283.7,248.4,340.3,248.5,340.3,248.6z"/>
		</g>
	</g>
</g>
<g id="Window">
</g>
<g id="Rocket">
</g>
<g id="Search_bar">
</g>
<g id="Text">
</g>
<g id="Document">
</g>
<g id="Folders">
</g>
<g id="Plant">
</g>
<g id="Character">
	<g>
		<circle fill="#FFFFFF" cx="161.8" cy="182.6" r="20.3"/>
		<g>
			<g>
				<g>
					<g>
						<g>
							<g>
								<g>
									<g>
										<g>
											<g>
												<g>
													<g>
														<g>
															<g>
																<path fill="#455A64" d="M158.9,233.6l-0.3,14.6l19.2,0.5c-0.1-1.7-9.9-5.4-9.9-5.4l0.6-9.3L158.9,233.6z"/>
															</g>
														</g>
													</g>
												</g>
											</g>
										</g>
									</g>
								</g>
							</g>
						</g>
					</g>
				</g>
				<g opacity="0.6">
					<g>
						<g>
							<g>
								<g>
									<g>
										<g>
											<g>
												<g>
													<g>
														<g>
															<g>
																<g>
																	<path fill="#FFFFFF" d="M162,242.3c-0.4,0.1-0.6,0.5-0.6,0.8s0.5,0.6,0.9,0.5c0.4-0.1,0.7-0.5,0.6-0.9
																		C162.7,242.4,162.2,242.2,162,242.3"/>
																</g>
															</g>
														</g>
													</g>
												</g>
											</g>
										</g>
									</g>
								</g>
							</g>
						</g>
					</g>
				</g>
				<g opacity="0.6">
					<g>
						<g>
							<g>
								<g>
									<g>
										<g>
											<g>
												<g>
													<g>
														<g>
															<g>
																<path fill="#FFFFFF" d="M158.6,248.2l0.1-1.5l18.3,1c0,0,0.8,0.4,0.7,0.9L158.6,248.2z"/>
															</g>
														</g>
													</g>
												</g>
											</g>
										</g>
									</g>
								</g>
							</g>
						</g>
					</g>
				</g>
				<g>
					<g>
						<g>
							<g>
								<g>
									<g>
										<g>
											<g>
												<g>
													<g>
														<g>
															<g>
																<g>
																	<path fill="#263238" d="M168.2,243.1c0,0.1-0.5,0.1-0.9,0.4c-0.5,0.3-0.7,0.6-0.8,0.6c-0.1,0,0.1-0.5,0.6-0.9
																		C167.6,242.9,168.2,243.1,168.2,243.1z"/>
																</g>
															</g>
														</g>
													</g>
												</g>
											</g>
										</g>
									</g>
								</g>
							</g>
						</g>
					</g>
				</g>
				<g>
					<g>
						<g>
							<g>
								<g>
									<g>
										<g>
											<g>
												<g>
													<g>
														<g>
															<g>
																<g>
																	<path fill="#263238" d="M170.2,244c0,0.1-0.4,0.2-0.7,0.6c-0.3,0.4-0.4,0.8-0.5,0.8c-0.1,0-0.1-0.5,0.3-1
																		C169.6,243.9,170.2,243.9,170.2,244z"/>
																</g>
															</g>
														</g>
													</g>
												</g>
											</g>
										</g>
									</g>
								</g>
							</g>
						</g>
					</g>
				</g>
				<g>
					<g>
						<g>
							<g>
								<g>
									<g>
										<g>
											<g>
												<g>
													<g>
														<g>
															<g>
																<g>
																	<path fill="#263238" d="M171.2,246.3c-0.1,0-0.2-0.4,0-0.9c0.2-0.5,0.7-0.7,0.7-0.6c0.1,0.1-0.2,0.3-0.4,0.7
																		C171.4,245.9,171.3,246.3,171.2,246.3z"/>
																</g>
															</g>
														</g>
													</g>
												</g>
											</g>
										</g>
									</g>
								</g>
							</g>
						</g>
					</g>
				</g>
				<g>
					<g>
						<g>
							<g>
								<g>
									<g>
										<g>
											<g>
												<g>
													<g>
														<g>
															<g>
																<g>
																	<path fill="#263238" d="M168.1,241c0,0.1-0.5-0.1-1,0c-0.5,0-0.9,0.2-1,0.1c-0.1-0.1,0.4-0.4,1-0.4
																		C167.7,240.6,168.1,240.9,168.1,241z"/>
																</g>
															</g>
														</g>
													</g>
												</g>
											</g>
										</g>
									</g>
								</g>
							</g>
						</g>
					</g>
				</g>
				<g>
					<g>
						<g>
							<g>
								<g>
									<g>
										<g>
											<g>
												<g>
													<g>
														<g>
															<g>
																<g>
																	<path fill="#263238" d="M167.7,238.8c0,0-0.4,0.1-1,0c-0.3-0.1-0.6-0.2-1-0.3c-0.2-0.1-0.4-0.2-0.5-0.3
																		c-0.1-0.1-0.2-0.1-0.3-0.2c-0.1-0.1-0.2-0.3,0-0.5c0.1-0.1,0.3-0.2,0.4-0.2c0.1,0,0.3,0,0.4,0.1
																		c0.2,0.1,0.4,0.1,0.6,0.2c0.4,0.2,0.7,0.4,0.9,0.6C167.5,238.6,167.7,238.9,167.7,238.8c-0.1,0.1-0.3-0.2-0.7-0.5
																		c-0.2-0.2-0.5-0.3-0.8-0.5c-0.2-0.1-0.4-0.1-0.5-0.2c-0.2-0.1-0.4-0.1-0.4,0c0,0,0,0,0,0.1c0,0.1,0.1,0.1,0.2,0.2
																		c0.2,0.1,0.3,0.2,0.5,0.3c0.3,0.2,0.6,0.3,0.9,0.4C167.3,238.8,167.7,238.8,167.7,238.8z"/>
																</g>
															</g>
														</g>
													</g>
												</g>
											</g>
										</g>
									</g>
								</g>
							</g>
						</g>
					</g>
				</g>
				<g>
					<g>
						<g>
							<g>
								<g>
									<g>
										<g>
											<g>
												<g>
													<g>
														<g>
															<g>
																<g>
																	<path fill="#263238" d="M167.5,239c0,0-0.2-0.3-0.2-0.9c0-0.3,0-0.6,0.2-1c0.1-0.2,0.1-0.4,0.3-0.5
																		c0.1-0.2,0.3-0.4,0.6-0.4c0.2,0,0.3,0.1,0.4,0.3c0.1,0.1,0.1,0.2,0.1,0.3c0,0.2,0,0.4,0,0.6
																		c-0.1,0.4-0.2,0.7-0.4,0.9c-0.4,0.5-0.8,0.6-0.8,0.5c0,0,0.3-0.2,0.6-0.7c0.1-0.2,0.3-0.5,0.3-0.8
																		c0-0.2,0-0.3,0-0.5c0-0.2-0.1-0.4-0.2-0.3c-0.1,0-0.3,0.1-0.3,0.3c-0.1,0.2-0.2,0.3-0.3,0.5
																		c-0.1,0.3-0.2,0.6-0.2,0.9C167.5,238.6,167.6,238.9,167.5,239z"/>
																</g>
															</g>
														</g>
													</g>
												</g>
											</g>
										</g>
									</g>
								</g>
							</g>
						</g>
					</g>
				</g>
			</g>
		</g>
		<g>
			<g>
				<g>
					<g>
						<g>
							<g>
								<g>
									<g>
										<g>
											<g>
												<g>
													<g>
														<g>
															<g>
																<path fill="#455A64" d="M144.4,234.9l-1.8,14.4l-19-2.4c0.3-1.7,10.6-3.9,10.6-3.9l0.8-9.3L144.4,234.9z"/>
															</g>
														</g>
													</g>
												</g>
											</g>
										</g>
									</g>
								</g>
							</g>
						</g>
					</g>
				</g>
				<g opacity="0.6">
					<g>
						<g>
							<g>
								<g>
									<g>
										<g>
											<g>
												<g>
													<g>
														<g>
															<g>
																<g>
																	<path fill="#FFFFFF" d="M140.1,243c0.4,0.1,0.6,0.6,0.4,0.9c-0.1,0.3-0.6,0.5-0.9,0.4c-0.4-0.1-0.6-0.6-0.5-1
																		C139.3,243,139.8,242.8,140.1,243"/>
																</g>
															</g>
														</g>
													</g>
												</g>
											</g>
										</g>
									</g>
								</g>
							</g>
						</g>
					</g>
				</g>
				<g opacity="0.6">
					<g>
						<g>
							<g>
								<g>
									<g>
										<g>
											<g>
												<g>
													<g>
														<g>
															<g>
																<path fill="#FFFFFF" d="M142.5,249.3l0.1-1.5l-18.3-1.7c0,0-0.9,0.2-0.9,0.8L142.5,249.3z"/>
															</g>
														</g>
													</g>
												</g>
											</g>
										</g>
									</g>
								</g>
							</g>
						</g>
					</g>
				</g>
				<g>
					<g>
						<g>
							<g>
								<g>
									<g>
										<g>
											<g>
												<g>
													<g>
														<g>
															<g>
																<g>
																	<path fill="#263238" d="M133.8,242.9c0,0.1,0.5,0.2,0.9,0.5c0.4,0.3,0.6,0.7,0.7,0.7c0.1,0,0-0.5-0.5-1
																		C134.4,242.8,133.8,242.8,133.8,242.9z"/>
																</g>
															</g>
														</g>
													</g>
												</g>
											</g>
										</g>
									</g>
								</g>
							</g>
						</g>
					</g>
				</g>
				<g>
					<g>
						<g>
							<g>
								<g>
									<g>
										<g>
											<g>
												<g>
													<g>
														<g>
															<g>
																<g>
																	<path fill="#263238" d="M131.7,243.4c0,0.1,0.4,0.3,0.6,0.7c0.3,0.4,0.3,0.8,0.4,0.8c0.1,0,0.2-0.5-0.1-1
																		C132.3,243.4,131.7,243.3,131.7,243.4z"/>
																</g>
															</g>
														</g>
													</g>
												</g>
											</g>
										</g>
									</g>
								</g>
							</g>
						</g>
					</g>
				</g>
				<g>
					<g>
						<g>
							<g>
								<g>
									<g>
										<g>
											<g>
												<g>
													<g>
														<g>
															<g>
																<g>
																	<path fill="#263238" d="M130.3,245.5c0.1,0,0.3-0.4,0.1-0.9c-0.2-0.5-0.6-0.8-0.6-0.7c-0.1,0.1,0.2,0.4,0.3,0.8
																		C130.2,245.1,130.2,245.5,130.3,245.5z"/>
																</g>
															</g>
														</g>
													</g>
												</g>
											</g>
										</g>
									</g>
								</g>
							</g>
						</g>
					</g>
				</g>
				<g>
					<g>
						<g>
							<g>
								<g>
									<g>
										<g>
											<g>
												<g>
													<g>
														<g>
															<g>
																<g>
																	<path fill="#263238" d="M134.2,240.8c0,0.1,0.5,0,1,0.1c0.5,0.1,0.9,0.3,1,0.2c0.1-0.1-0.3-0.4-0.9-0.5
																		C134.7,240.5,134.2,240.7,134.2,240.8z"/>
																</g>
															</g>
														</g>
													</g>
												</g>
											</g>
										</g>
									</g>
								</g>
							</g>
						</g>
					</g>
				</g>
				<g>
					<g>
						<g>
							<g>
								<g>
									<g>
										<g>
											<g>
												<g>
													<g>
														<g>
															<g>
																<g>
																	<path fill="#263238" d="M134.9,238.7c0,0,0.4,0.1,1,0.1c0.3,0,0.7-0.1,1-0.2c0.2-0.1,0.4-0.1,0.6-0.2
																		c0.1,0,0.2-0.1,0.3-0.2c0.1-0.1,0.2-0.3,0.1-0.5c-0.1-0.2-0.2-0.2-0.4-0.3c-0.1,0-0.3,0-0.4,0
																		c-0.2,0-0.4,0.1-0.6,0.1c-0.4,0.1-0.7,0.3-0.9,0.4C135.1,238.4,134.9,238.8,134.9,238.7c0.1,0.1,0.3-0.1,0.8-0.4
																		c0.2-0.1,0.5-0.3,0.9-0.3c0.2,0,0.4-0.1,0.6-0.1c0.2,0,0.4,0,0.4,0.1c0,0,0,0,0,0.1c0,0-0.1,0.1-0.2,0.1
																		c-0.2,0.1-0.4,0.2-0.5,0.2c-0.4,0.1-0.7,0.2-1,0.2C135.3,238.7,134.9,238.7,134.9,238.7z"/>
																</g>
															</g>
														</g>
													</g>
												</g>
											</g>
										</g>
									</g>
								</g>
							</g>
						</g>
					</g>
				</g>
				<g>
					<g>
						<g>
							<g>
								<g>
									<g>
										<g>
											<g>
												<g>
													<g>
														<g>
															<g>
																<g>
																	<path fill="#263238" d="M135,238.8c0,0,0.3-0.3,0.4-0.8c0.1-0.3,0.1-0.6,0-1c0-0.2-0.1-0.4-0.2-0.6
																		c-0.1-0.2-0.2-0.4-0.6-0.5c-0.2,0-0.4,0.1-0.4,0.2c-0.1,0.1-0.1,0.2-0.1,0.3c-0.1,0.2-0.1,0.4-0.1,0.6
																		c0,0.4,0.1,0.7,0.3,1c0.3,0.5,0.7,0.7,0.7,0.6c0,0-0.3-0.2-0.5-0.7c-0.1-0.2-0.2-0.5-0.2-0.9c0-0.2,0-0.3,0.1-0.5
																		c0.1-0.2,0.1-0.3,0.2-0.3c0.1,0,0.2,0.2,0.3,0.3c0.1,0.2,0.1,0.3,0.2,0.5c0.1,0.3,0.1,0.7,0.1,0.9
																		C135.1,238.5,135,238.8,135,238.8z"/>
																</g>
															</g>
														</g>
													</g>
												</g>
											</g>
										</g>
									</g>
								</g>
							</g>
						</g>
					</g>
				</g>
			</g>
		</g>
		<g>
			<g>
				<g>
					<g>
						<g>
							<path fill="#263238" d="M169.1,242"/>
						</g>
					</g>
				</g>
			</g>
			<g>
				<g>
					<g>
						<g>
							<path fill="#27343C" d="M173.8,156.4l-29.8,1c0,0-7,47-6.8,50.2l-4.3,34.1l12.6,0.4c0,0,2-11,3.4-18.6
								c0.9-5,2.6-12.4,3.1-16.6c0.5-4.2,7.8-33.5,7.8-33.5s-0.5,34-0.5,35.4c0,1.4-1.5,33.3-1.5,33.3h12.5
								c0.6-5.8,2.2-28.8,2.5-33.4c0.6-8.4,2.5-32.1,2.8-38.2C175.7,164.4,173.8,156.4,173.8,156.4z"/>
						</g>
					</g>
				</g>
			</g>
		</g>
		<g>
			<g>
				<g>
					<g>
						<ellipse fill="#455A64" cx="171.8" cy="155.6" rx="0.1" ry="1.1"/>
					</g>
				</g>
			</g>
		</g>
		<g>
			<g>
				<g>
					<g>
						<path fill="#455A64" d="M173,157.2c-0.1,0-0.2-0.6-0.1-1.4c0.1-0.8,0.3-1.4,0.3-1.3c0.1,0-0.1,0.6-0.1,1.4
							C173.1,156.6,173.1,157.2,173,157.2z"/>
					</g>
				</g>
			</g>
		</g>
		<g>
			<g>
				<g>
					<g>
						<path fill="#455A64" d="M161.9,155c0,0-0.3,0-0.6,0.4c-0.1,0.2-0.3,0.4-0.2,0.7c0,0.3,0.3,0.5,0.6,0.6
							c0.3,0.1,0.7-0.1,0.8-0.3c0.1-0.2,0.1-0.5,0.1-0.7c-0.1-0.4-0.5-0.5-0.5-0.6c0,0,0.1,0,0.2,0.1c0.1,0.1,0.3,0.2,0.4,0.5
							c0.1,0.2,0.1,0.6,0,0.9c-0.2,0.3-0.6,0.5-1,0.4c-0.4-0.1-0.7-0.4-0.8-0.7c-0.1-0.4,0.1-0.7,0.3-0.8c0.2-0.2,0.4-0.3,0.5-0.3
							C161.8,154.9,161.9,154.9,161.9,155z"/>
					</g>
				</g>
			</g>
		</g>
		<g>
			<g>
				<g>
					<g>
						<g>
							<g>
								<g>
									<g>
										<g>
											<path fill="#263238" d="M146.5,85.8c0.1-1.7,1.2-2.8,2.7-3.7c1.5-0.9,3.4-1,5-0.2c1.1,0.5,2,1.4,3.1,1.5
												c1.9,0.2,3.7-1.5,5.6-1.1c1.1,0.3,1.9,1.4,1.9,2.5c0,1.1-1,2.2-2.1,2.3c1.2,0.2,1.9,1.8,1.5,2.9c-0.5,1.2-1.8,1.8-3,1.9
												c-1.3,0-2.5-0.5-3.6-1.1c-1.1-0.6-2.1-1.4-3.2-1.9c-1.1-0.5-2.4-0.9-3.7-0.5c-1.6,0.4-2.8,2-3.2,3.6
												c-0.4,1.6-0.2,3.4,0,5.1c0.3,1.7,0.6,3.4,0.4,5.1c0,0.2-0.1,0.4-0.2,0.5c-0.3,0.1-0.5-0.1-0.7-0.3
												c-2.1-2.5-3.7-5.4-4.7-8.5c-0.6-1.8-0.9-3.6-0.2-5.3C142.7,86.8,145.1,85.1,146.5,85.8"/>
										</g>
									</g>
								</g>
							</g>
						</g>
					</g>
				</g>
				<g>
					<g>
						<g>
							<g>
								<g>
									<g>
										<g>
											<g>
												<g>
													<g>
														<g>
															<g>
																<g>
																	<g>
																		<g>
																			<g>
																				<g>
																					<g>
																						<g>
																							<g>
																								<path fill="#FFBE9D" d="M144.9,94.2l2.8,17.2c0.5,3.2,2.6,6.3,7.6,5.2l0,0c4.3-1.2,4-4.3,3.4-8.1
																									c0,0,0,0.1,0,0c0,0,4.7-1.2,4.3-6c-0.2-2.3-1-7.1-1.8-11.4c-0.8-4.6-5.1-7.8-9.7-7.3l-0.5,0
																									C146.1,84.6,144,89.3,144.9,94.2z"/>
																							</g>
																						</g>
																					</g>
																				</g>
																			</g>
																		</g>
																	</g>
																</g>
															</g>
														</g>
													</g>
												</g>
											</g>
										</g>
										<g>
											<g>
												<g>
													<g>
														<g>
															<g>
																<g>
																	<g>
																		<g>
																			<g>
																				<g>
																					<g>
																						<g>
																							<g>
																								<path fill="#EB996E" d="M158.7,108.5c0,0-3,0.5-6.4-1.2c0,0,1.9,3.6,6.6,2.7L158.7,108.5z"/>
																							</g>
																						</g>
																					</g>
																				</g>
																			</g>
																		</g>
																	</g>
																</g>
															</g>
														</g>
													</g>
												</g>
											</g>
										</g>
									</g>
								</g>
							</g>
							<g>
								<g>
									<g>
										<g>
											<g>
												<g>
													<g>
														<g>
															<g>
																<g>
																	<g>
																		<g>
																			<g>
																				<g>
																					<g>
																						<g>
																							<g>
																								<g>
																									<g>
																										<g>
																											<path fill="#263238" d="M160.3,95.3c0,0.4-0.2,0.7-0.6,0.8c-0.4,0.1-0.7-0.2-0.8-0.5
																												c0-0.4,0.2-0.7,0.6-0.8C159.9,94.7,160.3,94.9,160.3,95.3z"/>
																										</g>
																									</g>
																								</g>
																							</g>
																						</g>
																					</g>
																				</g>
																			</g>
																		</g>
																	</g>
																</g>
															</g>
														</g>
													</g>
													<g>
														<g>
															<g>
																<g>
																	<g>
																		<g>
																			<g>
																				<g>
																					<g>
																						<g>
																							<g>
																								<g>
																									<g>
																										<g>
																											<g>
																												<path fill="#263238" d="M160.4,93.6c-0.1,0.1-0.6-0.2-1.4-0.2c-0.7,0.1-1.2,0.5-1.3,0.4
																													c0,0,0-0.2,0.2-0.4c0.2-0.2,0.6-0.4,1.1-0.4c0.5,0,0.9,0.1,1.1,0.2C160.4,93.4,160.5,93.5,160.4,93.6z"
																													/>
																											</g>
																										</g>
																									</g>
																								</g>
																							</g>
																						</g>
																					</g>
																				</g>
																			</g>
																		</g>
																	</g>
																</g>
															</g>
														</g>
													</g>
												</g>
												<g>
													<g>
														<g>
															<g>
																<g>
																	<g>
																		<g>
																			<g>
																				<g>
																					<g>
																						<g>
																							<g>
																								<g>
																									<g>
																										<g>
																											<path fill="#263238" d="M153.6,96.4c0,0.4-0.2,0.7-0.6,0.8c-0.4,0.1-0.7-0.2-0.8-0.5
																												c0-0.4,0.2-0.7,0.6-0.8C153.2,95.8,153.5,96,153.6,96.4z"/>
																										</g>
																									</g>
																								</g>
																							</g>
																						</g>
																					</g>
																				</g>
																			</g>
																		</g>
																	</g>
																</g>
															</g>
														</g>
													</g>
													<g>
														<g>
															<g>
																<g>
																	<g>
																		<g>
																			<g>
																				<g>
																					<g>
																						<g>
																							<g>
																								<g>
																									<g>
																										<g>
																											<g>
																												<path fill="#263238" d="M153.4,94.4c-0.1,0.1-0.6-0.2-1.4-0.2c-0.7,0.1-1.2,0.5-1.3,0.4
																													c0,0,0-0.2,0.2-0.4c0.2-0.2,0.6-0.4,1.1-0.4c0.5,0,0.9,0.1,1.1,0.2C153.3,94.2,153.4,94.4,153.4,94.4z"
																													/>
																											</g>
																										</g>
																									</g>
																								</g>
																							</g>
																						</g>
																					</g>
																				</g>
																			</g>
																		</g>
																	</g>
																</g>
															</g>
														</g>
													</g>
												</g>
												<g>
													<g>
														<g>
															<g>
																<g>
																	<g>
																		<g>
																			<g>
																				<g>
																					<g>
																						<g>
																							<g>
																								<g>
																									<g>
																										<g>
																											<path fill="#263238" d="M156.4,99.6c0,0,0.4-0.2,1.2-0.3c0.2,0,0.4-0.1,0.4-0.2c0-0.1-0.1-0.3-0.2-0.5
																												c-0.2-0.4-0.5-0.9-0.7-1.4c-1-2-1.7-3.6-1.6-3.6c0.1,0,0.9,1.5,1.9,3.5c0.2,0.5,0.5,0.9,0.7,1.4
																												c0.1,0.2,0.2,0.4,0.2,0.7c0,0.1-0.2,0.3-0.3,0.3c-0.1,0-0.2,0.1-0.3,0.1
																												C156.9,99.6,156.4,99.7,156.4,99.6z"/>
																										</g>
																									</g>
																								</g>
																							</g>
																						</g>
																					</g>
																				</g>
																			</g>
																		</g>
																	</g>
																</g>
															</g>
														</g>
													</g>
												</g>
											</g>
										</g>
									</g>
									<g>
										<g>
											<g>
												<g>
													<g>
														<g>
															<g>
																<g>
																	<g>
																		<g>
																			<g>
																				<g>
																					<g>
																						<g>
																							<path fill="#263238" d="M153.1,91.5c-0.1,0.2-0.8,0.2-1.7,0.4c-0.9,0.2-1.5,0.5-1.7,0.3
																								c-0.1-0.1,0-0.3,0.3-0.5c0.3-0.2,0.7-0.5,1.2-0.6c0.5-0.1,1-0.1,1.3,0C153,91.3,153.1,91.4,153.1,91.5z"/>
																						</g>
																					</g>
																				</g>
																			</g>
																		</g>
																	</g>
																</g>
															</g>
														</g>
													</g>
												</g>
											</g>
										</g>
									</g>
									<g>
										<g>
											<g>
												<g>
													<g>
														<g>
															<g>
																<g>
																	<g>
																		<g>
																			<g>
																				<g>
																					<g>
																						<g>
																							<path fill="#263238" d="M160,91.5c-0.1,0.2-0.6,0.1-1.2,0.1c-0.6,0-1.1,0.2-1.3,0.1c-0.1-0.1,0-0.3,0.2-0.4
																								c0.2-0.2,0.6-0.3,1-0.4c0.4,0,0.8,0.1,1,0.2C159.9,91.2,160,91.4,160,91.5z"/>
																						</g>
																					</g>
																				</g>
																			</g>
																		</g>
																	</g>
																</g>
															</g>
														</g>
													</g>
												</g>
											</g>
										</g>
									</g>
								</g>
							</g>
						</g>
					</g>
				</g>
				<g>
					<g>
						<g>
							<g>
								<g>
									<g>
										<g>
											<g>
												<g>
													<g>
														<g>
															<g>
																<g>
																	<g>
																		<g>
																			<path fill="#FFBE9D" d="M145.7,97.7c-0.1,0-3.4-0.6-3,2.6c0.4,3.3,3.6,2.2,3.6,2.1
																				C146.3,102.3,145.7,97.7,145.7,97.7z"/>
																		</g>
																	</g>
																</g>
															</g>
														</g>
													</g>
												</g>
											</g>
										</g>
									</g>
								</g>
							</g>
						</g>
					</g>
					<g>
						<g>
							<g>
								<g>
									<g>
										<g>
											<g>
												<g>
													<g>
														<g>
															<g>
																<g>
																	<g>
																		<g>
																			<g>
																				<path fill="#EB996E" d="M145.2,101.3c0,0-0.1,0-0.1,0.1c-0.1,0.1-0.2,0.1-0.4,0.1c-0.4-0.1-0.7-0.6-0.8-1.2
																					c0-0.3,0-0.6,0.1-0.8c0.1-0.3,0.2-0.4,0.4-0.5c0.2-0.1,0.3,0,0.4,0.1c0.1,0.1,0,0.2,0.1,0.2c0,0,0.1-0.1,0-0.2
																					c0-0.1-0.1-0.1-0.2-0.2c-0.1-0.1-0.2-0.1-0.3,0c-0.2,0.1-0.4,0.3-0.5,0.6c-0.1,0.3-0.1,0.6-0.1,0.9
																					c0.1,0.7,0.5,1.2,1,1.3c0.2,0,0.4-0.1,0.5-0.2C145.2,101.4,145.2,101.3,145.2,101.3z"/>
																			</g>
																		</g>
																	</g>
																</g>
															</g>
														</g>
													</g>
												</g>
											</g>
										</g>
									</g>
								</g>
							</g>
						</g>
					</g>
				</g>
				<g>
					<g>
						<path fill="#263238" d="M160.8,86.6c-0.5-0.9-1.4-1.6-2.2-2.1c-1.9-1.2-4.2-1.8-6.4-1.6c-2.2,0.2-4.4,1.2-5.9,2.9
							c-1.2,1.4-1.8,3.1-2.1,4.9c-0.2,1.8,0,3.6,0.5,5.3c0.2,0.8,0.5,1.5,1.1,2c0.4,0.3,1,0.5,1.3,0.2c0.2-0.2,0.3-0.5,0.3-0.8
							c0.4-2.6,0.7-5.4-0.4-7.7c0.5-0.9,1.2-1.7,2.1-2.3c0.9-0.6,1.9-0.9,2.9-0.7c1.5,0.3,2.6,1.6,3.8,2.5c1.8,1.2,4.2,1.5,6.3,0.8
							L160.8,86.6z"/>
					</g>
				</g>
			</g>
			<g>
				<g>
					<g>
						<g>
							<g>
								<g>
									<path fill="#EB996E" d="M157.1,101.6c-0.1,0.3-0.1,0.6-0.2,0.9c-0.1,0.3-0.4,0.5-0.7,0.6c-0.3,0.1-0.7,0-0.9-0.3
										c-0.2-0.2-0.4-0.6-0.4-0.9c0-0.3,0-0.7,0.3-0.8c0.1,0,0.2,0,0.4,0c0.6,0.1,1.1,0.2,1.7,0.3"/>
								</g>
							</g>
						</g>
					</g>
				</g>
				<g>
					<g>
						<g>
							<g>
								<g>
									<g>
										<path fill="#263238" d="M156.7,103c0,0-0.3,0.2-0.8,0.1c-0.2,0-0.5-0.2-0.7-0.4c-0.2-0.3-0.3-0.6-0.2-1
											c0-0.1,0.1-0.2,0.1-0.3c0-0.1,0-0.1,0.1-0.1c0.1,0,0.2,0,0.3,0c0.1,0,0.2,0,0.3,0c0.4,0.1,0.7,0.1,1,0.2
											c0.5,0.1,0.9,0.1,0.9,0.1c0,0-0.3-0.1-0.9-0.3c-0.3-0.1-0.6-0.1-0.9-0.2c-0.1,0-0.2,0-0.3-0.1c-0.1,0-0.2,0-0.3-0.1
											c-0.1,0-0.2,0-0.2,0.1c-0.1,0-0.1,0.1-0.1,0.2c0,0.1-0.1,0.2-0.1,0.3c-0.1,0.5,0,0.9,0.3,1.2c0.3,0.3,0.6,0.4,0.9,0.5
											c0.3,0,0.5,0,0.7-0.1C156.7,103.1,156.7,103,156.7,103z"/>
									</g>
								</g>
							</g>
						</g>
					</g>
				</g>
			</g>
		</g>
		<g>
			<g>
				<path fill="#FFBE9D" d="M168.9,94.6l0.8-0.2l12.1,11.7l9.8,1.2c0,0-0.1-3-3.8-6.7c-3.3-3.4-11-7.4-13.6-9.4
					c-0.6-0.5-1.1-0.7-1.1-0.7L168.9,94.6z"/>
			</g>
			<g>
				<g>
					<path fill="#FFBE9D" d="M168.9,89l-1.2-0.3l-2.9-1.4l-3.3,1.2c0,0,0.1,1.1,0.9,0.8l-3.5,1.1c0,0,0.3,0.8,0.4,0.9
						c0.2,0.1-2,0.2-2,0.2s0,1.1,2.1,1.1c2.1,0,2.9-0.4,2.9-0.4l1.7,0.4l-0.1,1l-2.3,0l0.1,1.3c0.3,0.2,2.9,0.4,2.9,0.4
						s3.5,0.1,4.5-0.4c0.9-0.5,2.2-1.1,2.2-1.1l1.8-3.5L168.9,89z"/>
				</g>
				<g>
					<g>
						<path fill="#EB996E" d="M165.8,89.6c0,0-0.2-0.1-0.5-0.2c-0.3-0.1-0.7-0.3-1.2-0.6l0.2,0c0,0-0.1,0.1-0.1,0.1
							c-0.5,0.3-1,0.5-1.4,0.5c-0.4,0-0.6,0-0.6,0c0-0.1,0.9-0.1,1.8-0.7c0,0,0.1-0.1,0.1-0.1l0.1,0l0.1,0.1
							c0.4,0.3,0.8,0.5,1.1,0.7C165.7,89.4,165.8,89.5,165.8,89.6z"/>
					</g>
				</g>
				<g>
					<g>
						<path fill="#EB996E" d="M164.7,91.3c0,0-0.2,0.1-0.6-0.1c-0.3-0.1-0.7-0.5-1.2-0.7l0.1,0c-0.2,0.1-0.4,0.3-0.7,0.4
							c-0.7,0.3-1.4,0.4-1.9,0.5c-0.5,0-0.8-0.1-0.8-0.1c0-0.1,1.2,0,2.6-0.6c0.2-0.1,0.4-0.2,0.6-0.4l0.1,0l0.1,0
							c0.5,0.3,0.9,0.6,1.2,0.8C164.5,91.3,164.7,91.3,164.7,91.3z"/>
					</g>
				</g>
				<g>
					<g>
						<path fill="#EB996E" d="M167.8,92.4c0,0-0.3,0-0.7,0c-0.4,0-0.9,0.1-1.4,0.4c-0.3,0.2-0.6,0.5-0.7,0.7l0,0l0,0
							c-0.7,0.1-1.2,0.2-1.2,0.1c0,0,0.4-0.2,1.1-0.4l-0.1,0.1c0.2-0.3,0.4-0.6,0.8-0.8c0.6-0.4,1.2-0.4,1.6-0.4
							C167.6,92.2,167.8,92.4,167.8,92.4z"/>
					</g>
				</g>
				<g>
					<g>
						<path fill="none" d="M173.1,90.4l-4.2-1.4l-1.2-0.3l-2.9-1.4l-3.3,1.2c0,0,0.1,1.1,0.9,0.8l-3.5,1.1c0,0,0.3,0.8,0.4,0.9
							c0.2,0.1-2,0.2-2,0.2s0,1.1,2.1,1.1c2.1,0,2.9-0.4,2.9-0.4l1.7,0.4l-0.1,1l-2.2-0.1L162,95c0.3,0.2,2.7,0.4,2.7,0.4
							s3.5,0.1,4.5-0.4c0.9-0.5,2.2-1.1,2.2-1.1"/>
					</g>
					<g>
						<g>
							<path fill="#EB996E" d="M171.3,93.9c0,0,0,0-0.1,0.1c-0.1,0-0.2,0.1-0.3,0.2c-0.3,0.2-0.7,0.4-1.2,0.7
								c-0.3,0.1-0.5,0.3-0.9,0.4c-0.4,0.1-0.8,0.1-1.2,0.2c-0.9,0.1-1.8,0.1-2.9,0.1h0l0,0c-0.4,0-0.9-0.1-1.3-0.1
								c-0.5-0.1-0.9-0.1-1.4-0.2l-0.1,0l0-0.1c-0.1-0.4-0.1-0.9-0.2-1.4l0-0.1l0.1,0c0.7,0,1.4,0.1,2.2,0.1l-0.1,0.1
								c0-0.3,0-0.6,0.1-1l0.1,0.1c-0.5-0.1-1.1-0.3-1.7-0.4l0.1,0c-0.8,0.3-1.6,0.3-2.5,0.4c-0.4,0-0.9,0-1.3-0.1
								c-0.4-0.1-0.9-0.3-1.2-0.7c-0.1-0.1-0.1-0.3-0.1-0.4l0-0.1l0.1,0c0.5,0,1-0.1,1.5-0.1c0.1,0,0.3,0,0.4,0l0.1,0c0,0,0,0,0,0
								c0,0,0,0,0,0c0,0,0,0.1,0,0.1c0,0,0.1,0.1,0.1,0.1c0,0-0.1,0-0.1-0.1c-0.1-0.1-0.1-0.1-0.1-0.2c-0.1-0.2-0.2-0.5-0.3-0.7
								l0-0.1l0.1,0c1.2-0.4,2.4-0.8,3.5-1.1l0.1,0.2c-0.1,0-0.3,0.1-0.4,0c-0.2,0-0.3-0.1-0.4-0.2c-0.2-0.2-0.2-0.5-0.3-0.8l0-0.1
								l0.1,0c1.2-0.4,2.3-0.8,3.3-1.2l0,0l0,0c1.1,0.5,2,1,2.9,1.4l0,0c0.4,0.1,0.8,0.2,1.2,0.4c0.4,0.1,0.7,0.3,1.1,0.4
								c0.7,0.2,1.2,0.4,1.7,0.6c0.4,0.2,0.8,0.3,1.1,0.4c0.2,0.1,0.4,0.1,0.4,0.2c0,0-0.1,0-0.4-0.1c-0.3-0.1-0.6-0.2-1.1-0.3
								c-0.5-0.2-1-0.3-1.7-0.6c-0.3-0.1-0.7-0.2-1.1-0.4c-0.4-0.1-0.8-0.2-1.2-0.3l0,0l0,0c-0.9-0.4-1.9-0.9-2.9-1.4l0.1,0
								c-1,0.4-2.1,0.8-3.3,1.2l0.1-0.1c0,0.2,0.1,0.5,0.2,0.6c0.1,0.2,0.3,0.2,0.6,0.1l0.1,0.2c-1.1,0.4-2.3,0.8-3.5,1.2l0.1-0.2
								c0.1,0.2,0.2,0.5,0.3,0.7c0,0,0.1,0.1,0.1,0.1c0,0,0,0,0,0c0,0,0,0,0,0.1l0,0l0,0c0-0.1,0,0,0-0.1c0,0,0,0,0,0
								c0,0,0,0.1,0,0.1c0,0,0,0.1,0,0.1c0,0,0,0,0,0c0,0,0,0,0,0c0,0-0.1,0-0.1,0c-0.1,0-0.3,0-0.4,0.1c-0.5,0.1-1,0.1-1.5,0.1
								l0.1-0.1c0,0.1,0,0.2,0.1,0.3c0.2,0.3,0.6,0.5,1,0.6c0.4,0.1,0.8,0.1,1.3,0.1c0.8,0,1.7-0.1,2.4-0.4l0,0l0,0
								c0.6,0.2,1.1,0.3,1.7,0.4l0.1,0l0,0.1c0,0.3,0,0.7-0.1,1l0,0.1l-0.1,0c-0.7,0-1.5-0.1-2.2-0.1l0.1-0.1c0.1,0.5,0.1,1,0.2,1.4
								l-0.1-0.1c0.4,0.1,0.9,0.2,1.4,0.2c0.5,0.1,0.9,0.1,1.3,0.1l0,0c1.1,0,2,0,2.9-0.1c0.4,0,0.8-0.1,1.2-0.2
								c0.3-0.1,0.6-0.3,0.9-0.4c0.5-0.3,0.9-0.5,1.2-0.6c0.1-0.1,0.2-0.1,0.3-0.2C171.2,93.9,171.3,93.9,171.3,93.9z"/>
						</g>
					</g>
				</g>
				<g>
					<g>
						<path fill="#EB996E" d="M167.1,90.1c0.1,0-0.4,0.7-1.3,1.3c-0.8,0.6-1.6,0.9-1.7,0.8c0-0.1,0.7-0.4,1.5-1
							C166.5,90.6,167,90.1,167.1,90.1z"/>
					</g>
				</g>
			</g>
		</g>
		<g>
			<g>
				<path fill="#0062A8" d="M191.5,106.9l-9.7-0.8l-11.4,4.4l-2.5,1.5l3.6,12.2c0,0,17.9-10.6,18.7-11.5
					C192.4,110,191.5,106.9,191.5,106.9z"/>
			</g>
			<g>
				<g>
					<g>
						<g>
							<path fill="#006405" d="M139.7,115.9l-3.3,2.1l7.7,30.3l-1.4,17.4c2,1.7,7,3.2,16.5,2.7c9.5-0.5,15.9-4.7,15.9-4.7l-0.9-18
								l-2.2-20.3l-2.5-13.9l-7.3,0.5l-2.9-1.7l-1.3,0.6l-1.6,4.6l-4.3-3.1l-5-2.4l-1.8,3.4L139.7,115.9z"/>
						</g>
					</g>
				</g>
			</g>
			<g>
				<g>
					<path fill="#263238" d="M169.6,115.1c0,0,0.1,0.2,0.3,0.7c0.2,0.4,0.4,1.1,0.6,1.9c0.5,1.6,1,3.8,1.5,6.3
						c0.4,2.5,0.7,4.8,0.8,6.5c0.1,0.8,0.1,1.5,0.1,2c0,0.5,0,0.7,0,0.7s0-0.3-0.1-0.7c0-0.5-0.1-1.2-0.2-2
						c-0.2-1.7-0.4-3.9-0.9-6.4c-0.4-2.5-1-4.7-1.4-6.3c-0.2-0.8-0.4-1.4-0.5-1.9C169.6,115.4,169.5,115.1,169.6,115.1z"/>
				</g>
			</g>
		</g>
		<g>
			<g>
				<path fill="#263238" d="M155.1,115.4c0,0-0.3,0-0.7-0.3c-0.4-0.2-1-0.6-1.5-1.3l0.2,0c-0.1,1.2-0.3,2.8-0.9,4.4l-0.1,0.2
					l-0.1-0.1c-0.1-0.1-0.2-0.2-0.4-0.2c-1.7-1.2-3.3-2.3-4.4-3.1c-0.5-0.4-1-0.7-1.3-1c-0.3-0.2-0.5-0.4-0.5-0.4
					c0,0,0.2,0.1,0.5,0.3c0.4,0.2,0.8,0.5,1.4,0.9c1.1,0.8,2.7,1.8,4.4,3c0.1,0.1,0.2,0.2,0.4,0.2l-0.2,0.1c0.6-1.6,0.8-3.1,0.9-4.3
					l0-0.3l0.2,0.2c0.5,0.7,1,1.1,1.4,1.3C154.8,115.3,155.1,115.4,155.1,115.4z"/>
			</g>
		</g>
		<g>
			<g>
				<path fill="#263238" d="M161.9,112.7c0,0-0.6,0.8-1.6,1.8l-0.1,0.1l-0.1-0.1c-0.3-0.4-0.7-0.7-1.1-1.1c-0.2-0.2-0.4-0.4-0.6-0.5
					c-0.1-0.1-0.2-0.1-0.3-0.2c0,0-0.1,0-0.1,0c0,0,0,0,0,0.1c-0.2,0.4-0.3,0.8-0.5,1.2c-0.3,0.7-0.5,1.1-0.5,1.1
					c0,0,0.1-0.4,0.3-1.1c0.1-0.4,0.3-0.8,0.4-1.2c0-0.1,0.1-0.2,0.2-0.2c0.1-0.1,0.2,0,0.3,0c0.1,0.1,0.2,0.1,0.3,0.2
					c0.2,0.2,0.4,0.3,0.6,0.5c0.4,0.4,0.8,0.8,1.1,1.1l-0.2,0C161.2,113.4,161.9,112.7,161.9,112.7z"/>
			</g>
		</g>
		<g>
			<g>
				<g>
					<g>
						<g>
							<g>
								<g>
									<g>
										<g>
											<g>
												<g>
													<path fill="#455A64" d="M160,167.1c4.1-0.8,8.5-0.3,12.6,1.6c5,2.3,8.8,6.5,10.7,11.7c1.9,5.2,1.7,10.8-0.7,15.9
														c-4.8,10.4-17.2,14.9-27.6,10.1l0,0c-5-2.3-8.8-6.5-10.7-11.7c-1.9-5.2-1.7-10.8,0.7-15.9
														C147.9,172.4,153.6,168.3,160,167.1z M167.3,206.5c5.9-1.1,11.2-5,14-10.8c2.2-4.7,2.4-9.9,0.6-14.8
														c-1.8-4.9-5.3-8.7-10-10.9c-4.7-2.2-9.9-2.4-14.8-0.6c-4.9,1.8-8.7,5.3-10.9,10c-2.2,4.7-2.4,9.9-0.6,14.8
														c1.8,4.9,5.3,8.7,10,10.9C159.4,206.8,163.5,207.2,167.3,206.5z"/>
												</g>
												<g>
													<path fill="#455A64" stroke="#FFFFFF" stroke-miterlimit="10" d="M163.7,209.2c-3.1,0-6.2-0.7-9.1-2
														c-5.3-2.5-9.3-6.8-11.3-12.3c-2-5.5-1.7-11.4,0.7-16.6c2.9-6.3,8.8-10.9,15.7-12.2c4.5-0.8,9-0.3,13.2,1.6
														c5.3,2.5,9.3,6.8,11.3,12.3c2,5.5,1.7,11.4-0.7,16.6c-2.4,5.3-6.8,9.2-12.3,11.2C168.8,208.8,166.3,209.2,163.7,209.2z
														 M163.8,169.1c-2.1,0-4.2,0.4-6.3,1.1c-4.6,1.7-8.3,5.1-10.3,9.5c-2.1,4.4-2.3,9.4-0.6,14c1.7,4.6,5.1,8.3,9.5,10.3
														c3.5,1.6,7.3,2.1,11.1,1.4l0,0c5.8-1.1,10.8-4.9,13.3-10.3c2.1-4.4,2.3-9.4,0.6-14c-1.7-4.6-5.1-8.3-9.5-10.3
														C169.1,169.7,166.4,169.1,163.8,169.1z"/>
												</g>
											</g>
										</g>
									</g>
								</g>
							</g>
						</g>
						<g>
							<g>
								<g>
									<g>
										<g>
											<g>
												<g>
													<path fill="#455A64" d="M113.3,167.2l0.2-0.5c0.4-1,1.3-1.5,1.9-1.3l30.3,12.3c0.1,0.1,0.2,0.3,0.1,0.5l-1.3,3.2
														c-0.1,0.2-0.3,0.3-0.4,0.3l-30.3-12.3C113.2,169.2,112.9,168.2,113.3,167.2z"/>
												</g>
											</g>
										</g>
									</g>
								</g>
							</g>
						</g>
					</g>
				</g>
			</g>
			<g>
				<g>
					<g>
						<g>
							<g>
								<g>
									<g>
										<path fill="#FFBE9D" d="M141.6,132.3l-3.6,12.1l1.8,24.6l-5.4,0.7c0,0-6.2-20.9-5.5-24.7c0.6-3.8,3.1-14.8,3.1-14.8
											L141.6,132.3z"/>
									</g>
								</g>
							</g>
						</g>
					</g>
					<g>
						<g>
							<g>
								<g>
									<g>
										<path fill="#FFBE9D" d="M139.8,168.8l2.5,4.3l1.6,4l-2.4-0.9c0,0-1,4.8-1.4,5c-0.4,0.1-1.5-0.3-1.4-1.2
											c0,0-0.6,0.6-1.3,0.4c-0.7-0.1-0.9-0.6-0.8-1.5c0,0-0.8,0.7-1.3,0.3c-0.5-0.4-0.4-1.2-0.4-1.2s-1.1,0.1-1.2-0.5
											c-0.1-0.6-0.2-2.2-0.1-2.8c0.1-0.6,0.6-3.1,0.6-3.1l0.2-2L139.8,168.8z"/>
									</g>
								</g>
							</g>
						</g>
						<g>
							<g>
								<g>
									<g>
										<g>
											
												<ellipse transform="matrix(0.1873 -0.9823 0.9823 0.1873 -62.4503 281.581)" fill="#EB996E" cx="138.9" cy="178.5" rx="1.4" ry="0.1"/>
										</g>
									</g>
								</g>
							</g>
						</g>
						<g>
							<g>
								<g>
									<g>
										<g>
											
												<ellipse transform="matrix(0.1968 -0.9804 0.9804 0.1968 -64.345 276.8493)" fill="#EB996E" cx="136.8" cy="177.7" rx="1.1" ry="0.1"/>
										</g>
									</g>
								</g>
							</g>
						</g>
						<g>
							<g>
								<g>
									<g>
										<g>
											<path fill="#EB996E" d="M135.2,176.1c-0.1,0-0.1,0.4-0.2,0.9c-0.1,0.5-0.2,0.9-0.2,0.9c0.1,0,0.3-0.4,0.4-0.9
												C135.3,176.5,135.2,176.1,135.2,176.1z"/>
										</g>
									</g>
								</g>
							</g>
						</g>
						<g>
							<g>
								<g>
									<g>
										<g>
											<path fill="#EB996E" d="M141.7,174.8c-0.1,0-0.2,0.6-0.4,1.3c-0.2,0.7-0.3,1.4-0.3,1.4c0.1,0,0.3-0.6,0.5-1.3
												C141.7,175.4,141.8,174.8,141.7,174.8z"/>
										</g>
									</g>
								</g>
							</g>
						</g>
					</g>
				</g>
				<g>
					<path fill="#0062A8" d="M128.6,153.1c0-0.4-1.7-6.1-1.2-9.1s6.6-23,7.4-24.5c0.8-1.4,2.6-2.2,2.6-2.2s3.6,1.7,4.9,6.1
						c1.2,4.4,1.2,9.9,1.2,9.9l-4.9,12.2l0.6,6.9L128.6,153.1z"/>
				</g>
			</g>
			<g>
				<g>
					<path fill="#263238" d="M143.2,132.9c0,0,0-0.9,0-2.3c0-0.7-0.1-1.6-0.2-2.5c-0.2-0.9-0.4-2-0.7-3c-0.3-1-0.7-2-1.2-2.9
						c-0.4-0.9-0.9-1.6-1.3-2.2c-0.8-1.2-1.4-1.9-1.3-1.9c0,0,0.2,0.1,0.4,0.5c0.3,0.3,0.6,0.8,1.1,1.4c0.4,0.6,0.9,1.3,1.3,2.2
						c0.4,0.9,0.8,1.8,1.2,2.9c0.3,1.1,0.6,2.1,0.7,3.1c0.1,1,0.2,1.8,0.2,2.6c0,0.7,0,1.3-0.1,1.7
						C143.3,132.7,143.3,132.9,143.2,132.9z"/>
				</g>
			</g>
			<g>
				<g>
					<path fill="#263238" d="M142.9,135.5c0,0-0.2,0.6-0.5,1.5c-0.4,0.9-0.9,2.2-1.5,3.6c-0.6,1.3-1.1,2.5-1.6,3.5
						c-0.4,0.9-0.6,1.5-0.7,1.4c0,0,0.2-0.6,0.5-1.5c0.4-0.9,0.9-2.2,1.5-3.6c0.6-1.3,1.1-2.5,1.6-3.5
						C142.7,136,142.9,135.4,142.9,135.5z"/>
				</g>
			</g>
			<g>
				<g>
					<path fill="#263238" d="M138.9,146c0,0.1-1.4-0.9-3.4-1.5c-1.9-0.6-3.6-0.6-3.6-0.6c0,0,0.4-0.1,1.1-0.1c0.7,0,1.6,0.1,2.6,0.4
						c1,0.3,1.8,0.7,2.4,1.1C138.6,145.7,139,145.9,138.9,146z"/>
				</g>
			</g>
			<g>
				<g>
					
						<ellipse transform="matrix(0.7598 -0.6501 0.6501 0.7598 -83.3623 150.4944)" fill="#FFFFFF" cx="162" cy="188.1" rx="11.7" ry="0.1"/>
				</g>
			</g>
			<g>
				<g>
					
						<ellipse transform="matrix(0.7583 -0.6519 0.6519 0.7583 -81.1278 154.9857)" fill="#FFFFFF" cx="168.5" cy="186.9" rx="9.9" ry="0.1"/>
				</g>
			</g>
			<g>
				<g>
					<path fill="#263238" d="M183.5,187.5c0,0,0-0.1,0-0.3c0-0.2,0-0.5-0.1-0.9c0-0.2,0-0.4,0-0.7c0-0.3-0.1-0.5-0.1-0.8
						c0-0.3-0.1-0.6-0.2-1c0-0.3-0.2-0.7-0.3-1.1c-0.3-1.5-1.1-3.3-2.2-5.2c-1.1-1.9-2.8-3.9-5-5.6c-0.3-0.2-0.6-0.4-0.8-0.6
						c-0.3-0.2-0.6-0.4-0.9-0.6c-0.3-0.2-0.6-0.4-1-0.6c-0.3-0.2-0.7-0.3-1-0.5c-0.2-0.1-0.3-0.2-0.5-0.2c-0.2-0.1-0.4-0.1-0.5-0.2
						c-0.4-0.1-0.7-0.3-1.1-0.4c-0.4-0.1-0.8-0.2-1.2-0.3c-0.4-0.1-0.8-0.2-1.2-0.3c-0.8-0.1-1.6-0.3-2.5-0.3c-0.4,0-0.8-0.1-1.3,0
						c-0.4,0-0.9,0-1.3,0.1c-0.2,0-0.4,0-0.7,0l-0.7,0.1c-0.4,0.1-0.9,0.1-1.3,0.2c-0.9,0.2-1.8,0.4-2.6,0.8
						c-0.9,0.3-1.7,0.7-2.6,1.1c-0.4,0.2-0.8,0.5-1.2,0.7c-0.2,0.1-0.4,0.2-0.6,0.4l-0.6,0.4c-0.8,0.5-1.5,1.2-2.2,1.9
						c-0.7,0.7-1.3,1.4-1.9,2.3l-0.4,0.6l-0.4,0.6l-0.4,0.6c-0.1,0.2-0.3,0.4-0.4,0.7c-0.2,0.5-0.4,0.9-0.7,1.4
						c-0.2,0.5-0.4,1-0.5,1.4c-0.6,2-1,4-1,6.2c0,2.1,0.4,4.2,1,6.2c0.2,0.5,0.4,1,0.5,1.4c0.2,0.5,0.4,0.9,0.7,1.4l0.2,0.3l0.2,0.3
						l0.4,0.6l0.4,0.6l0.4,0.6c0.6,0.8,1.3,1.5,1.9,2.3c0.7,0.7,1.4,1.3,2.2,1.9l0.6,0.4c0.2,0.1,0.4,0.3,0.6,0.4
						c0.4,0.2,0.8,0.5,1.2,0.7c0.8,0.4,1.7,0.8,2.6,1.1c0.9,0.4,1.7,0.5,2.6,0.8c0.4,0.1,0.9,0.1,1.3,0.2l0.7,0.1c0.2,0,0.4,0,0.7,0
						c0.4,0,0.9,0,1.3,0.1c0.4,0,0.9,0,1.3,0c0.8,0,1.7-0.2,2.5-0.3c0.4,0,0.8-0.2,1.2-0.3c0.4-0.1,0.8-0.2,1.2-0.3
						c0.4-0.1,0.7-0.3,1.1-0.4c0.2-0.1,0.4-0.1,0.5-0.2c0.2-0.1,0.3-0.2,0.5-0.2c0.3-0.2,0.7-0.3,1-0.5c0.3-0.2,0.6-0.4,1-0.6
						c0.3-0.2,0.6-0.4,0.9-0.6c0.3-0.2,0.6-0.4,0.8-0.6c2.2-1.7,3.9-3.7,5-5.6c1.1-1.9,1.8-3.7,2.2-5.2c0.1-0.4,0.2-0.7,0.3-1.1
						c0.1-0.3,0.1-0.7,0.2-1c0-0.3,0.1-0.6,0.1-0.8c0-0.3,0-0.5,0-0.7c0-0.4,0-0.7,0.1-0.9C183.4,187.6,183.5,187.5,183.5,187.5
						s0,0.1,0,0.3c0,0.2,0,0.5,0,0.9c0,0.2,0,0.4,0,0.7c0,0.3-0.1,0.5-0.1,0.8c0,0.3-0.1,0.6-0.1,1c0,0.3-0.2,0.7-0.2,1.1
						c-0.3,1.5-1,3.3-2.2,5.3c-1.1,1.9-2.8,3.9-5,5.6c-0.3,0.2-0.6,0.4-0.9,0.6c-0.3,0.2-0.6,0.4-0.9,0.6c-0.3,0.2-0.6,0.4-1,0.6
						c-0.3,0.2-0.7,0.3-1,0.5c-0.2,0.1-0.3,0.2-0.5,0.2c-0.2,0.1-0.4,0.1-0.5,0.2c-0.4,0.1-0.7,0.3-1.1,0.4
						c-0.4,0.1-0.8,0.2-1.2,0.3c-0.4,0.1-0.8,0.2-1.2,0.3c-0.8,0.1-1.6,0.3-2.5,0.3c-0.4,0-0.9,0.1-1.3,0.1c-0.4,0-0.9,0-1.3-0.1
						c-0.2,0-0.4,0-0.7,0l-0.7-0.1c-0.4-0.1-0.9-0.1-1.3-0.2c-0.9-0.2-1.8-0.4-2.6-0.8c-0.9-0.3-1.7-0.7-2.6-1.1
						c-0.4-0.2-0.8-0.5-1.2-0.7c-0.2-0.1-0.4-0.2-0.6-0.4l-0.6-0.4c-0.8-0.6-1.5-1.2-2.2-1.9c-0.7-0.7-1.4-1.5-1.9-2.3l-0.5-0.6
						l-0.4-0.7l-0.4-0.7l-0.2-0.3l-0.2-0.3c-0.2-0.5-0.4-0.9-0.7-1.4c-0.2-0.5-0.4-1-0.5-1.5c-0.6-2-1-4.1-1-6.3
						c0-2.1,0.4-4.3,1-6.2c0.2-0.5,0.4-1,0.5-1.5c0.2-0.5,0.4-0.9,0.7-1.4c0.1-0.2,0.2-0.5,0.4-0.7l0.4-0.7l0.4-0.7l0.5-0.6
						c0.6-0.8,1.3-1.6,1.9-2.3c0.7-0.7,1.4-1.4,2.2-1.9l0.6-0.4c0.2-0.1,0.4-0.3,0.6-0.4c0.4-0.2,0.8-0.5,1.2-0.7
						c0.9-0.4,1.7-0.8,2.6-1.1c0.9-0.4,1.8-0.5,2.6-0.8c0.4-0.1,0.9-0.1,1.3-0.2l0.7-0.1c0.2,0,0.4,0,0.7,0c0.4,0,0.9,0,1.3-0.1
						c0.4,0,0.9,0,1.3,0.1c0.9,0,1.7,0.2,2.5,0.3c0.4,0,0.8,0.2,1.2,0.3c0.4,0.1,0.8,0.2,1.2,0.3c0.4,0.1,0.7,0.3,1.1,0.4
						c0.2,0.1,0.4,0.1,0.5,0.2c0.2,0.1,0.3,0.2,0.5,0.2c0.3,0.2,0.7,0.3,1,0.5c0.3,0.2,0.6,0.4,1,0.6c0.3,0.2,0.6,0.4,0.9,0.6
						c0.3,0.2,0.6,0.4,0.9,0.6c2.2,1.7,3.9,3.7,5,5.6c1.1,1.9,1.8,3.7,2.2,5.3c0.1,0.4,0.2,0.7,0.2,1.1c0.1,0.3,0.1,0.7,0.1,1
						c0,0.3,0.1,0.6,0.1,0.8c0,0.3,0,0.5,0,0.7c0,0.4,0,0.7,0,0.9C183.5,187.4,183.5,187.5,183.5,187.5z"/>
				</g>
			</g>
			<g>
				<g>
					<path fill="#263238" d="M176.2,197.9c0,0,0.2-0.2,0.5-0.7c0.3-0.4,0.8-1.1,1.3-1.9c1-1.6,2-4.1,2.3-7c0.3-2.9-0.2-5.5-0.8-7.3
						c-0.3-0.9-0.6-1.6-0.8-2.1c-0.2-0.5-0.4-0.7-0.3-0.8c0,0,0.1,0.1,0.1,0.2c0.1,0.1,0.2,0.3,0.3,0.5c0.3,0.5,0.6,1.2,0.9,2.1
						c0.7,1.8,1.2,4.5,0.9,7.4c-0.3,2.9-1.4,5.4-2.4,7.1c-0.5,0.8-1,1.4-1.3,1.8c-0.2,0.2-0.3,0.4-0.4,0.5
						C176.3,197.9,176.2,197.9,176.2,197.9z"/>
				</g>
			</g>
			<g>
				<g>
					
						<ellipse transform="matrix(0.8682 -0.4961 0.4961 0.8682 -76.1882 113.0402)" fill="#263238" cx="174.7" cy="200" rx="0.5" ry="0.1"/>
				</g>
			</g>
			<g>
				<g>
					<path fill="#FFFFFF" d="M149.3,195.9c0,0,0-0.1-0.1-0.2c-0.1-0.2-0.2-0.4-0.3-0.7c-0.2-0.6-0.5-1.5-0.8-2.7
						c-0.5-2.3-0.7-5.6,0.2-9.1c0.9-3.5,2.8-6.3,4.4-8c0.8-0.9,1.5-1.5,2-1.9c0.3-0.2,0.5-0.4,0.6-0.5c0.1-0.1,0.2-0.1,0.2-0.1
						c0,0-0.3,0.2-0.8,0.7c-0.5,0.4-1.2,1.1-2,2c-1.5,1.7-3.4,4.5-4.3,8c-0.9,3.5-0.8,6.8-0.3,9c0.2,1.1,0.5,2.1,0.7,2.7
						C149.2,195.6,149.4,195.9,149.3,195.9z"/>
				</g>
			</g>
			<g>
				<g>
					
						<ellipse transform="matrix(0.9965 -8.305254e-002 8.305254e-002 0.9965 -13.6896 13.8635)" fill="#FFFFFF" cx="159.8" cy="171.5" rx="1.2" ry="0.1"/>
				</g>
			</g>
		</g>
		<circle opacity="0.33" fill="#FFFFFF" cx="164" cy="187.6" r="18.6"/>
	</g>
	<path fill="none" stroke="#C1C1C1" stroke-width="3" stroke-miterlimit="10" d="M226.8,88c-16.2,0-29.3,9.1-29.3,20.3
		c0,3.3,1.1,6.4,3.2,9.1l-7,19.3l16.7-10c3.1,0.8,13,1.9,16.4,1.9c16.2,0,29.3-9.1,29.3-20.3C256.1,97.1,243,88,226.8,88z"/>
	<g>
		<path fill="#ED0000" d="M216.8,103.8c0-1,0.3-2.1,1-3.1c0.7-1.1,1.6-1.9,2.9-2.6c1.3-0.7,2.7-1,4.4-1c1.6,0,3,0.3,4.2,0.9
			c1.2,0.6,2.1,1.4,2.8,2.4c0.7,1,1,2.1,1,3.2c0,0.9-0.2,1.7-0.6,2.4c-0.4,0.7-0.8,1.3-1.3,1.8c-0.5,0.5-1.4,1.3-2.8,2.5
			c-0.4,0.3-0.7,0.6-0.9,0.9c-0.2,0.3-0.4,0.5-0.5,0.7c-0.1,0.2-0.2,0.4-0.3,0.6c-0.1,0.2-0.1,0.6-0.3,1.1c-0.2,1.1-0.8,1.7-1.9,1.7
			c-0.6,0-1-0.2-1.4-0.6c-0.4-0.4-0.6-0.9-0.6-1.6c0-0.9,0.1-1.7,0.4-2.4c0.3-0.7,0.7-1.2,1.1-1.8c0.5-0.5,1.1-1.1,1.9-1.8
			c0.7-0.6,1.2-1.1,1.5-1.4c0.3-0.3,0.6-0.7,0.8-1c0.2-0.4,0.3-0.8,0.3-1.2c0-0.9-0.3-1.6-1-2.2s-1.5-0.9-2.5-0.9
			c-1.2,0-2.1,0.3-2.6,0.9c-0.6,0.6-1,1.5-1.4,2.7c-0.4,1.2-1.1,1.8-2.1,1.8c-0.6,0-1.1-0.2-1.5-0.6
			C217,104.8,216.8,104.3,216.8,103.8z M224.7,121.6c-0.7,0-1.2-0.2-1.7-0.6c-0.5-0.4-0.7-1-0.7-1.8c0-0.7,0.2-1.3,0.7-1.7
			s1.1-0.7,1.8-0.7c0.7,0,1.3,0.2,1.7,0.7c0.5,0.5,0.7,1,0.7,1.7c0,0.8-0.2,1.4-0.7,1.8C225.9,121.4,225.4,121.6,224.7,121.6z"/>
	</g>
	<path fill="#E8E8E8" d="M268.3,175c-0.6,0-1.2,0-1.8,0C267.6,175,268.3,175,268.3,175C268.3,175,268.3,175,268.3,175z"/>
	<g>
		<path fill="#E8E8E8" d="M275.2,207.2h-5.4l-2.7,4.6l2.7,4.6h5.4l2.7-4.6L275.2,207.2z M272.5,214.3c-1.4,0-2.5-1.1-2.5-2.5
			s1.1-2.5,2.5-2.5c1.4,0,2.5,1.1,2.5,2.5S273.9,214.3,272.5,214.3z"/>
		<path fill="#E8E8E8" d="M226.4,207.2h-5.4l-2.7,4.6l2.7,4.6h5.4l2.7-4.6L226.4,207.2z M223.7,214.3c-1.4,0-2.5-1.1-2.5-2.5
			s1.1-2.5,2.5-2.5c1.4,0,2.5,1.1,2.5,2.5S225.1,214.3,223.7,214.3z"/>
		<path fill="#E8E8E8" d="M268,189.6c1.8,2.2,3.6,4.4,5.5,6.7c-0.2,0.2-0.3,0.3-0.5,0.5c-9.9,8.1-19.7,16.1-29.6,24.2
			c-2.4,2-4.8,3.9-7.2,6c-2.5,2.2-4.6,4.7-5.9,7.8c-0.5,1.3-0.7,2.8-1,4.2c-1.2,6.3-7.3,10.5-13.6,9.6c-5.2-0.8-9.3-4.7-10.2-9.6
			c-0.9-5.4,1.4-10.5,6.1-13c2.5-1.3,5.1-1.7,7.9-1.3c0.8,0.1,1.8,0.1,2.5-0.2c3.8-1.3,7.3-3.3,10.4-5.8c5.9-4.8,11.7-9.6,17.6-14.4
			c5.8-4.8,11.6-9.6,17.4-14.3C267.7,189.8,267.8,189.8,268,189.6z M224.1,236.6c0-3.6-2.9-6.6-6.5-6.6c-3.8,0-6.7,2.9-6.8,6.6
			c0,3.6,3,6.6,6.6,6.6C221.1,243.3,224.1,240.3,224.1,236.6z"/>
		<path fill="#E8E8E8" d="M249,219.7c2.3-1.9,4.6-3.7,6.9-5.6c1.5,1.2,3,2.4,4.5,3.7c3.4,2.9,7.1,5.2,11.4,6.6
			c0.9,0.3,1.9,0.4,2.8,0.2c5.8-0.9,11.4,2.3,13.4,7.7c2.7,7.3-1.8,14.6-8.7,16.1c-6.7,1.5-13.5-2.9-14.5-9.9
			c-0.5-3.5-2.2-6.2-4.3-8.9c-2.1-2.6-4.8-4.5-7.3-6.6C251.7,222,250.4,220.9,249,219.7z M276.6,230c-3.6-0.1-6.6,2.8-6.7,6.4
			c-0.1,3.2,2.3,6.9,7.1,6.9c2.8,0,6.2-3.2,6.2-6C283.3,233.1,280.6,230.1,276.6,230z"/>
		<path fill="#E8E8E8" d="M233.2,182.8c-0.6,0.7-1,1.4-1.6,1.9c-0.3,0.2-0.8,0.3-1.2,0.2c-1.5-0.2-2.9-0.5-4.3-0.8
			c-0.5-0.1-0.8,0-1.1,0.4c-3.2,4-6.5,7.9-9.7,11.8c-0.3,0.4-0.3,0.6-0.2,1.1c0.6,1.5,1.2,3,1.8,4.5c0.2,0.4,0.1,0.7-0.2,1
			c-0.5,0.5-0.9,1.1-1.5,1.8c-5-4.1-10.1-8.2-15.1-12.4c5.3-7.8,11.2-15,17.9-21.8C223.1,174.5,228.1,178.6,233.2,182.8z
			 M214.4,183.1c-1.4,0-2.5,1.2-2.5,2.6c0,1.4,1.1,2.6,2.5,2.6c1.4,0,2.6-1.2,2.6-2.7C217.1,184.2,215.9,183.1,214.4,183.1z"/>
		<path fill="#E8E8E8" d="M260.8,182.8c5.1-4.2,10.1-8.3,15.1-12.4c6.6,6.7,12.6,14,17.9,21.8c-5.1,4.1-10.1,8.3-15.1,12.4
			c-2-2.1-2-2.1-0.9-4.7c0.4-0.9,0.8-1.8,1.1-2.7c0.1-0.2,0-0.6-0.1-0.8c-3.3-4-6.6-8-9.9-12c-0.2-0.2-0.7-0.3-1-0.3
			c-1.5,0.2-2.9,0.5-4.4,0.8c-0.6,0.1-1,0.1-1.4-0.5C261.8,183.9,261.3,183.4,260.8,182.8z M282.2,185.8c0-1.4-1.2-2.7-2.6-2.7
			c-1.5,0-2.6,1.1-2.6,2.6c0,1.4,1.1,2.6,2.4,2.7C280.8,188.4,282.2,187.1,282.2,185.8z"/>
		<path fill="#E8E8E8" d="M255.4,237.8c-0.2,0.5-0.4,1-0.6,1.5c0.5,0.3,0.9,0.6,1.4,1c-0.3,0.5-0.6,0.9-0.9,1.4
			c-0.5-0.3-1-0.6-1.5-0.9c-0.4,0.4-0.7,0.8-1.1,1.2c0.3,0.5,0.6,0.9,0.9,1.4c-0.5,0.3-0.9,0.6-1.3,0.9c-0.4-0.5-0.7-0.9-1.1-1.4
			c-0.5,0.3-1.1,0.4-1.3,0.8c-0.2,0.4,0.1,0.9,0.2,1.5c-0.5,0.1-1,0.2-1.5,0.4c-0.2-0.6-0.3-1.1-0.4-1.6c-1.5-0.2-1.5-0.2-2,1.6
			c-0.5-0.1-1-0.2-1.5-0.2c0.1-0.6,0.1-1.1,0.2-1.6c-1.3-0.7-1.3-0.7-2.4,0.8c-0.2-0.1-0.4-0.2-0.6-0.3c-0.2-0.1-0.5-0.3-0.6-0.4
			c-0.2-0.8,1.1-1.1,0.3-1.9c-0.4-0.4-0.7-1.1-1.2-1.2c-0.4-0.1-1,0.5-1.5,0.7c-0.1-0.2-0.1-0.3-0.2-0.4c-0.7-0.7-0.3-1.1,0.4-1.5
			c0.9-0.5,0-1-0.1-1.6c0-0.1-0.5-0.2-0.8-0.2c-0.3,0-0.6,0.1-0.9,0.2c-0.6-1.2-0.5-1.4,0.7-1.8c0.4-0.1,0.6-0.3,0.5-0.7
			c0-0.4,0-0.7,0-1.1c-0.5-0.1-1.1-0.1-1.4-0.5c-0.2-0.3,0-0.9,0-1.5c1,0.2,2,0.5,2.2-0.9c0.1-0.9-1-0.7-1.2-1.4c0,0,0-0.1,0.1-0.2
			c0.6-1,0.6-1.1,1.7-0.4c0.4,0.2,0.6,0.2,0.9-0.1c0.2-0.3,0.5-0.5,0.7-0.8c-0.2-0.2-0.3-0.4-0.4-0.7c-0.1-0.2-0.3-0.4-0.5-0.7
			c0.5-0.3,0.9-0.6,1.3-1c1.1,1.4,1.1,1.4,2.5,0.7c0-0.2-0.1-0.5-0.1-0.8c0-0.3-0.1-0.5-0.1-0.7c1.5-0.7,1.5-0.7,2,1.1
			c0.5,0,1,0,1.6,0c0.1-0.5,0.2-1.1,0.3-1.6c0.5,0.1,1,0.1,1.6,0.2c-0.1,0.6-0.1,1.1-0.2,1.7c0.5,0.1,1.1,0.5,1.5,0.3
			c0.4-0.1,0.6-0.8,1-1.3c0.4,0.3,0.9,0.5,1.4,0.8c-0.3,0.5-0.5,1-0.8,1.4c0.5,0.5,1,1.1,1.6,1.6c0.4-0.3,0.9-0.6,1.4-0.9
			c0.3,0.4,0.6,0.9,0.9,1.3c-0.5,0.4-1,0.7-1.2,1.2c-0.1,0.3,0.3,0.8,0.5,1.3c0.5-0.1,1-0.2,1.6-0.2c0.7,1.4,0.7,1.5-1.2,2
			c0,0.5,0,1,0,1.5c0.5,0.2,1.2,0.2,1.5,0.5c0.2,0.3-0.1,0.9-0.1,1.5C256.6,238,256,237.9,255.4,237.8z M249.3,235.3
			c0-1.2-0.9-2.2-2.1-2.2c-1.3,0-2.2,0.9-2.2,2.1c0,1.3,0.9,2.2,2.2,2.2C248.3,237.5,249.3,236.5,249.3,235.3z"/>
		<path fill="#E8E8E8" d="M226.1,189.6c6.3,5.2,12.6,10.3,18.9,15.5c-1,0.9-2,1.7-3.1,2.6c-1.1,0.9-2.2,1.7-3.2,2.7
			c-0.4,0.4-0.7,0.4-1.1,0c-4.7-3.9-9.3-7.7-14-11.5c-1-0.8-2-1.6-3-2.5C222.4,194.1,224.2,191.9,226.1,189.6z"/>
		<path fill="#E8E8E8" d="M215.3,168.1c-6,7.3-11.9,14.5-17.9,21.8c-0.5-0.6-1.2-1.3-1.8-2c-0.1-0.1,0-0.5,0.1-0.7
			c3-5.1,6.5-9.9,10.6-14.1c1.7-1.8,3.5-3.4,5.2-5.2c0.6-0.7,1.3-0.8,2.1-0.5C214.3,167.7,214.8,167.9,215.3,168.1z"/>
		<path fill="#E8E8E8" d="M278.6,168c0.9-0.2,1.7-0.5,2.6-0.7c0.2,0,0.5,0.1,0.7,0.2c6.4,5.7,12,12.1,16.3,19.5
			c0.3,0.5,0.3,0.8-0.1,1.2c-0.6,0.6-1.1,1.2-1.5,1.7C290.6,182.6,284.7,175.4,278.6,168z"/>
		<path fill="#E8E8E8" d="M274.3,208.3c-1.5-0.9-2.6-1-4.1,0c-1.4,0.9-2.5,1.6-1.8,3.4c-0.6,1.9,0.4,2.7,1.9,3.6
			c1.5,0.9,2.5,0.8,4,0c1.6-0.9,2-1.9,2-3.6C276.2,210,275.7,209.1,274.3,208.3z M272.5,214.3c-1.4,0-2.5-1.1-2.5-2.5
			s1.1-2.5,2.5-2.5c1.4,0,2.5,1.1,2.5,2.5S273.9,214.3,272.5,214.3z"/>
	</g>
</g>
</svg>
