<svg width="13" height="16" viewBox="0 0 13 16" fill="none" xmlns="http://www.w3.org/2000/svg">
<path d="M12.0359 10.5375C11.7683 9.72501 11.6315 8.87513 11.6307 8.01968V5.90597C11.6502 4.56663 11.1722 3.26767 10.2893 2.26039C9.40936 1.25152 8.1881 0.602843 6.85952 0.438663C6.12533 0.362493 5.37844 0.438663 4.66964 0.678809C3.96083 0.906261 3.31551 1.28605 2.77174 1.79279C2.22526 2.28647 1.78969 2.89042 1.49378 3.5648C1.19639 4.23892 1.04118 4.96711 1.03781 5.70391V8.03132C1.03626 8.88325 0.899502 9.72953 0.632633 10.5386L0 12.41L0.506741 13.1061H4.21473C4.21473 13.6626 4.44219 14.2064 4.83467 14.5999C5.2261 14.9913 5.77093 15.2198 6.32845 15.2198C6.88491 15.2198 7.42868 14.9924 7.82117 14.5999C8.21365 14.2074 8.44216 13.6626 8.44216 13.1061H12.1502L12.6558 12.41L12.0359 10.5375ZM7.07428 13.8668C6.97694 13.9661 6.86094 14.0451 6.73294 14.0994C6.60495 14.1537 6.46748 14.1821 6.32845 14.1831C6.18916 14.1821 6.05145 14.1536 5.92326 14.0991C5.79507 14.0446 5.67893 13.9653 5.58156 13.8657C5.48209 13.7685 5.40284 13.6525 5.34837 13.5245C5.2939 13.3965 5.26529 13.259 5.26419 13.1199H7.37896C7.38337 13.2587 7.35862 13.3969 7.30633 13.5255C7.25403 13.6542 7.17534 13.7704 7.07534 13.8668H7.07428ZM1.23988 12.0577L1.63236 10.8792C1.93843 9.9611 2.09662 9.00016 2.10102 8.03238V5.70391C2.10102 5.1083 2.22797 4.52645 2.46812 3.99431C2.70826 3.45055 3.04997 2.9692 3.49324 2.57671C3.9365 2.17259 4.45594 1.86791 5.0124 1.69123C5.58156 1.50081 6.17611 1.43733 6.75796 1.50081C7.82435 1.64103 8.80208 2.16811 9.50537 2.98189C10.2089 3.79669 10.5871 4.84237 10.5675 5.91866V8.04507C10.5675 9.00672 10.7199 9.96836 11.0362 10.8919L11.4287 12.0694H1.24093V12.0567L1.23988 12.0577Z" fill="black"/>
</svg>
