<svg width="20" height="21" viewBox="0 0 20 21" fill="none" xmlns="http://www.w3.org/2000/svg">
<g id="uil:calender">
<path id="Vector" d="M15.8334 3.5H14.1667V2.625C14.1667 2.39294 14.079 2.17038 13.9227 2.00628C13.7664 1.84219 13.5544 1.75 13.3334 1.75C13.1124 1.75 12.9004 1.84219 12.7442 2.00628C12.5879 2.17038 12.5001 2.39294 12.5001 2.625V3.5H7.50008V2.625C7.50008 2.39294 7.41228 2.17038 7.256 2.00628C7.09972 1.84219 6.88776 1.75 6.66675 1.75C6.44573 1.75 6.23377 1.84219 6.07749 2.00628C5.92121 2.17038 5.83341 2.39294 5.83341 2.625V3.5H4.16675C3.50371 3.5 2.86782 3.77656 2.39898 4.26885C1.93014 4.76113 1.66675 5.42881 1.66675 6.125V16.625C1.66675 17.3212 1.93014 17.9889 2.39898 18.4812C2.86782 18.9734 3.50371 19.25 4.16675 19.25H15.8334C16.4965 19.25 17.1323 18.9734 17.6012 18.4812C18.07 17.9889 18.3334 17.3212 18.3334 16.625V6.125C18.3334 5.42881 18.07 4.76113 17.6012 4.26885C17.1323 3.77656 16.4965 3.5 15.8334 3.5ZM16.6667 16.625C16.6667 16.8571 16.579 17.0796 16.4227 17.2437C16.2664 17.4078 16.0544 17.5 15.8334 17.5H4.16675C3.94573 17.5 3.73377 17.4078 3.57749 17.2437C3.42121 17.0796 3.33341 16.8571 3.33341 16.625V10.5H16.6667V16.625ZM16.6667 8.75H3.33341V6.125C3.33341 5.89294 3.42121 5.67038 3.57749 5.50628C3.73377 5.34219 3.94573 5.25 4.16675 5.25H5.83341V6.125C5.83341 6.35707 5.92121 6.57962 6.07749 6.74372C6.23377 6.90781 6.44573 7 6.66675 7C6.88776 7 7.09972 6.90781 7.256 6.74372C7.41228 6.57962 7.50008 6.35707 7.50008 6.125V5.25H12.5001V6.125C12.5001 6.35707 12.5879 6.57962 12.7442 6.74372C12.9004 6.90781 13.1124 7 13.3334 7C13.5544 7 13.7664 6.90781 13.9227 6.74372C14.079 6.57962 14.1667 6.35707 14.1667 6.125V5.25H15.8334C16.0544 5.25 16.2664 5.34219 16.4227 5.50628C16.579 5.67038 16.6667 5.89294 16.6667 6.125V8.75Z" fill="black"/>
</g>
</svg>
