<svg width="20" height="20" viewBox="0 0 20 20" fill="none" xmlns="http://www.w3.org/2000/svg">
<g id="fluent:call-16-regular">
<g id="Group">
<path id="Vector" d="M4.64264 6.57233C4.40389 4.99983 5.51264 3.58733 7.20639 3.06983C7.50696 2.97793 7.83126 3.00409 8.11321 3.14298C8.39517 3.28186 8.61356 3.52303 8.72389 3.81733L9.26764 5.26733C9.35517 5.50059 9.371 5.7547 9.31309 5.99702C9.25519 6.23935 9.12618 6.45884 8.94264 6.62733L7.32514 8.10858C7.24541 8.18174 7.186 8.27432 7.1527 8.37728C7.1194 8.48025 7.11335 8.59008 7.13514 8.69608L7.15014 8.76108L7.18889 8.92358C7.39005 9.71313 7.69655 10.472 8.10014 11.1798C8.53978 11.932 9.08537 12.6169 9.72014 13.2136L9.77014 13.2586C9.85089 13.3303 9.94883 13.3798 10.0544 13.4024C10.16 13.4249 10.2696 13.4197 10.3726 13.3873L12.4639 12.7286C12.7016 12.654 12.9561 12.652 13.1949 12.7231C13.4336 12.7941 13.6457 12.9349 13.8039 13.1273L14.7939 14.3286C15.2064 14.8286 15.1564 15.5636 14.6826 16.0048C13.3864 17.2136 11.6039 17.4611 10.3639 16.4648C8.84393 15.2388 7.56258 13.7434 6.58389 12.0536C5.59725 10.365 4.93822 8.50536 4.64139 6.57233H4.64264ZM8.44639 8.77858L9.78639 7.54858C10.1537 7.21175 10.4119 6.77283 10.528 6.28817C10.644 5.80351 10.6126 5.29523 10.4376 4.82858L9.89514 3.37858C9.67307 2.78639 9.23356 2.30115 8.66616 2.02175C8.09876 1.74235 7.44618 1.68981 6.84139 1.87483C4.73764 2.51858 3.04889 4.40483 3.40639 6.76108C3.65639 8.40608 4.23264 10.4986 5.50389 12.6836C6.55978 14.5057 7.94196 16.118 9.58139 17.4398C11.4414 18.9336 13.9239 18.4236 15.5364 16.9211C16.4939 16.0286 16.5914 14.5461 15.7601 13.5361L14.7701 12.3336C14.4534 11.9492 14.0291 11.6681 13.5516 11.5265C13.0741 11.3848 12.5652 11.3891 12.0901 11.5386L10.3539 12.0848C9.9056 11.6226 9.51294 11.1095 9.18389 10.5561C8.86604 9.99653 8.61835 9.39995 8.44639 8.77983V8.77858Z" fill="#0373BB"/>
</g>
</g>
</svg>
