<svg width="13" height="13" viewBox="0 0 13 13" fill="none" xmlns="http://www.w3.org/2000/svg">
<g id="fluent:call-16-regular">
<g id="Group">
<path id="Vector" d="M3.01762 4.27211C2.86243 3.24999 3.58312 2.33186 4.68406 1.99549C4.87943 1.93575 5.09022 1.95276 5.27349 2.04303C5.45676 2.13331 5.59872 2.29006 5.67043 2.48136L6.02387 3.42386C6.08077 3.57548 6.09105 3.74065 6.05341 3.89816C6.01577 4.05567 5.93192 4.19834 5.81262 4.30786L4.76124 5.27067C4.70942 5.31823 4.6708 5.37841 4.64916 5.44533C4.62751 5.51226 4.62358 5.58365 4.63774 5.65255L4.64749 5.6948L4.67268 5.80042C4.80343 6.31364 5.00266 6.80692 5.26499 7.26699C5.55076 7.75587 5.90539 8.20108 6.31799 8.58892L6.35049 8.61817C6.40298 8.66476 6.46664 8.69696 6.53528 8.71163C6.60391 8.72629 6.67517 8.72293 6.74212 8.70186L8.10143 8.27367C8.25591 8.22517 8.42136 8.22393 8.57656 8.27011C8.73175 8.31629 8.8696 8.40779 8.97243 8.53286L9.61593 9.31367C9.88406 9.63867 9.85156 10.1164 9.54362 10.4032C8.70106 11.1889 7.54243 11.3498 6.73643 10.7022C5.74845 9.9053 4.91558 8.93334 4.27943 7.83492C3.63812 6.73735 3.20974 5.52858 3.01681 4.27211H3.01762ZM5.49006 5.70617L6.36106 4.90667C6.5998 4.68773 6.76766 4.40244 6.84308 4.08741C6.91851 3.77238 6.89807 3.442 6.78437 3.13867L6.43174 2.19617C6.2874 1.81125 6.00171 1.49585 5.63291 1.31424C5.2641 1.13263 4.83992 1.09847 4.44681 1.21874C3.07937 1.63717 1.98168 2.86324 2.21406 4.3948C2.37656 5.46405 2.75112 6.82417 3.57743 8.24442C4.26376 9.42881 5.16218 10.4768 6.22781 11.336C7.43681 12.3069 9.05043 11.9754 10.0986 10.9988C10.7209 10.4187 10.7843 9.45505 10.244 8.79855L9.60049 8.01692C9.39464 7.76706 9.11884 7.58439 8.80847 7.49232C8.4981 7.40025 8.1673 7.40299 7.85849 7.50017L6.72993 7.85524C6.43854 7.5548 6.18331 7.2213 5.96943 6.86155C5.76283 6.49784 5.60183 6.11007 5.49006 5.70699V5.70617Z" fill="#0373BB"/>
</g>
</g>
</svg>
