<svg width="16" height="16" viewBox="0 0 16 16" fill="none" xmlns="http://www.w3.org/2000/svg">
<g id="bxs:camera">
<path id="Vector" d="M7.99995 6.20007C7.02435 6.20007 6.19995 7.02447 6.19995 8.00007C6.19995 8.97567 7.02435 9.80007 7.99995 9.80007C8.97555 9.80007 9.79995 8.97567 9.79995 8.00007C9.79995 7.02447 8.97555 6.20007 7.99995 6.20007Z" fill="#0373BB"/>
<path id="Vector_2" d="M12.8 3.8H11.2484L9.6242 2.1758C9.56858 2.11998 9.50246 2.0757 9.42966 2.04553C9.35686 2.01536 9.27881 1.99989 9.2 2H6.8C6.72119 1.99989 6.64314 2.01536 6.57034 2.04553C6.49754 2.0757 6.43142 2.11998 6.3758 2.1758L4.7516 3.8H3.2C2.5382 3.8 2 4.3382 2 5V11.6C2 12.2618 2.5382 12.8 3.2 12.8H12.8C13.4618 12.8 14 12.2618 14 11.6V5C14 4.3382 13.4618 3.8 12.8 3.8ZM8 11C6.374 11 5 9.626 5 8C5 6.374 6.374 5 8 5C9.626 5 11 6.374 11 8C11 9.626 9.626 11 8 11Z" fill="#0373BB"/>
</g>
</svg>
