<svg width="47" height="47" viewBox="0 0 47 47" fill="none" xmlns="http://www.w3.org/2000/svg">
<g id="solar:camera-outline">
<path id="Vector" fill-rule="evenodd" clip-rule="evenodd" d="M14.8795 8.78704C15.4024 6.22163 17.6858 4.40625 20.3002 4.40625H26.7C29.3144 4.40625 31.5958 6.22163 32.1207 8.78704C32.1785 9.06954 32.3297 9.32435 32.55 9.51049C32.7702 9.69662 33.0466 9.80325 33.3348 9.81321H33.3995C36.147 9.93463 38.2581 10.2715 40.0206 11.4288C41.131 12.1573 42.0866 13.0934 42.8308 14.1881C43.7571 15.5472 44.1644 17.11 44.3602 18.9978C44.5522 20.8445 44.5522 23.1573 44.5522 26.087V26.2534C44.5522 29.1831 44.5522 31.4978 44.3602 33.3426C44.1644 35.2304 43.7571 36.7932 42.8308 38.1542C42.0843 39.2495 41.1294 40.1872 40.0206 40.9135C38.6439 41.8163 37.0635 42.2158 35.1482 42.4058C33.2722 42.5938 30.9202 42.5938 27.9318 42.5938H19.0684C16.08 42.5938 13.728 42.5938 11.8519 42.4058C9.93666 42.2158 8.35629 41.8183 6.97958 40.9135C5.87059 40.1866 4.91567 39.2483 4.16937 38.1523C3.24308 36.7932 2.83575 35.2304 2.63991 33.3426C2.448 31.4978 2.448 29.1831 2.448 26.2534V26.087C2.448 23.1573 2.448 20.8445 2.63991 18.9978C2.83575 17.11 3.24308 15.5472 4.16937 14.1881C4.91567 13.0921 5.87059 12.1538 6.97958 11.4269C8.74208 10.2715 10.8532 9.93463 13.6007 9.81517L13.634 9.81321H13.6653C13.9535 9.80325 14.23 9.69662 14.4502 9.51049C14.6704 9.32435 14.8216 9.06954 14.8795 8.78704ZM20.3002 7.34375C19.0468 7.34375 17.9952 8.21129 17.7582 9.37258C17.3764 11.2526 15.7079 12.7331 13.7006 12.7507C11.0607 12.8682 9.64683 13.1913 8.58933 13.8846C7.8038 14.4001 7.12713 15.0648 6.59771 15.841C6.05721 16.6341 5.73212 17.6505 5.55979 19.3013C5.38746 20.9777 5.3855 23.1397 5.3855 26.1712C5.3855 29.2027 5.3855 31.3627 5.56175 33.039C5.73212 34.6899 6.05721 35.7063 6.59966 36.5014C7.1245 37.273 7.80012 37.9388 8.59129 38.4558C9.40791 38.9924 10.4537 39.3155 12.1437 39.4839C13.8553 39.6543 16.0604 39.6562 19.1487 39.6562H27.8515C30.9378 39.6562 33.1429 39.6563 34.8565 39.4839C36.5465 39.3155 37.5922 38.9943 38.4089 38.4578C39.2 37.9388 39.8776 37.273 40.4025 36.4994C40.943 35.7063 41.268 34.6899 41.4404 33.039C41.6127 31.3627 41.6147 29.2007 41.6147 26.1712C41.6147 23.1397 41.6147 20.9777 41.4384 19.3013C41.268 17.6505 40.943 16.6341 40.4005 15.841C39.8717 15.0637 39.1949 14.3983 38.4089 13.8826C37.3553 13.1913 35.9414 12.8682 33.2976 12.7507C31.2923 12.7311 29.6238 11.2545 29.2419 9.37258C29.1166 8.79345 28.7952 8.27531 28.3321 7.90568C27.869 7.53604 27.2925 7.33756 26.7 7.34375H20.3002ZM23.5001 21.0521C22.3315 21.0521 21.2107 21.5163 20.3844 22.3426C19.5581 23.169 19.0938 24.2897 19.0938 25.4583C19.0938 26.6269 19.5581 27.7477 20.3844 28.574C21.2107 29.4004 22.3315 29.8646 23.5001 29.8646C24.6687 29.8646 25.7894 29.4004 26.6158 28.574C27.4421 27.7477 27.9063 26.6269 27.9063 25.4583C27.9063 24.2897 27.4421 23.169 26.6158 22.3426C25.7894 21.5163 24.6687 21.0521 23.5001 21.0521ZM16.1563 25.4583C16.1563 23.5107 16.93 21.6427 18.3073 20.2655C19.6845 18.8883 21.5524 18.1146 23.5001 18.1146C25.4478 18.1146 27.3157 18.8883 28.6929 20.2655C30.0701 21.6427 30.8438 23.5107 30.8438 25.4583C30.8438 27.406 30.0701 29.2739 28.6929 30.6511C27.3157 32.0284 25.4478 32.8021 23.5001 32.8021C21.5524 32.8021 19.6845 32.0284 18.3073 30.6511C16.93 29.2739 16.1563 27.406 16.1563 25.4583ZM33.7813 19.5833C33.7813 19.1938 33.9361 18.8202 34.2115 18.5448C34.487 18.2693 34.8605 18.1146 35.2501 18.1146H37.2084C37.5979 18.1146 37.9715 18.2693 38.247 18.5448C38.5224 18.8202 38.6772 19.1938 38.6772 19.5833C38.6772 19.9729 38.5224 20.3465 38.247 20.6219C37.9715 20.8973 37.5979 21.0521 37.2084 21.0521H35.2501C34.8605 21.0521 34.487 20.8973 34.2115 20.6219C33.9361 20.3465 33.7813 19.9729 33.7813 19.5833Z" fill="#455A64" fill-opacity="0.39"/>
</g>
</svg>
