<svg width="22" height="22" viewBox="0 0 22 22" fill="none" xmlns="http://www.w3.org/2000/svg">
<g id="radix-icons:cross-2">
<path id="Vector" fill-rule="evenodd" clip-rule="evenodd" d="M17.2803 5.91354C17.3587 5.83524 17.4209 5.74228 17.4633 5.63994C17.5058 5.53761 17.5277 5.42791 17.5277 5.31712C17.5278 5.20633 17.5061 5.09661 17.4637 4.99422C17.4214 4.89184 17.3593 4.79879 17.281 4.7204C17.2027 4.64201 17.1097 4.57981 17.0074 4.53735C16.9051 4.49489 16.7954 4.473 16.6846 4.47293C16.5738 4.47286 16.4641 4.49462 16.3617 4.53695C16.2593 4.57929 16.1663 4.64138 16.0879 4.71967L11 9.80754L5.9136 4.71967C5.75528 4.56135 5.54056 4.47241 5.31666 4.47241C5.09277 4.47241 4.87805 4.56135 4.71973 4.71967C4.56141 4.87799 4.47247 5.09271 4.47247 5.3166C4.47247 5.5405 4.56141 5.75522 4.71973 5.91354L9.8076 10.9999L4.71973 16.0863C4.64134 16.1647 4.57916 16.2578 4.53673 16.3602C4.49431 16.4626 4.47247 16.5724 4.47247 16.6833C4.47247 16.7941 4.49431 16.9039 4.53673 17.0063C4.57916 17.1087 4.64134 17.2018 4.71973 17.2802C4.87805 17.4385 5.09277 17.5275 5.31666 17.5275C5.42753 17.5275 5.5373 17.5056 5.63972 17.4632C5.74214 17.4208 5.83521 17.3586 5.9136 17.2802L11 12.1923L16.0879 17.2802C16.2462 17.4383 16.4608 17.5271 16.6846 17.5269C16.9083 17.5268 17.1229 17.4378 17.281 17.2795C17.4391 17.1212 17.5279 16.9065 17.5277 16.6828C17.5276 16.459 17.4386 16.2445 17.2803 16.0863L12.1924 10.9999L17.2803 5.91354Z" fill="white"/>
</g>
</svg>
