<svg width="52" height="52" viewBox="0 0 52 52" fill="none" xmlns="http://www.w3.org/2000/svg">
<g id="bx:bxs-car">
<path id="Vector" d="M45.0059 22.0025L42.0419 13.1105C41.6119 11.8158 40.7849 10.6896 39.6783 9.89189C38.5718 9.09414 37.2419 8.66542 35.8778 8.66663H16.1221C14.7579 8.66542 13.4281 9.09414 12.3215 9.89189C11.2149 10.6896 10.3879 11.8158 9.95792 13.1105L6.99392 22.0025C6.20573 22.3323 5.53263 22.8877 5.05923 23.599C4.58583 24.3102 4.33325 25.1456 4.33325 26V36.8333C4.33325 38.4323 5.20859 39.8146 6.49992 40.5665V45.5C6.49992 46.0746 6.72819 46.6257 7.13452 47.032C7.54085 47.4384 8.09195 47.6666 8.66659 47.6666H10.8333C11.4079 47.6666 11.959 47.4384 12.3653 47.032C12.7716 46.6257 12.9999 46.0746 12.9999 45.5V41.1666H38.9999V45.5C38.9999 46.0746 39.2282 46.6257 39.6345 47.032C40.0408 47.4384 40.5919 47.6666 41.1666 47.6666H43.3333C43.9079 47.6666 44.459 47.4384 44.8653 47.032C45.2716 46.6257 45.4999 46.0746 45.4999 45.5V40.5665C46.1573 40.1895 46.7037 39.6459 47.084 38.9905C47.4644 38.3351 47.6653 37.5911 47.6666 36.8333V26C47.6666 25.1456 47.414 24.3102 46.9406 23.599C46.4672 22.8877 45.7941 22.3323 45.0059 22.0025ZM16.1221 13H35.8756C36.8094 13 37.6371 13.5936 37.9318 14.482L40.3281 21.6666H11.6718L14.0659 14.482C14.2097 14.0503 14.4856 13.6749 14.8547 13.4089C15.2237 13.1429 15.6672 12.9999 16.1221 13ZM11.9166 34.6666C11.4896 34.6665 11.0669 34.5823 10.6725 34.4187C10.2781 34.2552 9.91983 34.0156 9.61804 33.7136C9.31625 33.4117 9.0769 33.0532 8.91365 32.6587C8.75039 32.2642 8.66644 31.8414 8.66659 31.4145C8.66673 30.9875 8.75096 30.5648 8.91447 30.1704C9.07799 29.776 9.31758 29.4177 9.61957 29.1159C9.92156 28.8141 10.28 28.5748 10.6745 28.4115C11.069 28.2483 11.4918 28.1643 11.9188 28.1645C12.781 28.1647 13.6078 28.5075 14.2173 29.1174C14.8268 29.7273 15.169 30.5544 15.1688 31.4166C15.1685 32.2789 14.8257 33.1057 14.2158 33.7152C13.6059 34.3247 12.7788 34.6669 11.9166 34.6666ZM40.0833 34.6666C39.6563 34.6665 39.2336 34.5823 38.8392 34.4187C38.4448 34.2552 38.0865 34.0156 37.7847 33.7136C37.4829 33.4117 37.2436 33.0532 37.0803 32.6587C36.9171 32.2642 36.8331 31.8414 36.8333 31.4145C36.8334 30.9875 36.9176 30.5648 37.0811 30.1704C37.2447 29.776 37.4842 29.4177 37.7862 29.1159C38.0882 28.8141 38.4467 28.5748 38.8412 28.4115C39.2357 28.2483 39.6585 28.1643 40.0854 28.1645C40.9477 28.1647 41.7745 28.5075 42.384 29.1174C42.9935 29.7273 43.3357 30.5544 43.3354 31.4166C43.3351 32.2789 42.9923 33.1057 42.3824 33.7152C41.7725 34.3247 40.9455 34.6669 40.0833 34.6666Z" fill="#0373BB"/>
</g>
</svg>
