<svg width="18" height="18" viewBox="0 0 18 18" fill="none" xmlns="http://www.w3.org/2000/svg">
<g id="Group">
<path id="Vector" d="M14.5385 12.0769H15.7692C16.0957 12.0769 16.4087 11.9472 16.6395 11.7164C16.8703 11.4856 17 11.1726 17 10.8461V9C17 8.67357 16.8703 8.36052 16.6395 8.12971C16.4087 7.8989 16.0957 7.76923 15.7692 7.76923H14.5385C14.3753 7.76923 14.2187 7.83406 14.1033 7.94947C13.9879 8.06488 13.9231 8.2214 13.9231 8.38461V11.4615C13.9231 11.6247 13.9879 11.7813 14.1033 11.8967C14.2187 12.0121 14.3753 12.0769 14.5385 12.0769ZM14.5385 12.0769V13C14.5385 13.6528 14.2791 14.2789 13.8175 14.7406C13.3559 15.2022 12.7298 15.4615 12.0769 15.4615M2.23077 7.76923H3.46154C3.62475 7.76923 3.78127 7.83406 3.89668 7.94947C4.01209 8.06488 4.07692 8.2214 4.07692 8.38461V11.4615C4.07692 11.6247 4.01209 11.7813 3.89668 11.8967C3.78127 12.0121 3.62475 12.0769 3.46154 12.0769H2.23077C1.90435 12.0769 1.5913 11.9472 1.36048 11.7164C1.12967 11.4856 1 11.1726 1 10.8461V9C1 8.67357 1.12967 8.36052 1.36048 8.12971C1.5913 7.8989 1.90435 7.76923 2.23077 7.76923Z" stroke="#0373BB" stroke-linecap="round" stroke-linejoin="round"/>
<path id="Vector_2" d="M3.46155 7.76923V6.53846C3.46155 5.06957 4.04506 3.66084 5.08373 2.62218C6.12239 1.58351 7.53112 1 9.00001 1C10.4689 1 11.8776 1.58351 12.9163 2.62218C13.955 3.66084 14.5385 5.06957 14.5385 6.53846V7.76923M7.15386 5.30769V7.15385M10.8462 5.30769V7.15385M7.15386 9.61538C7.15386 11.2523 10.8462 11.2523 10.8462 9.61538M10.5385 13.9231C10.9465 13.9231 11.3378 14.0852 11.6263 14.3737C11.9148 14.6622 12.0769 15.0535 12.0769 15.4615C12.0769 15.8696 11.9148 16.2609 11.6263 16.5494C11.3378 16.8379 10.9465 17 10.5385 17H8.69232C8.28429 17 7.89298 16.8379 7.60446 16.5494C7.31594 16.2609 7.15386 15.8696 7.15386 15.4615C7.15386 15.0535 7.31594 14.6622 7.60446 14.3737C7.89298 14.0852 8.28429 13.9231 8.69232 13.9231H10.5385Z" stroke="#0373BB" stroke-linecap="round" stroke-linejoin="round"/>
</g>
</svg>
