<svg width="17" height="17" viewBox="0 0 17 17" fill="none" xmlns="http://www.w3.org/2000/svg">
<rect width="17" height="17" fill="#575757"/>
<g id="42_Vehicle_details" clip-path="url(#clip0_0_1)">
<rect width="414" height="1604" transform="translate(-46 -935)" fill="#F5F6FC"/>
<rect id="Rectangle 346" x="-28" y="-320" width="382" height="431" rx="14" fill="white"/>
<g id="Group 702">
<g id="Group 701">
<rect id="Rectangle 357" x="-14" y="-14" width="44" height="44" rx="10" fill="#EBEBEB"/>
</g>
<path id="Vector" d="M15.1111 10.3889H13.2222V8.5H15.1111V10.3889ZM16.0556 15.1111V17H12.2778V15.1111H13.2222V13.2222H12.2778V11.3333H15.1111V15.1111H16.0556ZM15.0356 0.944454C14.9376 0.667369 14.7559 0.427609 14.5156 0.258392C14.2753 0.0891748 13.9883 -0.00112242 13.6944 1.05322e-05H3.30556C3.01166 -0.00112242 2.7247 0.0891748 2.48441 0.258392C2.24412 0.427609 2.06241 0.667369 1.96444 0.944454L0 6.61112V14.1667C0 14.4172 0.0995036 14.6574 0.276621 14.8345C0.453739 15.0116 0.693962 15.1111 0.944444 15.1111H1.88889C2.13937 15.1111 2.37959 15.0116 2.55671 14.8345C2.73383 14.6574 2.83333 14.4172 2.83333 14.1667V13.2222H7.55556C7.55556 11.4689 8.25208 9.78729 9.49191 8.54747C10.7317 7.30764 12.4133 6.61112 14.1667 6.61112C15.1476 6.60729 16.1166 6.82692 17 7.25334V6.61112L15.0356 0.944454ZM3.30556 10.3889C3.02537 10.3889 2.75147 10.3058 2.5185 10.1501C2.28553 9.99448 2.10395 9.77322 1.99673 9.51436C1.8895 9.2555 1.86145 8.97065 1.91611 8.69585C1.97077 8.42104 2.1057 8.16862 2.30382 7.97049C2.50195 7.77237 2.75437 7.63744 3.02918 7.58278C3.30398 7.52812 3.58883 7.55617 3.84769 7.6634C4.10655 7.77062 4.32781 7.9522 4.48347 8.18517C4.63914 8.41814 4.72222 8.69204 4.72222 8.97223C4.72222 9.34795 4.57297 9.70828 4.30729 9.97396C4.04161 10.2396 3.68128 10.3889 3.30556 10.3889ZM1.88889 5.66667L3.30556 1.41668H13.6944L15.1111 5.66667H1.88889Z" fill="#0373BB"/>
</g>
</g>
<defs>
<clipPath id="clip0_0_1">
<rect width="414" height="1604" fill="white" transform="translate(-46 -935)"/>
</clipPath>
</defs>
</svg>
