<svg width="17" height="20" viewBox="0 0 17 20" fill="none" xmlns="http://www.w3.org/2000/svg">
<path d="M8.83948 1.55092C8.83948 1.36622 8.7661 1.18908 8.6355 1.05847C8.50489 0.927866 8.32775 0.854492 8.14305 0.854492C7.95834 0.854492 7.78121 0.927866 7.6506 1.05847C7.51999 1.18908 7.44662 1.36622 7.44662 1.55092V2.71442H5.58948C5.1585 2.71442 4.74518 2.88563 4.44043 3.19037C4.13568 3.49512 3.96448 3.90844 3.96448 4.33942V6.34049C5.37591 6.21235 6.75019 7.30249 6.75019 8.88756V18.7323C6.75019 18.7564 6.75019 18.7806 6.74833 18.8047V19.4287H9.53405V18.268H9.53591V11.3037C9.53591 10.6265 9.80494 9.97695 10.2838 9.49806C10.7627 9.01917 11.4122 8.75014 12.0895 8.75014H12.3216V4.33942C12.3216 3.90844 12.1504 3.49512 11.8457 3.19037C11.5409 2.88563 11.1276 2.71442 10.6966 2.71442H8.83948V1.55092Z" fill="#0373BB"/>
<path d="M10.4626 19.4287H14.4109C14.8419 19.4287 15.2552 19.2575 15.56 18.9528C15.8647 18.648 16.0359 18.2347 16.0359 17.8037V11.3037C16.0359 10.8727 15.8647 10.4594 15.56 10.1547C15.2552 9.84992 14.8419 9.67871 14.4109 9.67871H12.0895C11.6585 9.67871 11.2452 9.84992 10.9405 10.1547C10.6357 10.4594 10.4645 10.8727 10.4645 11.3037V18.268H10.4626V19.4287Z" fill="#0373BB"/>
<path d="M5.82167 18.2681H5.81982V19.4288H1.87524C1.44427 19.4288 1.03094 19.2576 0.726196 18.9528C0.421449 18.6481 0.250244 18.2348 0.250244 17.8038V10.4123C0.250244 9.86449 0.52603 9.35377 0.983816 9.05384L3.30524 7.53006C4.38517 6.8197 5.82167 7.59506 5.82167 8.88763V18.2681Z" fill="#0373BB"/>
</svg>
