<svg width="21" height="21" viewBox="0 0 21 21" fill="none" xmlns="http://www.w3.org/2000/svg">
<path d="M10.5 19.6875L4.96388 13.1585C4.88696 13.0604 4.81083 12.9618 4.73551 12.8625C3.78984 11.6168 3.27897 10.0952 3.28126 8.53125C3.28126 6.61672 4.0418 4.7806 5.39558 3.42682C6.74936 2.07304 8.58548 1.3125 10.5 1.3125C12.4145 1.3125 14.2507 2.07304 15.6044 3.42682C16.9582 4.7806 17.7188 6.61672 17.7188 8.53125C17.721 10.0945 17.2104 11.6154 16.2652 12.8605L16.2645 12.8625C16.2645 12.8625 16.0676 13.1211 16.0381 13.1558L10.5 19.6875ZM5.78288 12.0717C5.7842 12.0717 5.93644 12.2738 5.97123 12.3172L10.5 17.6584L15.0347 12.3099C15.0636 12.2738 15.2171 12.0704 15.2178 12.0697C15.9903 11.052 16.4078 9.80899 16.4063 8.53125C16.4063 6.96482 15.784 5.46254 14.6764 4.3549C13.5687 3.24726 12.0664 2.625 10.5 2.625C8.93357 2.625 7.43129 3.24726 6.32366 4.3549C5.21602 5.46254 4.59376 6.96482 4.59376 8.53125C4.59238 9.80978 5.01033 11.0535 5.78354 12.0717H5.78288Z" fill="#0373BB"/>
<path d="M13.7812 11.8125H12.4688V6.5625H8.53125V11.8125H7.21875V6.5625C7.2191 6.21451 7.35749 5.88087 7.60356 5.63481C7.84962 5.38874 8.18326 5.25035 8.53125 5.25H12.4688C12.8167 5.25035 13.1504 5.38874 13.3964 5.63481C13.6425 5.88087 13.7809 6.21451 13.7812 6.5625V11.8125Z" fill="#0373BB"/>
<path d="M9.84375 10.5H11.1562V11.8125H9.84375V10.5Z" fill="#0373BB"/>
<path d="M9.84375 7.875H11.1562V9.1875H9.84375V7.875Z" fill="#0373BB"/>
</svg>
