<svg width="17" height="15" viewBox="0 0 17 15" fill="none" xmlns="http://www.w3.org/2000/svg">
<g id="Frame" clip-path="url(#clip0_83_158)">
<g id="Group">
<path id="Vector" d="M8.49821 4.58191C10.6962 4.58191 12.4783 6.38914 12.4783 8.61805C12.4783 10.3757 11.3706 11.8746 9.82257 12.4274C9.41023 12.5762 8.96296 12.6577 8.49821 12.6577C8.03346 12.6577 7.58968 12.5762 7.17385 12.4274C5.62586 11.8746 4.51815 10.3792 4.51815 8.61805C4.51815 6.39268 6.30027 4.58191 8.49821 4.58191ZM6.93624 9.1992C7.21578 9.20275 7.49533 9.20275 7.77488 9.1992C7.89369 9.19566 7.94261 9.24173 7.93911 9.36221C7.93213 9.51813 7.93911 9.67404 7.93911 9.82642H7.94261C7.94261 9.97879 7.93911 10.1276 7.94261 10.2765C7.95309 10.5812 8.1977 10.8151 8.49821 10.8186C8.79872 10.8222 9.05032 10.5918 9.0608 10.2871C9.07128 9.98233 9.06779 9.67759 9.06429 9.37284C9.0608 9.24881 9.10623 9.1992 9.23202 9.1992C9.53254 9.20275 9.83654 9.20629 10.1371 9.19566C10.4131 9.18503 10.6298 8.96887 10.6612 8.69247C10.6892 8.42316 10.5249 8.16447 10.2733 8.08652C10.2 8.06171 10.1266 8.06171 10.0532 8.06171C9.77714 8.06171 9.50109 8.05817 9.22853 8.06171C9.10972 8.06525 9.06429 8.01564 9.06779 7.89871C9.07128 7.5975 9.07128 7.2963 9.06779 6.99509C9.06429 6.74704 8.90705 6.54151 8.67642 6.4671C8.45278 6.39623 8.21167 6.47064 8.06491 6.65491C7.98105 6.75767 7.9461 6.87815 7.9461 7.01281C7.9461 7.30338 7.94261 7.5975 7.9461 7.88808C7.9496 8.01564 7.89718 8.06171 7.77488 8.05817C7.49533 8.05462 7.21578 8.05462 6.93624 8.05817C6.58331 8.06171 6.34569 8.29559 6.34919 8.62868C6.3422 8.96533 6.58331 9.1992 6.93624 9.1992Z" fill="#0373BB"/>
<g id="Group_2">
<path id="Vector_2" d="M8.49822 2.30334C11.9332 2.30334 14.7286 5.13821 14.7286 8.62156C14.7286 10.7406 13.6943 12.6223 12.1079 13.7668L10.8779 13.0475C12.4224 12.1899 13.4707 10.528 13.4707 8.62156C13.4707 5.83984 11.2413 3.57904 8.49822 3.57904C5.75515 3.57904 3.52576 5.83984 3.52576 8.62156C3.52576 10.528 4.57407 12.1899 6.11857 13.0475L4.88856 13.7668C3.30562 12.6187 2.2678 10.7406 2.2678 8.62156C2.2678 5.13467 5.06327 2.30334 8.49822 2.30334Z" fill="#0373BB"/>
</g>
<g id="Group_3">
<path id="Vector_3" d="M2.48798 2.52658C4.09538 0.900071 6.22693 0 8.49825 0C10.7696 0 12.9046 0.896527 14.5085 2.52658C16.1124 4.15663 17 6.31821 17 8.62155C17 10.9249 16.1159 13.09 14.5085 14.7165C14.4107 14.8157 14.3163 14.9079 14.215 15L13.0584 14.3232C14.6937 12.9731 15.742 10.9178 15.742 8.62155C15.742 4.57123 12.4923 1.27569 8.49825 1.27569C4.50421 1.27569 1.25447 4.57123 1.25447 8.62155C1.25447 10.9213 2.30278 12.9766 3.93813 14.3232L2.7815 15C2.68017 14.9079 2.58232 14.8122 2.48798 14.7165C0.880577 13.0865 -0.00349426 10.9249 -0.00349426 8.62155C-0.00349426 6.31821 0.884071 4.15308 2.48798 2.52658Z" fill="#0373BB"/>
</g>
<path id="Vector_4" d="M7.17392 12.4274C7.58974 12.5762 8.03353 12.6577 8.49827 12.6577C8.96302 12.6577 9.4068 12.5762 9.82263 12.4274L8.49827 11.6514L7.17392 12.4274Z" fill="#0373BB"/>
</g>
</g>
<defs>
<clipPath id="clip0_83_158">
<rect width="17" height="15" fill="white" transform="matrix(-1 0 0 1 17 0)"/>
</clipPath>
</defs>
</svg>
