<svg width="16" height="17" viewBox="0 0 16 17" fill="none" xmlns="http://www.w3.org/2000/svg">
<g id="Group">
<path id="Vector" d="M5.74259 9.96756C5.5053 9.68512 5.30191 9.41098 5.16632 9.087C5.43751 9.17007 5.70022 9.26976 5.9714 9.32791C6.24259 9.38606 6.53073 9.39437 6.82734 9.4276C6.94598 9.62697 7.14937 9.75988 7.42056 9.75988C7.74259 9.75988 8.03073 9.52728 8.09005 9.21161C8.14937 8.88763 7.95446 8.56365 7.63242 8.46396C7.32734 8.36428 6.97141 8.48888 6.82734 8.77963C6.77649 8.87932 6.71717 8.90424 6.607 8.90424C5.88666 8.87101 5.23412 8.64672 4.70869 8.1566C4.38666 7.85754 4.22564 7.45879 4.107 7.05174C3.99683 6.69453 3.98835 6.32901 4.05615 5.9635C4.08157 5.83889 4.13242 5.72259 4.28496 5.68936C4.31886 5.68105 4.34428 5.59798 4.34428 5.53983C4.35276 5.17432 4.35276 4.8088 4.35276 4.44328C4.35276 4.003 4.41208 3.57103 4.59005 3.15567C4.92056 2.3831 5.49683 1.86806 6.31039 1.63545C7.1748 1.39455 8.0392 1.39455 8.89514 1.67699C9.86971 2.00097 10.4375 2.69877 10.6409 3.67902C10.7172 4.02792 10.7087 4.39344 10.7172 4.75896C10.7256 5.01648 10.7256 5.28231 10.7256 5.53983C10.7256 5.6229 10.7256 5.68936 10.8443 5.71428C10.9629 5.7392 10.9968 5.8555 11.0223 5.95519C11.107 6.39547 11.0646 6.82745 10.9121 7.25111C10.7595 7.66647 10.5307 8.03199 10.2256 8.35597C10.1917 8.3892 10.1578 8.43904 10.1409 8.48888C9.99683 9.01224 9.75954 9.49405 9.39514 9.90941C9.38666 9.91772 9.37819 9.93433 9.36124 9.96756C9.54768 10.0756 9.72565 10.1835 9.91209 10.2749C10.7511 10.6654 11.5901 11.0392 12.4206 11.4296C12.768 11.5875 13.1155 11.7453 13.429 11.953C13.8443 12.2271 14.107 12.6425 14.3358 13.0745C14.7934 13.9384 15.0562 14.8522 15.0901 15.8241C15.0901 15.9072 15.0646 15.9487 14.9884 15.9737C14.3443 16.2478 13.6748 16.4139 12.9884 16.5469C12.1155 16.713 11.2256 16.8127 10.3443 16.8874C9.08158 16.9871 7.81886 17.0287 6.55615 16.9788C5.54768 16.9373 4.54767 16.8625 3.54767 16.7628C2.49682 16.6548 1.45445 16.4721 0.454451 16.1149C0.395128 16.09 0.327332 16.065 0.26801 16.0401C-0.00317697 15.9321 -0.0116515 15.9321 0.00529763 15.6497C0.0900435 14.5033 0.437501 13.44 1.11547 12.4846C1.42903 12.0527 1.85276 11.7785 2.34428 11.5625C3.18327 11.197 4.02225 10.8232 4.85276 10.4411C5.15784 10.2998 5.43751 10.1337 5.74259 9.96756Z" fill="#0373BB"/>
<path id="Vector_2" d="M12.141 5.23252C12.1156 3.52124 11.4291 2.15886 9.9376 1.25338C8.3359 0.281436 6.36133 0.364508 4.85285 1.46106C3.56471 2.39146 2.97149 3.67077 2.97149 5.23252C3.03929 5.24083 3.08166 5.24083 3.12403 5.24913C3.41217 5.29898 3.62404 5.50666 3.63251 5.83064C3.64946 6.40383 3.66641 6.98534 3.62404 7.55853C3.59014 8.02373 3.22573 8.17326 2.91217 8.12342C2.68336 8.08188 2.45454 8.03204 2.2681 7.89082C2.10708 7.76621 2.02234 7.60007 2.02234 7.39239C2.02234 6.92719 2.02234 6.45368 2.02234 5.98847C2.02234 5.76418 2.13251 5.58973 2.31047 5.44851C2.35285 5.42358 2.38675 5.35713 2.38675 5.31559C2.3359 3.98644 2.74268 2.80682 3.61556 1.79334C4.46302 0.804788 5.55624 0.214978 6.85285 0.0488345C8.4715 -0.158845 9.89523 0.29805 11.0986 1.37798C11.98 2.17547 12.4969 3.17234 12.6664 4.33534C12.7173 4.65102 12.7088 4.96669 12.7173 5.28236C12.7173 5.35713 12.7257 5.40697 12.7935 5.45681C12.9715 5.57311 13.0817 5.74756 13.0817 5.95524C13.0901 6.43706 13.0901 6.92719 13.0817 7.409C13.0732 7.67483 12.9291 7.88251 12.6749 7.97389C12.4715 8.04866 12.2512 8.10681 12.0393 8.11511C11.7342 8.14003 11.4715 7.8742 11.463 7.517C11.4461 6.95211 11.4461 6.39552 11.463 5.83064C11.48 5.48173 11.7088 5.29067 12.141 5.23252Z" fill="#0373BB"/>
</g>
</svg>
