<svg width="20" height="18" viewBox="0 0 20 18" fill="none" xmlns="http://www.w3.org/2000/svg">
<g id="Group">
<path id="Vector" d="M7.75 0C7.94891 0 8.13968 0.0790175 8.28033 0.21967C8.42098 0.360322 8.5 0.551088 8.5 0.75V2H10.5V0.75C10.5 0.551088 10.579 0.360322 10.7197 0.21967C10.8603 0.0790175 11.0511 0 11.25 0C11.4489 0 11.6397 0.0790175 11.7803 0.21967C11.921 0.360322 12 0.551088 12 0.75V2H14.75C14.8998 2.00003 15.0461 2.04492 15.1702 2.12886C15.2942 2.21281 15.3903 2.33197 15.446 2.471L16.258 4.5H17.25C17.9793 4.5 18.6788 4.78973 19.1945 5.30546C19.7103 5.82118 20 6.52065 20 7.25V12.75C20 13.4793 19.7103 14.1788 19.1945 14.6945C18.6788 15.2103 17.9793 15.5 17.25 15.5H16.258L15.446 17.529C15.3903 17.668 15.2942 17.7872 15.1702 17.8711C15.0461 17.9551 14.8998 18 14.75 18H7.25C7.14722 18 7.04555 17.9789 6.95128 17.9379C6.85701 17.897 6.77216 17.8371 6.702 17.762L3.74 14.588C3.26467 14.0789 3.0002 13.4085 3 12.712V9.5H1.5V13.25C1.5 13.4489 1.42098 13.6397 1.28033 13.7803C1.13968 13.921 0.948912 14 0.75 14C0.551088 14 0.360322 13.921 0.21967 13.7803C0.0790175 13.6397 4.19177e-09 13.4489 0 13.25V4.75C4.19176e-09 4.55109 0.0790175 4.36032 0.21967 4.21967C0.360322 4.07902 0.551088 4 0.75 4C0.948912 4 1.13968 4.07902 1.28033 4.21967C1.42098 4.36032 1.5 4.55109 1.5 4.75V8H3V4.75C3 4.02065 3.28973 3.32118 3.80546 2.80546C4.32118 2.28973 5.02065 2 5.75 2H7V0.75C7 0.551088 7.07902 0.360322 7.21967 0.21967C7.36032 0.0790175 7.55109 0 7.75 0ZM8.5 6.75C8.5 6.55109 8.42098 6.36032 8.28033 6.21967C8.13968 6.07902 7.94891 6 7.75 6C7.55109 6 7.36032 6.07902 7.21967 6.21967C7.07902 6.36032 7 6.55109 7 6.75V9.25C7 9.97935 7.28973 10.6788 7.80546 11.1945C8.32118 11.7103 9.02065 12 9.75 12H16.25C16.4489 12 16.6397 11.921 16.7803 11.7803C16.921 11.6397 17 11.4489 17 11.25C17 11.0511 16.921 10.8603 16.7803 10.7197C16.6397 10.579 16.4489 10.5 16.25 10.5H12V6.75C12 6.55109 11.921 6.36032 11.7803 6.21967C11.6397 6.07902 11.4489 6 11.25 6C11.0511 6 10.8603 6.07902 10.7197 6.21967C10.579 6.36032 10.5 6.55109 10.5 6.75V10.5H9.75C9.06 10.5 8.5 9.94 8.5 9.25V6.75Z" fill="#0373BB"/>
</g>
</svg>
