<svg width="26" height="26" viewBox="0 0 26 26" fill="none" xmlns="http://www.w3.org/2000/svg">
<g id="iconamoon:heart-fill">
<path id="Vector" fill-rule="evenodd" clip-rule="evenodd" d="M5.15365 6.23697C6.24954 5.14146 7.70065 4.47333 9.24552 4.35297C10.7904 4.2326 12.3275 4.66792 13.5798 5.58047C14.9028 4.62327 16.5376 4.19892 18.1591 4.39177C19.7807 4.58462 21.2703 5.38055 22.3319 6.62135C23.3935 7.86216 23.9493 9.45699 23.8889 11.0888C23.8286 12.7207 23.1564 14.2701 22.006 15.4291L15.8776 21.5575C15.2681 22.1668 14.4416 22.509 13.5798 22.509C12.718 22.509 11.8915 22.1668 11.2821 21.5575L5.15365 15.4301C3.93476 14.2112 3.25 12.5579 3.25 10.8341C3.25 9.11027 3.93476 7.45595 5.15365 6.23697Z" fill="#A5A5A5"/>
</g>
</svg>
