<svg width="17" height="17" viewBox="0 0 17 17" fill="none" xmlns="http://www.w3.org/2000/svg">
<path id="Vector" d="M16.0556 3.77778H15.1111V0.944444C15.1111 0.693962 15.0116 0.453739 14.8345 0.276621C14.6574 0.0995036 14.4171 0 14.1667 0C13.9162 0 13.676 0.0995036 13.4988 0.276621C13.3217 0.453739 13.2222 0.693962 13.2222 0.944444V3.77778C13.2222 4.27874 13.4212 4.75919 13.7755 5.11342C14.1297 5.46766 14.6101 5.66667 15.1111 5.66667V13.6944C15.1111 13.8197 15.0614 13.9398 14.9728 14.0284C14.8842 14.1169 14.7641 14.1667 14.6389 14.1667C14.5136 14.1667 14.3935 14.1169 14.305 14.0284C14.2164 13.9398 14.1667 13.8197 14.1667 13.6944V10.3889C14.1667 9.63744 13.8682 8.91677 13.3368 8.38542C12.8054 7.85407 12.0848 7.55556 11.3333 7.55556V1.88889C11.3333 1.38792 11.1343 0.907478 10.7801 0.553243C10.4259 0.199007 9.94541 0 9.44444 0H1.88889C1.38792 0 0.907478 0.199007 0.553243 0.553243C0.199007 0.907478 0 1.38792 0 1.88889V15.1111C0 15.6121 0.199007 16.0925 0.553243 16.4468C0.907478 16.801 1.38792 17 1.88889 17H9.44444C9.94541 17 10.4259 16.801 10.7801 16.4468C11.1343 16.0925 11.3333 15.6121 11.3333 15.1111V9.44444C11.5838 9.44444 11.824 9.54395 12.0012 9.72107C12.1783 9.89818 12.2778 10.1384 12.2778 10.3889V13.6944C12.2778 14.3207 12.5265 14.9212 12.9693 15.364C13.4121 15.8068 14.0127 16.0556 14.6389 16.0556C15.2651 16.0556 15.8657 15.8068 16.3084 15.364C16.7512 14.9212 17 14.3207 17 13.6944V4.72222C17 4.47174 16.9005 4.23152 16.7234 4.0544C16.5463 3.87728 16.306 3.77778 16.0556 3.77778ZM9.44444 6.61111C9.44695 6.73266 9.42548 6.85352 9.38127 6.96677C9.33706 7.08003 9.27097 7.18346 9.18677 7.27117C9.10257 7.35887 9.00192 7.42913 8.89056 7.47792C8.77921 7.52672 8.65933 7.5531 8.53778 7.55556H2.87111C2.7446 7.55806 2.61883 7.53562 2.50099 7.4895C2.38316 7.44339 2.27556 7.37452 2.18435 7.28681C2.09313 7.19911 2.02009 7.09429 1.9694 6.97835C1.9187 6.86242 1.89135 6.73763 1.88889 6.61111V3.77778C1.88889 3.5273 1.98839 3.28707 2.16551 3.10995C2.34263 2.93284 2.58285 2.83333 2.83333 2.83333H8.5C8.75048 2.83333 8.9907 2.93284 9.16782 3.10995C9.34494 3.28707 9.44444 3.5273 9.44444 3.77778V6.61111Z" fill="#0373BB"/>
</svg>
