<svg width="18" height="18" viewBox="0 0 18 18" fill="none" xmlns="http://www.w3.org/2000/svg">
<g id="Group">
<path id="Vector" d="M1 4.2C1 3.35131 1.33714 2.53737 1.93726 1.93726C2.53737 1.33714 3.35131 1 4.2 1H13.8C14.6487 1 15.4626 1.33714 16.0627 1.93726C16.6629 2.53737 17 3.35131 17 4.2V13.8C17 14.6487 16.6629 15.4626 16.0627 16.0627C15.4626 16.6629 14.6487 17 13.8 17H4.2C3.35131 17 2.53737 16.6629 1.93726 16.0627C1.33714 15.4626 1 14.6487 1 13.8V4.2Z" stroke="#455A64" stroke-linecap="round" stroke-linejoin="round"/>
<path id="Vector_2" d="M6.19971 8.19995C7.30428 8.19995 8.19971 7.30452 8.19971 6.19995C8.19971 5.09538 7.30428 4.19995 6.19971 4.19995C5.09514 4.19995 4.19971 5.09538 4.19971 6.19995C4.19971 7.30452 5.09514 8.19995 6.19971 8.19995Z" stroke="#455A64" stroke-linecap="round" stroke-linejoin="round"/>
<path id="Vector_3" d="M11.0205 9.49674L4.19971 16.9999H14.0157C14.8071 16.9999 15.5661 16.6856 16.1257 16.126C16.6853 15.5663 16.9997 14.8073 16.9997 14.0159C16.9997 13.6431 16.8597 13.2839 16.6077 13.0079L13.3837 9.49194C13.2334 9.32804 13.0507 9.19725 12.847 9.10792C12.6434 9.0186 12.4234 8.9727 12.201 8.97315C11.9787 8.9736 11.7589 9.02039 11.5556 9.11055C11.3523 9.2007 11.1701 9.33223 11.0205 9.49674V9.49674Z" stroke="#455A64" stroke-linecap="round" stroke-linejoin="round"/>
</g>
</svg>
