<svg width="17" height="15" viewBox="0 0 17 15" fill="none" xmlns="http://www.w3.org/2000/svg">
<path id="Vector" d="M12.2624 0C10.6428 0 9.25882 1.16585 8.49845 1.96962C7.73809 1.16585 6.35723 0 4.73836 0C1.94805 0 0 1.96416 0 4.77578C0 7.87379 2.41941 9.87618 4.76 11.813C5.865 12.7284 7.00864 13.6742 7.88568 14.723C8.03327 14.8986 8.24964 15 8.47682 15H8.52164C8.74959 15 8.96518 14.8978 9.112 14.723C9.99059 13.6742 11.1335 12.7276 12.2392 11.813C14.579 9.87696 17 7.87457 17 4.77578C17 1.96416 15.052 0 12.2624 0Z" fill="#0373BB"/>
</svg>
