<svg width="23" height="23" viewBox="0 0 23 23" fill="none" xmlns="http://www.w3.org/2000/svg">
<g id="heroicons:home-solid">
<g id="Group">
<path id="Vector" d="M10.992 3.67999C11.1268 3.54539 11.3095 3.46979 11.5 3.46979C11.6904 3.46979 11.8731 3.54539 12.0079 3.67999L20.3358 12.0079C20.4016 12.0785 20.4809 12.1352 20.5691 12.1744C20.6573 12.2137 20.7524 12.2349 20.849 12.2366C20.9455 12.2383 21.0413 12.2205 21.1308 12.1844C21.2203 12.1482 21.3016 12.0944 21.3699 12.0261C21.4381 11.9579 21.4919 11.8766 21.5281 11.7871C21.5642 11.6976 21.582 11.6017 21.5803 11.5052C21.5786 11.4087 21.5574 11.3136 21.5182 11.2254C21.4789 11.1372 21.4222 11.0579 21.3516 10.9921L13.0247 2.66415C12.8244 2.46392 12.5867 2.30509 12.3251 2.19673C12.0635 2.08837 11.7831 2.03259 11.5 2.03259C11.2168 2.03259 10.9364 2.08837 10.6748 2.19673C10.4132 2.30509 10.1755 2.46392 9.97525 2.66415L1.64733 10.9921C1.51647 11.1277 1.44411 11.3093 1.44583 11.4977C1.44756 11.6862 1.52323 11.8664 1.65656 11.9996C1.78988 12.1328 1.97019 12.2083 2.15865 12.2099C2.3471 12.2114 2.52863 12.1389 2.66412 12.0079L10.992 3.67999Z" fill="#A5A5A5"/>
<path id="Vector_2" d="M11.5 5.20565L19.319 13.0247C19.3478 13.0534 19.3765 13.0803 19.4062 13.1071V19.0469C19.4062 20.0387 18.6012 20.8437 17.6094 20.8437H14.375C14.1844 20.8437 14.0016 20.768 13.8668 20.6332C13.732 20.4984 13.6562 20.3156 13.6562 20.125V15.8125C13.6562 15.6219 13.5805 15.439 13.4457 15.3043C13.3109 15.1695 13.1281 15.0937 12.9375 15.0937H10.0625C9.87188 15.0937 9.68906 15.1695 9.55427 15.3043C9.41948 15.439 9.34375 15.6219 9.34375 15.8125V20.125C9.34375 20.3156 9.26802 20.4984 9.13323 20.6332C8.99844 20.768 8.81562 20.8437 8.625 20.8437H5.39062C4.91406 20.8437 4.45702 20.6544 4.12004 20.3174C3.78306 19.9805 3.59375 19.5234 3.59375 19.0469V13.1071C3.62357 13.0804 3.65265 13.053 3.68096 13.0247L11.5 5.20374V5.20565Z" fill="#A5A5A5"/>
</g>
</g>
</svg>
