<svg width="32" height="27" viewBox="0 0 32 27" fill="none" xmlns="http://www.w3.org/2000/svg">
<path id="Vector" d="M25.8462 13.1442V14.1136C25.8462 14.4525 26.1217 14.7273 26.4615 14.7273C26.8014 14.7273 27.0769 14.4525 27.0769 14.1136V3.06818C27.0769 2.25454 26.7527 1.47413 26.1759 0.898504C25.5987 0.323222 24.816 0 24 0H3.07692C2.26096 0 1.47833 0.323257 0.901064 0.898504C0.324142 1.47406 0 2.25454 0 3.06818V19.0227C0 19.8364 0.324177 20.6168 0.901064 21.1924C1.47826 21.7677 2.26096 22.0909 3.07692 22.0909H19.0769C19.4168 22.0909 19.6923 21.8161 19.6923 21.4773C19.6923 21.1384 19.4168 20.8636 19.0769 20.8636H3.07692C2.58737 20.8636 2.11756 20.6697 1.77146 20.3245C1.42537 19.9793 1.2308 19.5109 1.2308 19.0228V18.0533L9.20619 10.0515L13.0955 13.9297L16.1724 16.9856C16.4103 17.2228 16.796 17.2228 17.034 16.9856C17.2719 16.7483 17.2719 16.3637 17.034 16.1265L14.4126 13.5002L20.2955 7.60927L25.8462 13.1442ZM20.2953 6.13636C20.1321 6.13445 19.9758 6.20129 19.8645 6.32045L13.5385 12.6286L9.63678 8.75031C9.5258 8.63115 9.3692 8.56431 9.20601 8.56622C9.0398 8.56677 8.88046 8.63307 8.76315 8.75031L1.23085 16.3103V3.06839C1.23085 2.58023 1.42535 2.11175 1.77151 1.76664C2.11766 1.42153 2.58747 1.22752 3.07697 1.22752H24C24.4896 1.22752 24.9594 1.42147 25.3055 1.76664C25.6516 2.11181 25.8462 2.58029 25.8462 3.06839V11.4012L20.7261 6.30804C20.6151 6.18888 20.4585 6.12204 20.2953 6.12395L20.2953 6.13636ZM16 6.13636C16 6.46181 15.8703 6.77411 15.6396 7.00422C15.4088 7.23433 15.0956 7.36364 14.7692 7.36364C14.4429 7.36364 14.1297 7.23433 13.8989 7.00422C13.6681 6.77411 13.5385 6.46181 13.5385 6.13636C13.5385 5.81092 13.6681 5.49862 13.8989 5.26851C14.1297 5.0384 14.4429 4.90909 14.7692 4.90909C15.0956 4.90909 15.4088 5.0384 15.6396 5.26851C15.8703 5.49862 16 5.81092 16 6.13636ZM26.4615 15.9545C24.9926 15.9545 23.5838 16.5364 22.5453 17.5722C21.5065 18.6077 20.9231 20.0125 20.9231 21.4773C20.9231 22.9421 21.5066 24.3468 22.5453 25.3824C23.5838 26.4182 24.9926 27 26.4615 27C27.9305 27 29.3393 26.4181 30.3778 25.3824C31.4165 24.3468 32 22.9421 32 21.4773C31.9967 20.0136 31.4121 18.6107 30.3742 17.5757C29.3363 16.5408 27.9294 15.9578 26.4615 15.9545ZM26.4615 25.7727C25.319 25.7727 24.2234 25.3202 23.4156 24.5145C22.6077 23.7092 22.1538 22.6167 22.1538 21.4773C22.1538 20.3379 22.6077 19.2455 23.4156 18.44C24.2233 17.6344 25.3189 17.1818 26.4615 17.1818C27.6042 17.1818 28.6997 17.6344 29.5074 18.44C30.3154 19.2454 30.7692 20.3379 30.7692 21.4773C30.7692 22.6167 30.3154 23.7091 29.5074 24.5145C28.6998 25.3202 27.6042 25.7727 26.4615 25.7727ZM28.1231 19.8205C28.361 20.0577 28.361 20.4423 28.1231 20.6795C27.8852 20.9168 27.4995 20.9168 27.2615 20.6795L27.0769 20.5078V23.9318C27.0769 24.2707 26.8014 24.5454 26.4615 24.5454C26.1217 24.5454 25.8462 24.2707 25.8462 23.9318V20.5078L25.6615 20.6795C25.4236 20.9168 25.0379 20.9168 24.8 20.6795C24.5621 20.4423 24.5621 20.0577 24.8 19.8205L26.0308 18.5932C26.0827 18.531 26.1508 18.4844 26.2278 18.4581C26.3775 18.3968 26.5456 18.3968 26.6953 18.4581C26.7723 18.4844 26.8404 18.531 26.8923 18.5932L28.1231 19.8205Z" fill="#A7A7A7"/>
</svg>
