<svg width="19" height="19" viewBox="0 0 19 19" fill="none" xmlns="http://www.w3.org/2000/svg">
<path id="Vector" d="M18.436 8.94174L10.0491 0.551138C9.69768 0.19955 9.21327 0 8.70986 0H1.89964C0.854839 0 0 0.855214 0 1.90048V8.71368C0 9.21731 0.199462 9.70193 0.560395 10.0535L8.94732 18.4441C9.68818 19.1853 10.8945 19.1853 11.6353 18.4441L18.4455 11.6309C19.1864 10.8897 19.1864 9.69242 18.436 8.94174ZM4.2742 5.70143C3.48585 5.70143 2.84946 5.06477 2.84946 4.27607C2.84946 3.48737 3.48585 2.85071 4.2742 2.85071C5.06255 2.85071 5.69893 3.48737 5.69893 4.27607C5.69893 5.06477 5.06255 5.70143 4.2742 5.70143Z" fill="#A5A5A5"/>
</svg>
