<svg width="20" height="20" viewBox="0 0 20 20" fill="none" xmlns="http://www.w3.org/2000/svg">
<g id="fluent:location-12-regular">
<g id="Group">
<path id="Vector" d="M10 0.833252C11.9891 0.833252 13.8968 1.62343 15.3033 3.02995C16.7098 4.43647 17.5 6.34413 17.5 8.33325C17.5 11.4383 15.1333 14.6916 10.5 18.1666C10.3558 18.2748 10.1803 18.3333 10 18.3333C9.81969 18.3333 9.64425 18.2748 9.5 18.1666C4.86667 14.6916 2.5 11.4383 2.5 8.33325C2.5 6.34413 3.29018 4.43647 4.6967 3.02995C6.10322 1.62343 8.01088 0.833252 10 0.833252ZM10 2.49992C8.4529 2.49992 6.96917 3.1145 5.87521 4.20846C4.78125 5.30242 4.16667 6.78616 4.16667 8.33325C4.16667 10.5916 5.93167 13.1966 9.54 16.0883L10 16.4516L10.46 16.0883C14.0683 13.1966 15.8333 10.5916 15.8333 8.33325C15.8333 6.78616 15.2188 5.30242 14.1248 4.20846C13.0308 3.1145 11.5471 2.49992 10 2.49992ZM10 6.66658C10.442 6.66658 10.866 6.84218 11.1785 7.15474C11.4911 7.4673 11.6667 7.89122 11.6667 8.33325C11.6667 8.77528 11.4911 9.1992 11.1785 9.51176C10.866 9.82432 10.442 9.99992 10 9.99992C9.55797 9.99992 9.13405 9.82432 8.82149 9.51176C8.50893 9.1992 8.33333 8.77528 8.33333 8.33325C8.33333 7.89122 8.50893 7.4673 8.82149 7.15474C9.13405 6.84218 9.55797 6.66658 10 6.66658Z" fill="#0373BB"/>
</g>
</g>
</svg>
