<svg width="16" height="19" viewBox="0 0 16 19" fill="none" xmlns="http://www.w3.org/2000/svg">
<path d="M13.3117 13.8779C14.7585 12.4002 15.5712 10.3964 15.5712 8.30705C15.5712 6.21773 14.7585 4.21392 13.3117 2.73617C12.5955 2.00457 11.7452 1.42421 10.8092 1.02824C9.87327 0.632273 8.87006 0.428467 7.85692 0.428467C6.84378 0.428467 5.84058 0.632273 4.90462 1.02824C3.96867 1.42421 3.11832 2.00457 2.40216 2.73617C0.955373 4.21392 0.142639 6.21773 0.142639 8.30705C0.142639 10.3964 0.955373 12.4002 2.40216 13.8779L4.07826 15.5643L6.32959 17.7973L6.47615 17.9301C7.33018 18.6366 8.58092 18.5916 9.38536 17.7973L12.0687 15.1312L13.3117 13.8779ZM7.85692 11.6786C6.98014 11.6786 6.13927 11.323 5.51929 10.6901C4.89931 10.0572 4.55101 9.19876 4.55101 8.30368C4.55101 7.40859 4.89931 6.55016 5.51929 5.91724C6.13927 5.28432 6.98014 4.92875 7.85692 4.92875C8.73371 4.92875 9.57458 5.28432 10.1946 5.91724C10.8145 6.55016 11.1628 7.40859 11.1628 8.30368C11.1628 9.19876 10.8145 10.0572 10.1946 10.6901C9.57458 11.323 8.73371 11.6786 7.85692 11.6786Z" fill="#0373BB"/>
</svg>
