<svg width="13" height="13" viewBox="0 0 13 13" fill="none" xmlns="http://www.w3.org/2000/svg">
<g id="fluent:mail-24-regular">
<g id="Group">
<path id="Vector" d="M2.84367 2.16663H10.1562C10.6058 2.1666 11.0385 2.33863 11.3653 2.64745C11.6921 2.95626 11.8884 3.37844 11.9139 3.82738L11.9166 3.92704V9.07288C11.9166 9.52253 11.7446 9.95516 11.4358 10.282C11.1269 10.6088 10.7048 10.8051 10.2558 10.8306L10.1562 10.8333H2.84367C2.39401 10.8333 1.96139 10.6613 1.63454 10.3525C1.3077 10.0437 1.11142 9.62148 1.08596 9.17254L1.08325 9.07288V3.92704C1.08322 3.47738 1.25526 3.04476 1.56407 2.71792C1.87289 2.39107 2.29507 2.19479 2.744 2.16933L2.84367 2.16663H10.1562H2.84367ZM11.1041 5.077L6.6895 7.40075C6.63966 7.42708 6.58487 7.44275 6.52864 7.44676C6.47241 7.45077 6.41596 7.44304 6.36288 7.42404L6.31088 7.40129L1.89575 5.07754V9.07288C1.89576 9.31077 1.98522 9.53996 2.14637 9.71496C2.30752 9.88996 2.52858 9.99797 2.76567 10.0175L2.84367 10.0208H10.1562C10.3941 10.0208 10.6234 9.93124 10.7984 9.76997C10.9734 9.60871 11.0814 9.38752 11.1008 9.15033L11.1041 9.07288V5.077ZM10.1562 2.97913H2.84367C2.60577 2.97913 2.37658 3.06859 2.20158 3.22974C2.02658 3.39089 1.91858 3.61195 1.899 3.84904L1.89575 3.92704V4.15942L6.49992 6.58229L11.1041 4.15888V3.92704C11.1041 3.68906 11.0145 3.4598 10.8533 3.28478C10.692 3.10977 10.4708 3.00182 10.2336 2.98238L10.1562 2.97913Z" fill="#0373BB"/>
</g>
</g>
</svg>
