<svg width="20" height="20" viewBox="0 0 20 20" fill="none" xmlns="http://www.w3.org/2000/svg">
<g id="fluent:mail-24-regular">
<g id="Group">
<path id="Vector" d="M4.37508 3.3335H15.6251C16.3169 3.33345 16.9824 3.59812 17.4853 4.07322C17.9881 4.54832 18.2901 5.19782 18.3293 5.8885L18.3334 6.04183V13.9585C18.3335 14.6503 18.0688 15.3159 17.5937 15.8187C17.1186 16.3215 16.4691 16.6235 15.7784 16.6627L15.6251 16.6668H4.37508C3.6833 16.6669 3.01772 16.4022 2.51489 15.9271C2.01205 15.452 1.71008 14.8025 1.67091 14.1118L1.66675 13.9585V6.04183C1.6667 5.35005 1.93138 4.68447 2.40647 4.18164C2.88157 3.6788 3.53108 3.37683 4.22175 3.33766L4.37508 3.3335H15.6251H4.37508ZM17.0834 7.811L10.2917 11.386C10.2151 11.4265 10.1308 11.4506 10.0443 11.4568C9.95776 11.463 9.87091 11.451 9.78925 11.4218L9.70925 11.3868L2.91675 7.81183V13.9585C2.91676 14.3245 3.05439 14.6771 3.30231 14.9463C3.55024 15.2155 3.89033 15.3817 4.25508 15.4118L4.37508 15.4168H15.6251C15.9912 15.4168 16.3439 15.2791 16.6132 15.031C16.8824 14.7829 17.0485 14.4426 17.0784 14.0777L17.0834 13.9585V7.811ZM15.6251 4.5835H4.37508C4.00909 4.58351 3.65648 4.72114 3.38726 4.96906C3.11803 5.21699 2.95186 5.55708 2.92175 5.92183L2.91675 6.04183V6.39933L10.0001 10.1268L17.0834 6.3985V6.04183C17.0834 5.67571 16.9456 5.32299 16.6975 5.05374C16.4494 4.78449 16.1091 4.61841 15.7442 4.5885L15.6251 4.5835Z" fill="#0373BB"/>
</g>
</g>
</svg>
