<svg width="19" height="18" viewBox="0 0 19 18" fill="none" xmlns="http://www.w3.org/2000/svg">
<path id="Vector" d="M9.5 0C8.21102 0 6.98092 0.255252 5.80969 0.765756C4.63845 1.27626 3.62834 1.96324 2.77935 2.82668C1.93037 3.69013 1.25489 4.72059 0.752935 5.91807C0.250978 7.11555 0 8.36975 0 9.68067C0 11.3445 0.393509 12.9013 1.18053 14.3508C1.96755 15.8004 3.06132 16.9727 4.46184 17.8676C4.59817 17.9559 4.7469 17.9811 4.90802 17.9433C5.06915 17.9055 5.19309 17.8172 5.27984 17.6786C5.3666 17.5399 5.39139 17.3887 5.35421 17.2248C5.31703 17.0609 5.23027 16.9349 5.09393 16.8466C4.09002 16.2038 3.25962 15.3908 2.60274 14.4076L3.23483 14.0294C3.37117 13.9538 3.46102 13.834 3.5044 13.6702C3.54778 13.5063 3.52919 13.3519 3.44863 13.2069C3.36807 13.062 3.24723 12.9674 3.08611 12.9233C2.92498 12.8792 2.77626 12.9013 2.63992 12.9895L2.00783 13.3487C1.78474 12.8697 1.60502 12.3718 1.46869 11.855C1.33235 11.3382 1.2456 10.8088 1.20841 10.2668H1.8591C2.03262 10.2668 2.17515 10.2069 2.28669 10.0872C2.39824 9.96744 2.45401 9.82563 2.45401 9.66177C2.45401 9.4979 2.39824 9.35609 2.28669 9.23635C2.17515 9.1166 2.03262 9.05672 1.8591 9.05672H1.20841C1.28278 7.96008 1.56164 6.92017 2.04501 5.93698L2.63992 6.29622C2.72668 6.34664 2.82583 6.37185 2.93738 6.37185C3.16047 6.37185 3.32779 6.27101 3.43933 6.06933C3.52609 5.93067 3.54778 5.77941 3.5044 5.61555C3.46102 5.45168 3.37117 5.33193 3.23483 5.2563L2.63992 4.89706C3.24723 4.0021 3.99087 3.2521 4.87084 2.64706L5.20548 3.23319C5.31703 3.43487 5.49054 3.53571 5.72603 3.53571C5.82518 3.53571 5.92433 3.5105 6.02348 3.46008C6.08545 3.42227 6.14123 3.3687 6.1908 3.29937C6.24038 3.23004 6.27446 3.16071 6.29305 3.09139C6.31164 3.02206 6.31784 2.94643 6.31164 2.8645C6.30545 2.78256 6.27756 2.70378 6.22798 2.62815L5.89335 2.04202C6.36432 1.81513 6.85078 1.6355 7.35274 1.50315C7.8547 1.3708 8.36595 1.27941 8.8865 1.22899V1.98529C8.8865 2.16176 8.94537 2.30672 9.06311 2.42017C9.18085 2.53361 9.32339 2.59034 9.4907 2.59034C9.65802 2.59034 9.79746 2.53361 9.909 2.42017C10.0205 2.30672 10.0763 2.16176 10.0763 1.98529V1.22899C11.1546 1.30462 12.1771 1.58193 13.1438 2.06092L12.8092 2.62815C12.7968 2.66597 12.7844 2.70063 12.772 2.73214C12.7596 2.76366 12.7503 2.79832 12.7441 2.83613C12.7379 2.87395 12.7348 2.90861 12.7348 2.94013C12.7348 2.97164 12.7379 3.0063 12.7441 3.04412C12.7503 3.08193 12.7596 3.1166 12.772 3.14811C12.7844 3.17962 12.7999 3.21113 12.8185 3.24265C12.8371 3.27416 12.8557 3.30252 12.8743 3.32773C12.8929 3.35294 12.9145 3.37815 12.9393 3.40336C12.9641 3.42857 12.9951 3.44748 13.0323 3.46008L13.1067 3.4979L13.181 3.52626L13.2554 3.53571H13.3297C13.3793 3.53571 13.4289 3.52941 13.4785 3.51681C13.528 3.5042 13.5745 3.48529 13.6179 3.46008C13.6613 3.43487 13.7047 3.40336 13.748 3.36555C13.7914 3.32773 13.8255 3.28361 13.8503 3.23319L14.1663 2.66597C15.0463 3.28361 15.7838 4.03361 16.3787 4.91597L15.8209 5.2563C15.7466 5.29412 15.6877 5.34454 15.6443 5.40756C15.6009 5.47059 15.5669 5.53992 15.5421 5.61555C15.5173 5.69118 15.5111 5.76996 15.5235 5.85189C15.5359 5.93382 15.5607 6.0063 15.5978 6.06933C15.6598 6.17017 15.7373 6.2458 15.8302 6.29622C15.9232 6.34664 16.0192 6.37185 16.1184 6.37185C16.168 6.37185 16.2175 6.36555 16.2671 6.35294C16.3167 6.34034 16.3663 6.32143 16.4159 6.29622L16.9736 5.97479C17.4446 6.94538 17.7172 7.97899 17.7916 9.07563H17.1409C16.9798 9.07563 16.8403 9.1355 16.7226 9.25525C16.6049 9.375 16.546 9.51681 16.546 9.68067C16.546 9.84454 16.6049 9.98635 16.7226 10.1061C16.8403 10.2258 16.9798 10.2857 17.1409 10.2857H17.7916C17.7172 11.3571 17.4569 12.3718 17.0108 13.3298L16.4159 12.9895C16.2671 12.9013 16.1153 12.8792 15.9604 12.9233C15.8054 12.9674 15.6846 13.0651 15.5978 13.2164C15.5607 13.2794 15.5359 13.3519 15.5235 13.4338C15.5111 13.5158 15.5173 13.5945 15.5421 13.6702C15.5669 13.7458 15.6009 13.8151 15.6443 13.8782C15.6877 13.9412 15.7466 13.9916 15.8209 14.0294L16.4159 14.3887C15.7466 15.3971 14.8914 16.229 13.8503 16.8845C13.714 16.9727 13.6272 17.0956 13.59 17.2532C13.5528 17.4107 13.5776 17.5651 13.6644 17.7164C13.7016 17.7668 13.748 17.8141 13.8038 17.8582C13.8596 17.9023 13.9185 17.937 13.9804 17.9622C14.0424 17.9874 14.1044 18 14.1663 18C14.2779 18 14.3832 17.9685 14.4824 17.9055C15.8953 17.0231 17.0015 15.854 17.8009 14.3981C18.6003 12.9422 19 11.3634 19 9.66177C19 8.36345 18.749 7.11555 18.2471 5.91807C17.7451 4.72059 17.0696 3.69013 16.2206 2.82668C15.3717 1.96324 14.3615 1.27626 13.1903 0.765756C12.0191 0.255252 10.789 0 9.5 0ZM13.8875 7.78992C13.9866 7.72689 14.061 7.64811 14.1106 7.55357C14.1601 7.45903 14.1849 7.36134 14.1849 7.2605C14.1849 7.15966 14.1601 7.05882 14.1106 6.95798C14.0238 6.81933 13.903 6.72794 13.748 6.68382C13.5931 6.63971 13.4413 6.65546 13.2926 6.73109L10.0577 8.64076C9.87182 8.52731 9.67971 8.47059 9.48141 8.47059C9.15917 8.47059 8.8803 8.59034 8.64481 8.82983C8.40933 9.06933 8.29158 9.35294 8.29158 9.68067C8.29158 9.89496 8.34426 10.0966 8.44961 10.2857C8.55496 10.4748 8.70059 10.6229 8.8865 10.73C9.07241 10.8372 9.27071 10.8908 9.48141 10.8908C9.80365 10.8908 10.0825 10.771 10.318 10.5315C10.5535 10.292 10.6712 10.0084 10.6712 9.68067L13.8875 7.78992Z" fill="#0373BB"/>
</svg>
