<svg width="18" height="17" viewBox="0 0 18 17" fill="none" xmlns="http://www.w3.org/2000/svg">
<path id="Vector" d="M9 7.31183C8.01 7.31183 7.2 8.13441 7.2 9.13978C7.2 10.1452 8.01 10.9677 9 10.9677C9.99 10.9677 10.8 10.1452 10.8 9.13978C10.8 8.13441 9.99 7.31183 9 7.31183ZM14.4 9.13978C14.4 6.12366 11.97 3.65591 9 3.65591C6.03 3.65591 3.6 6.12366 3.6 9.13978C3.6 11.1505 4.68 12.8871 6.3 13.8925L7.2 12.3387C6.12 11.6989 5.4 10.5108 5.4 9.23118C5.4 7.22043 7.02 5.57527 9 5.57527C10.98 5.57527 12.6 7.22043 12.6 9.23118C12.6 10.6022 11.88 11.7903 10.8 12.3387L11.7 13.8925C13.32 12.9785 14.4 11.1505 14.4 9.13978ZM9 0C4.05 0 0 4.1129 0 9.13978C0 12.5215 1.8 15.4462 4.5 17L5.4 15.4462C3.24 14.1667 1.8 11.7903 1.8 9.13978C1.8 5.11828 5.04 1.82796 9 1.82796C12.96 1.82796 16.2 5.11828 16.2 9.13978C16.2 11.8817 14.76 14.1667 12.6 15.4462L13.5 17C16.2 15.4462 18 12.5215 18 9.13978C18 4.1129 13.95 0 9 0Z" fill="#0373BB"/>
</svg>
