<svg width="23" height="22" viewBox="0 0 23 22" fill="none" xmlns="http://www.w3.org/2000/svg">
<path id="Vector" d="M23 10.9885C23 10.7341 22.8703 10.5104 22.6728 10.3701L22.677 10.3632L19.8961 8.8157L21.4968 6.14325L21.4914 6.14008C21.542 6.02994 21.5649 5.90986 21.5583 5.78959C21.5517 5.66931 21.5158 5.55223 21.4535 5.44782C21.3908 5.34351 21.3034 5.25495 21.1984 5.18931C21.0935 5.12367 20.974 5.08282 20.8496 5.07007V5.06259H17.638V1.97588H17.6314C17.618 1.85612 17.5756 1.74109 17.5075 1.6401C17.4394 1.53911 17.3476 1.455 17.2395 1.39458C17.131 1.33435 17.0093 1.2997 16.8843 1.29345C16.7592 1.2872 16.6345 1.30955 16.5201 1.35865L16.5162 1.35204L13.6885 2.92572L12.1226 0.311345L12.1169 0.314507C12.0432 0.21726 11.9468 0.138112 11.8354 0.0834723C11.7241 0.0288325 11.6009 0.000236694 11.476 0C11.212 0 10.9797 0.125055 10.8344 0.31537L10.8273 0.311345L9.23549 2.96885L6.49452 1.44346L6.49124 1.44892C6.37697 1.40018 6.2524 1.37809 6.12761 1.38443C6.00283 1.39078 5.88136 1.42538 5.77304 1.48543C5.66475 1.54587 5.5728 1.6301 5.50464 1.73126C5.43649 1.83241 5.39407 1.94765 5.38083 2.06758H5.37278V5.13619H2.20769V5.14223C2.08345 5.15511 1.96411 5.19602 1.85933 5.26165C1.75455 5.32728 1.66729 5.41578 1.60462 5.51998C1.54229 5.62449 1.5064 5.74169 1.49987 5.86207C1.49334 5.98245 1.51635 6.10261 1.56704 6.21282L1.56018 6.21684L3.12483 8.82921L0.323011 10.3885L0.326292 10.394C0.225401 10.465 0.143287 10.558 0.0866003 10.6653C0.0299131 10.7727 0.000245563 10.8913 0 11.0118C0 11.2662 0.129741 11.4902 0.327187 11.6302L0.323011 11.6371L3.10395 13.1846L1.50321 15.857L1.50858 15.8599C1.45802 15.9701 1.4351 16.0901 1.44168 16.2104C1.44826 16.3307 1.48416 16.4478 1.54646 16.5522C1.60922 16.6565 1.69662 16.7451 1.80156 16.8107C1.9065 16.8763 2.02603 16.9172 2.15042 16.9299V16.9377H5.36175V20.0241H5.36831C5.39575 20.2587 5.53205 20.4783 5.76022 20.6054C5.86872 20.6656 5.99043 20.7002 6.11545 20.7064C6.24046 20.7127 6.36523 20.6904 6.47961 20.6414L6.48349 20.648L9.31125 19.0743L10.8771 21.6887L10.8828 21.6855C10.9565 21.7827 11.0529 21.8619 11.1643 21.9165C11.2756 21.9712 11.3988 21.9998 11.5237 22C11.7877 22 12.02 21.8749 12.1653 21.6849L12.1721 21.6887L13.7639 19.0312L16.5052 20.5565L16.5085 20.5511C16.6227 20.5998 16.7473 20.6219 16.8721 20.6156C16.9969 20.6092 17.1183 20.5746 17.2267 20.5146C17.3349 20.4541 17.4269 20.3699 17.4951 20.2687C17.5632 20.1676 17.6056 20.0524 17.6189 19.9324H17.6269V16.8641H20.7923V16.8581C20.9165 16.8452 21.0359 16.8043 21.1407 16.7386C21.2454 16.673 21.3327 16.5845 21.3954 16.4803C21.4577 16.3757 21.4936 16.2585 21.5001 16.1381C21.5066 16.0177 21.4836 15.8974 21.433 15.7872L21.4398 15.7834L19.8752 13.1711L22.677 11.6118L22.6737 11.6063C22.7746 11.5353 22.8568 11.4423 22.9135 11.335C22.9702 11.2277 22.9998 11.1089 23 10.9885ZM9.62531 14.2644L6.68869 13.0138L7.98461 15.1771L7.25209 15.5848L5.26511 12.2681L6.01821 11.8487L8.86059 13.0452L7.61238 10.9615L8.3452 10.5538L10.3316 13.8705L9.62531 14.2644ZM11.0128 13.4922L9.02612 10.1752L11.4614 8.8203L11.8336 9.44184L10.1309 10.3891L10.5478 11.0854L12.2142 10.1582L12.5864 10.7792L10.92 11.7069L11.3728 12.4627L13.0755 11.5155L13.4478 12.137L11.0128 13.4922ZM16.6516 10.3543L14.6837 8.41264L15.4494 11.023L14.6706 11.4565L11.6985 8.68834L12.5187 8.23182L14.5582 10.2925L13.7776 7.53122L14.3503 7.21269L16.436 9.24778L15.6039 6.51496L16.4241 6.05844L17.4307 9.92107L16.6516 10.3543Z" fill="#0373BB"/>
</svg>
