<svg width="22" height="22" viewBox="0 0 22 22" fill="none" xmlns="http://www.w3.org/2000/svg">
<g id="mingcute:notification-fill" clip-path="url(#clip0_41_272)">
<g id="Group">
<path id="Vector" d="M13.75 17.4167C13.7501 17.8792 13.5754 18.3247 13.2609 18.6639C12.9464 19.003 12.5154 19.2108 12.0541 19.2455L11.9166 19.25H10.0833C9.62079 19.2502 9.1753 19.0755 8.83615 18.761C8.497 18.4465 8.28926 18.0154 8.25457 17.5542L8.24998 17.4167H13.75ZM11 1.83337C12.6637 1.83335 14.2624 2.47953 15.4589 3.63561C16.6553 4.79169 17.3559 6.36729 17.413 8.03004L17.4166 8.25004V11.7004L19.0868 15.0407C19.1597 15.1865 19.1962 15.3477 19.1931 15.5106C19.1901 15.6736 19.1476 15.8333 19.0693 15.9762C18.991 16.1192 18.8792 16.241 18.7435 16.3312C18.6078 16.4215 18.4523 16.4775 18.2902 16.4945L18.1848 16.5H3.81515C3.65213 16.5001 3.49154 16.4606 3.34712 16.385C3.2027 16.3094 3.07877 16.1999 2.98595 16.0659C2.89313 15.9319 2.83418 15.7773 2.81415 15.6156C2.79413 15.4538 2.81363 15.2896 2.87098 15.137L2.91315 15.0407L4.58332 11.7004V8.25004C4.58332 6.54823 5.25936 4.91613 6.46271 3.71277C7.66607 2.50941 9.29818 1.83337 11 1.83337Z" fill="#0373BB"/>
</g>
</g>
<defs>
<clipPath id="clip0_41_272">
<rect width="22" height="22" fill="white"/>
</clipPath>
</defs>
</svg>
