<svg width="20" height="20" viewBox="0 0 20 20" fill="none" xmlns="http://www.w3.org/2000/svg">
<path d="M17.561 2.43903C16.119 0.996028 15.036 1.21203 15.036 1.21203L8.98395 7.26403L2.20995 14.037L1.19995 18.799L5.96295 17.789L12.737 11.018L18.7889 4.96603C18.788 4.96603 19.005 3.88303 17.561 2.43903ZM5.67995 17.217L4.05595 17.567C3.87623 17.2221 3.64338 16.9076 3.36595 16.635C3.0931 16.3576 2.77865 16.1245 2.43395 15.944L2.78395 14.321L3.25395 13.852C3.25395 13.852 4.13695 13.87 5.13495 14.868C6.13195 15.864 6.15095 16.749 6.15095 16.749L5.67995 17.217Z" fill="black"/>
</svg>
