<svg width="12" height="12" viewBox="0 0 12 12" fill="none" xmlns="http://www.w3.org/2000/svg">
<g id="fluent:location-12-regular">
<g id="Group">
<path id="Vector" d="M6 0.5C7.19347 0.5 8.33807 0.974106 9.18198 1.81802C10.0259 2.66193 10.5 3.80653 10.5 5C10.5 6.863 9.08 8.815 6.3 10.9C6.21345 10.9649 6.10819 11 6 11C5.89181 11 5.78655 10.9649 5.7 10.9C2.92 8.815 1.5 6.863 1.5 5C1.5 3.80653 1.97411 2.66193 2.81802 1.81802C3.66193 0.974106 4.80653 0.5 6 0.5ZM6 1.5C5.07174 1.5 4.1815 1.86875 3.52513 2.52513C2.86875 3.1815 2.5 4.07174 2.5 5C2.5 6.355 3.559 7.918 5.724 9.653L6 9.871L6.276 9.653C8.441 7.918 9.5 6.355 9.5 5C9.5 4.07174 9.13125 3.1815 8.47487 2.52513C7.8185 1.86875 6.92826 1.5 6 1.5ZM6 4C6.26522 4 6.51957 4.10536 6.70711 4.29289C6.89464 4.48043 7 4.73478 7 5C7 5.26522 6.89464 5.51957 6.70711 5.70711C6.51957 5.89464 6.26522 6 6 6C5.73478 6 5.48043 5.89464 5.29289 5.70711C5.10536 5.51957 5 5.26522 5 5C5 4.73478 5.10536 4.48043 5.29289 4.29289C5.48043 4.10536 5.73478 4 6 4Z" fill="#0373BB"/>
</g>
</g>
</svg>
