<svg width="16" height="20" viewBox="0 0 16 20" fill="none" xmlns="http://www.w3.org/2000/svg">
<path id="Vector" d="M8 19.75C7.88333 19.75 7.775 19.7417 7.675 19.725C7.575 19.7083 7.475 19.6833 7.375 19.65C5.125 18.9 3.33333 17.5127 2 15.488C0.666667 13.4633 0 11.284 0 8.95V4.225C0 3.80833 0.121 3.43333 0.363 3.1C0.605 2.76667 0.917333 2.525 1.3 2.375L7.3 0.125C7.53333 0.0416667 7.76667 0 8 0C8.23333 0 8.46667 0.0416667 8.7 0.125L14.7 2.375C15.0833 2.525 15.396 2.76667 15.638 3.1C15.88 3.43333 16.0007 3.80833 16 4.225V8.95C16 10 15.8623 11.021 15.587 12.013C15.3117 13.005 14.916 13.9507 14.4 14.85L11.45 11.9C11.6333 11.5833 11.771 11.254 11.863 10.912C11.955 10.57 12.0007 10.216 12 9.85C12 8.75 11.6083 7.80833 10.825 7.025C10.0417 6.24167 9.1 5.85 8 5.85C6.9 5.85 5.95833 6.24167 5.175 7.025C4.39167 7.80833 4 8.75 4 9.85C4 10.95 4.39167 11.8917 5.175 12.675C5.95833 13.4583 6.9 13.85 8 13.85C8.35 13.85 8.696 13.804 9.038 13.712C9.38 13.62 9.70067 13.4827 10 13.3L13.225 16.5C12.5917 17.25 11.896 17.8877 11.138 18.413C10.38 18.9383 9.54233 19.3507 8.625 19.65C8.525 19.6833 8.425 19.7083 8.325 19.725C8.225 19.7417 8.11667 19.75 8 19.75ZM8 11.85C7.45 11.85 6.979 11.6543 6.587 11.263C6.195 10.8717 5.99933 10.4007 6 9.85C6 9.3 6.196 8.829 6.588 8.437C6.98 8.045 7.45067 7.84933 8 7.85C8.55 7.85 9.021 8.046 9.413 8.438C9.805 8.83 10.0007 9.30067 10 9.85C10 10.4 9.804 10.871 9.412 11.263C9.02 11.655 8.54933 11.8507 8 11.85Z" fill="#0373BB"/>
</svg>
