<svg width="19" height="19" viewBox="0 0 19 19" fill="none" xmlns="http://www.w3.org/2000/svg">
<path id="Vector" fill-rule="evenodd" clip-rule="evenodd" d="M5.27778 4.22222C5.27778 3.10242 5.72262 2.02848 6.51444 1.23666C7.30626 0.44484 8.3802 0 9.5 0C10.6198 0 11.6937 0.44484 12.4856 1.23666C13.2774 2.02848 13.7222 3.10242 13.7222 4.22222C13.7222 5.34203 13.2774 6.41596 12.4856 7.20778C11.6937 7.9996 10.6198 8.44444 9.5 8.44444C8.3802 8.44444 7.30626 7.9996 6.51444 7.20778C5.72262 6.41596 5.27778 5.34203 5.27778 4.22222ZM5.27778 10.5556C3.87802 10.5556 2.5356 11.1116 1.54583 12.1014C0.55605 13.0912 0 14.4336 0 15.8333C0 16.6732 0.33363 17.4786 0.927495 18.0725C1.52136 18.6664 2.32681 19 3.16667 19H15.8333C16.6732 19 17.4786 18.6664 18.0725 18.0725C18.6664 17.4786 19 16.6732 19 15.8333C19 14.4336 18.444 13.0912 17.4542 12.1014C16.4644 11.1116 15.122 10.5556 13.7222 10.5556H5.27778Z" fill="#A5A5A5"/>
</svg>
