<svg width="7" height="9" viewBox="0 0 7 9" fill="none" xmlns="http://www.w3.org/2000/svg">
<g id="Group">
<path id="Vector" d="M0.988281 3.04876C0.988281 2.70004 1.13892 2.42107 1.36488 2.07236C1.59084 1.72364 1.89212 1.44467 2.34404 1.23544C2.79596 1.02621 3.3232 0.886719 3.85043 0.886719C4.37767 0.886719 4.90491 0.956462 5.28151 1.16569C5.73343 1.37492 6.03471 1.58415 6.26067 1.93287C6.48663 2.28158 6.63727 2.6303 6.63727 2.97902C6.63727 3.25799 6.56195 3.53696 6.41131 3.74619C6.26067 3.95542 6.11003 4.16465 5.95939 4.30414C5.80875 4.44363 5.43215 4.7226 4.98023 5.14106C4.82959 5.28055 4.75427 5.35029 4.67895 5.42003C4.60363 5.48978 4.60363 5.55952 4.52831 5.62926C4.52831 5.69901 4.45299 5.76875 4.45299 5.83849C4.45299 5.90824 4.37767 6.04772 4.37767 6.18721C4.30235 6.53592 4.07639 6.74515 3.69979 6.74515C3.47383 6.74515 3.3232 6.67541 3.17256 6.53592C3.02192 6.39644 2.9466 6.25695 2.9466 5.97798C2.9466 5.69901 3.02192 5.42003 3.09724 5.2108C3.17256 5.00157 3.3232 4.79234 3.47383 4.65286C3.62447 4.51337 3.85043 4.30414 4.15171 4.09491C4.37767 3.88568 4.52831 3.74619 4.67895 3.67645C4.75427 3.60671 4.90491 3.46722 4.98023 3.32773C5.05555 3.18825 5.05555 3.04876 5.05555 2.90927C5.05555 2.6303 4.98023 2.42107 4.75427 2.21184C4.52831 2.07235 4.22703 2.00261 3.85043 2.00261C3.47383 2.00261 3.17255 2.07235 2.9466 2.28158C2.72064 2.49081 2.57 2.76979 2.41936 3.1185C2.26872 3.53696 2.04276 3.67645 1.66616 3.67645C1.4402 3.67645 1.28956 3.60671 1.13892 3.46722C1.0636 3.39748 0.988281 3.25799 0.988281 3.04876ZM3.77511 8.76771C3.54915 8.76771 3.3232 8.69797 3.17256 8.55848C3.02192 8.41899 2.9466 8.20976 2.9466 8.00053C2.9466 7.7913 3.02192 7.58207 3.17256 7.44259C3.3232 7.3031 3.54915 7.23336 3.77511 7.23336C4.00107 7.23336 4.22703 7.3031 4.37767 7.44259C4.52831 7.58207 4.60363 7.7913 4.60363 8.00053C4.60363 8.20976 4.52831 8.41899 4.37767 8.55848C4.15171 8.69797 4.00107 8.76771 3.77511 8.76771Z" fill="#3E3E3E"/>
</g>
</svg>
