<svg width="17" height="18" viewBox="0 0 17 18" fill="none" xmlns="http://www.w3.org/2000/svg">
<path d="M8.5 17.3202C6.25745 17.3202 4.08723 16.4681 2.49574 14.9058C-0.831915 11.6392 -0.831915 6.31331 2.49574 3.04675C4.08723 1.48447 6.25745 0.632324 8.5 0.632324C10.7426 0.632324 12.9128 1.48447 14.5043 3.04675C17.8319 6.31331 17.8319 11.6392 14.5043 14.9058C12.9128 16.4681 10.7426 17.3202 8.5 17.3202ZM8.5 1.98156C6.61915 1.98156 4.81064 2.69168 3.50851 4.04092C0.759574 6.73939 0.759574 11.1422 3.50851 13.8406C4.81064 15.1188 6.61915 15.9 8.5 15.9C10.3809 15.9 12.1894 15.1899 13.4915 13.8406C16.2404 11.1422 16.2404 6.73939 13.4915 4.04092C12.1894 2.69168 10.3809 1.98156 8.5 1.98156Z" fill="#3E3E3E"/>
</svg>
