<svg width="47" height="47" viewBox="0 0 47 47" fill="none" xmlns="http://www.w3.org/2000/svg">
<g id="map:car-rental">
<path id="Vector" d="M38.5399 3.76003H20.7523C19.3395 1.88003 17.0242 0.233154 14.4054 0.233154C10.103 0.233154 6.61561 3.59459 6.61561 7.89697C6.61561 12.2003 10.103 15.4518 14.4054 15.4518C17.6775 15.4518 20.4769 13.16 21.6321 10.34H24.2218L26.099 8.46191L27.9752 10.34H29.1455L31.0218 8.46191L32.899 10.34H34.0683L35.9455 8.46191L37.8227 10.34H38.5399V10.6042L38.3763 10.6427L42.0799 7.01243L38.5399 3.76003ZM11.8843 9.97343C11.2859 9.97306 10.7121 9.73497 10.2892 9.31153C9.86625 8.8881 9.62888 8.31401 9.62925 7.71555C9.62963 7.1171 9.86772 6.54331 10.2912 6.1204C10.7146 5.6975 11.2887 5.46012 11.8871 5.46049C12.1835 5.46068 12.4768 5.51923 12.7505 5.6328C13.0242 5.74637 13.2729 5.91273 13.4823 6.1224C13.6917 6.33206 13.8577 6.58091 13.971 6.85475C14.0842 7.12859 14.1424 7.42205 14.1422 7.71837C14.142 8.0147 14.0835 8.30808 13.9699 8.58178C13.8563 8.85548 13.69 9.10413 13.4803 9.31353C13.2706 9.52293 13.0218 9.68898 12.7479 9.80221C12.4741 9.91544 12.1806 9.97362 11.8843 9.97343ZM40.4199 28.2H39.9001L34.1247 17.7425C33.8756 17.2904 33.2477 16.92 32.7307 16.92H15.2091C14.6921 16.92 14.0642 17.2904 13.8151 17.7425L8.03877 28.2H7.51989C6.48589 28.2 5.63989 29.046 5.63989 30.08V39.48C5.63989 40.514 6.48589 41.36 7.51989 41.36H9.39989V44.18C9.39989 45.731 10.6689 47 12.2199 47H13.1599C14.7109 47 15.9799 45.731 15.9799 44.18V41.36H31.9599V44.18C31.9599 45.731 33.2289 47 34.7799 47H35.7199C37.2709 47 38.5399 45.731 38.5399 44.18V41.36H40.4199C41.4539 41.36 42.2999 40.514 42.2999 39.48V30.08C42.2999 29.046 41.4539 28.2 40.4199 28.2ZM10.8099 35.72C10.1866 35.72 9.5889 35.4724 9.14819 35.0317C8.70748 34.591 8.45989 33.9933 8.45989 33.37C8.45989 32.7468 8.70748 32.149 9.14819 31.7083C9.5889 31.2676 10.1866 31.02 10.8099 31.02C11.4332 31.02 12.0309 31.2676 12.4716 31.7083C12.9123 32.149 13.1599 32.7468 13.1599 33.37C13.1599 33.9933 12.9123 34.591 12.4716 35.0317C12.0309 35.4724 11.4332 35.72 10.8099 35.72ZM12.6899 28.2L16.4997 20.5813C16.731 20.1179 17.3429 19.74 17.8599 19.74H30.0799C30.5969 19.74 31.2088 20.1179 31.4401 20.5813L35.2499 28.2H12.6899ZM37.1299 35.72C36.5066 35.72 35.9089 35.4724 35.4682 35.0317C35.0275 34.591 34.7799 33.9933 34.7799 33.37C34.7799 32.7468 35.0275 32.149 35.4682 31.7083C35.9089 31.2676 36.5066 31.02 37.1299 31.02C37.7532 31.02 38.3509 31.2676 38.7916 31.7083C39.2323 32.149 39.4799 32.7468 39.4799 33.37C39.4799 33.9933 39.2323 34.591 38.7916 35.0317C38.3509 35.4724 37.7532 35.72 37.1299 35.72Z" fill="#0373BB"/>
</g>
</svg>
