<svg width="24" height="28" viewBox="0 0 24 28" fill="none" xmlns="http://www.w3.org/2000/svg">
<g id="Group">
<path id="Vector" d="M20.2082 15.1315C20.3981 12.3896 19.0649 9.54087 16.57 7.74878C15.2444 6.79662 13.6875 6.23771 12.0961 6.14272C10.5046 6.04774 8.95022 6.42094 7.62936 7.21514C6.30849 8.00935 5.28052 9.18888 4.67543 10.6046C4.07033 12.0203 3.9153 13.6086 4.22993 15.1686C4.54456 16.7286 5.31472 18.1903 6.44302 19.3688C7.57132 20.5473 9.00709 21.3897 10.5688 21.7895C12.1304 22.1893 13.7479 22.1285 15.2165 21.6148C16.6852 21.1011 17.9391 20.1575 18.8197 18.9035" stroke="black" stroke-linecap="round" stroke-linejoin="round"/>
<path id="Vector_2" d="M16.8797 12.4741L20.2308 14.8812L22.457 11.7109" stroke="black" stroke-linecap="round" stroke-linejoin="round"/>
</g>
</svg>
