<svg width="19" height="18" viewBox="0 0 19 18" fill="none" xmlns="http://www.w3.org/2000/svg">
<g id="Group 3590">
<path id="Vector 5" d="M1.93612 8.44156L10.3777 16.039L17.1309 9.70779L8.68936 1.26624H1.51404L1.93612 8.44156Z" fill="#0373BB" stroke="#0373BB"/>
<g id="Group 3589">
<path id="Vector" d="M17.8784 8.34277L10.0499 0.514219C9.72184 0.186183 9.26968 0 8.79979 0H2.44297C1.46773 0 0.6698 0.797927 0.6698 1.77317V8.12999C0.6698 8.59988 0.855983 9.05204 1.19289 9.38007L9.02143 17.2086C9.71297 17.9002 10.8389 17.9002 11.5305 17.2086L17.8873 10.8518C18.5788 10.1603 18.5788 9.04317 17.8784 8.34277ZM10.2715 15.9585L2.44297 8.12999V1.77317H8.79979L16.6283 9.60172L10.2715 15.9585Z" fill="#0666A9"/>
<path id="Vector_2" d="M4.65935 5.31955C5.39382 5.31955 5.98922 4.72414 5.98922 3.98967C5.98922 3.2552 5.39382 2.65979 4.65935 2.65979C3.92487 2.65979 3.32947 3.2552 3.32947 3.98967C3.32947 4.72414 3.92487 5.31955 4.65935 5.31955Z" fill="white"/>
</g>
</g>
</svg>
