<svg width="20" height="20" viewBox="0 0 20 20" fill="none" xmlns="http://www.w3.org/2000/svg">
<g id="fluent:send-28-regular">
<g id="Group">
<path id="Vector" d="M2.707 1.98009L17.757 9.17867C17.9089 9.25138 18.0372 9.36559 18.127 9.50809C18.2167 9.6506 18.2644 9.81559 18.2644 9.98402C18.2644 10.1525 18.2167 10.3174 18.127 10.46C18.0372 10.6025 17.9089 10.7167 17.757 10.7894L2.707 17.988C2.55265 18.0619 2.38029 18.09 2.21045 18.0688C2.04061 18.0476 1.88044 17.978 1.74902 17.8683C1.61761 17.7587 1.52048 17.6135 1.46921 17.4502C1.41795 17.2869 1.4147 17.1123 1.45986 16.9472L3.35986 9.98438L1.45986 3.02009C1.41506 2.85509 1.41859 2.6807 1.47001 2.51764C1.52143 2.35458 1.61859 2.20971 1.74993 2.10026C1.88128 1.9908 2.04129 1.92136 2.21095 1.90018C2.38061 1.87901 2.55278 1.90699 2.707 1.98081V1.98009ZM2.59629 3.11581L4.327 9.46366H12.1427C12.2724 9.46372 12.3976 9.5108 12.4952 9.59618C12.5928 9.68156 12.6561 9.79944 12.6734 9.92795L12.6784 9.99938C12.6786 10.129 12.6318 10.2542 12.5467 10.3519C12.4616 10.4496 12.3439 10.5132 12.2156 10.5308L12.1427 10.5358L4.31843 10.5351L2.597 16.853L16.9584 9.98367L2.59629 3.11509V3.11581Z" fill="#757373"/>
</g>
</g>
</svg>
