<svg width="17" height="15" viewBox="0 0 17 15" fill="none" xmlns="http://www.w3.org/2000/svg">
<path id="Vector" d="M15.3 3.15789C15.793 3.15789 16.1925 3.31579 16.507 3.62368C16.83 3.94737 17 4.30263 17 4.73684V13.4211C17 13.8553 16.83 14.2105 16.507 14.5342C16.1925 14.8421 15.793 15 15.3 15H1.7C1.207 15 0.8075 14.8421 0.493 14.5342C0.17 14.2105 0 13.8553 0 13.4211V4.73684C0 4.30263 0.17 3.94737 0.493 3.62368C0.8075 3.31579 1.207 3.15789 1.7 3.15789H5.1V1.57895C5.1 1.12105 5.27 0.75 5.593 0.457895C5.9075 0.157895 6.307 0 6.8 0H10.2C10.693 0 11.0925 0.157895 11.407 0.457895C11.73 0.75 11.9 1.12105 11.9 1.57895V3.15789H15.3ZM1.7 4.73684V13.4211H15.3V4.73684H1.7ZM10.2 3.15789V1.57895H6.8V3.15789H10.2Z" fill="#0373BB"/>
</svg>
