<svg width="46" height="46" viewBox="0 0 46 46" fill="none" xmlns="http://www.w3.org/2000/svg">
<g id="emojione-monotone:gear">
<path id="Vector" d="M43.8103 28.1398L40.8914 26.284C41.0862 25.2188 41.1933 24.122 41.1933 23.0007C41.1933 21.8795 41.087 20.7841 40.8922 19.7189L43.8103 17.8631C44.4658 17.4455 44.7483 16.4867 44.4342 15.7327L43.2964 12.9864C42.9837 12.231 42.1061 11.7516 41.3479 11.9205L37.9733 12.6709C36.7183 10.8563 35.1455 9.28351 33.3309 8.02846L34.082 4.65321C34.2502 3.89493 33.7715 3.01734 33.0168 2.7054L30.2698 1.5669C29.5144 1.25209 28.5548 1.53384 28.138 2.19078L26.2821 5.1089C25.1996 4.90931 24.1011 4.80828 23.0003 4.80703C21.8784 4.80703 20.7823 4.91412 19.7178 5.10818L17.862 2.19006C17.4444 1.53312 16.4863 1.25137 15.7309 1.56475L12.9853 2.70325C12.2299 3.01518 11.7497 3.8935 11.9194 4.6525L12.6697 8.02703C10.8552 9.28163 9.28265 10.8542 8.02805 12.6687L4.6528 11.9183C3.89451 11.7487 3.01692 12.2288 2.70426 12.9828L1.56648 15.7292C1.25311 16.4846 1.53486 17.4441 2.19036 17.861L5.1092 19.7168C4.91024 20.7997 4.80945 21.8983 4.80805 22.9993C4.80805 24.1213 4.91514 25.2167 5.1092 26.2811L2.19036 28.1369C1.53414 28.5545 1.25311 29.5133 1.56648 30.2695L2.70426 33.0158C3.01764 33.7698 3.89451 34.2506 4.6528 34.0803L8.02805 33.3292C9.28302 35.1436 10.8555 36.7163 12.6697 37.9716L11.9186 41.3468C11.749 42.1051 12.2299 42.9827 12.9838 43.2947L15.7302 44.4332C16.4863 44.7451 17.4444 44.4648 17.862 43.8086L19.7178 40.8904C20.783 41.0852 21.8791 41.1916 23.0003 41.1916C24.1216 41.1916 25.2162 41.0852 26.2821 40.8904L28.138 43.8086C28.5548 44.4648 29.5144 44.7451 30.269 44.4332L33.0147 43.2961C33.7715 42.9827 34.2502 42.1051 34.0806 41.3468L33.3302 37.9716C35.145 36.7167 36.7178 35.1439 37.9726 33.3292L41.3471 34.0803C42.1054 34.2499 42.983 33.7691 43.2957 33.0158L44.4335 30.2695C44.7483 29.5148 44.4658 28.556 43.8103 28.1398ZM18.3594 36.3566L16.8744 35.742C13.9838 34.3477 11.6514 32.0143 10.2583 29.1231L9.64595 27.6453C9.12207 26.1527 8.8531 24.5826 8.8503 23.0007C8.8503 21.367 9.14139 19.8052 9.65026 18.3447L10.2555 16.8835C11.6486 13.9905 13.9818 11.6555 16.8737 10.2602L18.3601 9.64421C19.8511 9.12115 21.4195 8.85267 22.9996 8.84999C24.624 8.84999 26.1786 9.1375 27.632 9.64206L29.1327 10.2638C32.0156 11.6559 34.3427 13.9824 35.7359 16.8648L36.3605 18.3741C36.8636 19.826 37.1504 21.3778 37.1504 23.0007C37.1504 24.6237 36.8643 26.1762 36.3605 27.6281L35.7359 29.1374C34.3429 32.02 32.0157 34.3464 29.1327 35.7384L27.632 36.3602C26.143 36.8813 24.5771 37.149 22.9996 37.1522C21.4193 37.1479 19.8509 36.8789 18.3594 36.3566Z" fill="#0373BB"/>
<path id="Vector_2" d="M33.7812 23.0007C33.7812 17.0466 28.9548 12.2195 23 12.2195C17.0466 12.2195 12.2188 17.0466 12.2188 23.0007C12.2188 28.9549 17.0466 33.782 23 33.782C28.9548 33.782 33.7812 28.9549 33.7812 23.0007ZM17.6094 23.0007C17.6094 21.5711 18.1773 20.1999 19.1883 19.189C20.1992 18.178 21.5703 17.6101 23 17.6101C24.4297 17.6101 25.8008 18.178 26.8117 19.189C27.8227 20.1999 28.3906 21.5711 28.3906 23.0007C28.3906 24.4304 27.8227 25.8015 26.8117 26.8125C25.8008 27.8234 24.4297 28.3914 23 28.3914C21.5703 28.3914 20.1992 27.8234 19.1883 26.8125C18.1773 25.8015 17.6094 24.4304 17.6094 23.0007Z" fill="#0373BB"/>
</g>
</svg>
