<svg width="18" height="18" viewBox="0 0 18 18" fill="none" xmlns="http://www.w3.org/2000/svg">
<g id="fluent:speaker-2-28-regular">
<g id="Group">
<path id="Vector" d="M10.6071 3.09471C10.6071 2.39143 9.76692 2.02757 9.25392 2.50843L6.08013 5.48486C5.87157 5.68028 5.59645 5.789 5.31063 5.78893H3.37499C2.82088 5.78893 2.28946 6.00905 1.89764 6.40086C1.50583 6.79268 1.28571 7.3241 1.28571 7.87821V10.1231C1.28571 10.6772 1.50583 11.2086 1.89764 11.6004C2.28946 11.9922 2.82088 12.2124 3.37499 12.2124H5.31128C5.59671 12.2124 5.87185 12.3216 6.08013 12.5164L9.25392 15.4903C9.76756 15.9711 10.6071 15.6073 10.6071 14.904V3.09471ZM6.73971 6.18814L9.64285 3.465V14.5324L6.73971 11.8119C6.3525 11.4492 5.84181 11.2474 5.31128 11.2474H3.37499C3.07662 11.2474 2.79047 11.1289 2.5795 10.9179C2.36852 10.7069 2.24999 10.4208 2.24999 10.1224V7.87757C2.24999 7.25657 2.75399 6.75257 3.37499 6.75257H5.31063C5.84157 6.75243 6.35253 6.55016 6.73971 6.18686V6.18814Z" fill="black"/>
<path id="Vector_2" d="M14.5942 3.37634C14.5086 3.28471 14.3907 3.23001 14.2655 3.22385C14.1403 3.21769 14.0176 3.26054 13.9234 3.34332C13.8293 3.4261 13.7711 3.5423 13.7611 3.66727C13.7512 3.79225 13.7904 3.91617 13.8703 4.01276C15.0845 5.39009 15.7531 7.16393 15.75 9.00005C15.75 10.9113 15.0409 12.656 13.8703 13.9867C13.8263 14.0339 13.7921 14.0894 13.7699 14.15C13.7477 14.2106 13.7379 14.275 13.7411 14.3395C13.7443 14.4039 13.7604 14.4671 13.7884 14.5252C13.8164 14.5833 13.8559 14.6352 13.9043 14.6779C13.9528 14.7205 14.0093 14.7529 14.0706 14.7733C14.1318 14.7936 14.1965 14.8015 14.2608 14.7964C14.3252 14.7913 14.3878 14.7733 14.4451 14.7436C14.5023 14.7138 14.553 14.6728 14.5942 14.6231C15.963 13.0701 16.717 11.0703 16.7143 9.00005C16.7143 6.84519 15.9139 4.87612 14.5942 3.37634Z" fill="black"/>
<path id="Vector_3" d="M13.084 5.33763C13.0461 5.28698 12.9985 5.24431 12.944 5.21205C12.8895 5.17979 12.8292 5.15858 12.7665 5.14962C12.7038 5.14067 12.64 5.14415 12.5787 5.15986C12.5173 5.17557 12.4597 5.20321 12.409 5.2412C12.3584 5.27919 12.3157 5.32679 12.2835 5.38127C12.2512 5.43575 12.23 5.49605 12.221 5.55873C12.2121 5.62141 12.2156 5.68524 12.2313 5.74658C12.247 5.80791 12.2746 5.86555 12.3126 5.9162C12.9808 6.80527 13.3412 7.88781 13.3393 8.99999C13.3393 10.1571 12.9574 11.2243 12.3126 12.0838C12.2746 12.1344 12.247 12.1921 12.2313 12.2534C12.2156 12.3147 12.2121 12.3786 12.221 12.4412C12.23 12.5039 12.2512 12.5642 12.2835 12.6187C12.3157 12.6732 12.3584 12.7208 12.409 12.7588C12.4597 12.7968 12.5173 12.8244 12.5787 12.8401C12.64 12.8558 12.7038 12.8593 12.7665 12.8504C12.8292 12.8414 12.8895 12.8202 12.944 12.7879C12.9985 12.7557 13.0461 12.713 13.084 12.6623C13.8774 11.6064 14.3055 10.3208 14.3035 8.99999C14.3055 7.67916 13.8775 6.39359 13.084 5.33763Z" fill="black"/>
</g>
</g>
</svg>
