<svg width="16" height="17" viewBox="0 0 16 17" fill="none" xmlns="http://www.w3.org/2000/svg">
<path id="Vector" fill-rule="evenodd" clip-rule="evenodd" d="M2.4 0C1.76348 0 1.15303 0.26866 0.702944 0.746878C0.252856 1.2251 0 1.8737 0 2.55V14.45C0 15.1263 0.252856 15.7749 0.702944 16.2531C1.15303 16.7313 1.76348 17 2.4 17H9.6V12.75C9.6 12.0737 9.85286 11.4251 10.3029 10.9469C10.753 10.4687 11.3635 10.2 12 10.2H16V2.55C16 1.8737 15.7471 1.2251 15.2971 0.746878C14.847 0.26866 14.2365 0 13.6 0H2.4ZM12.2344 16.2529C11.9468 16.5584 11.5909 16.7813 11.2 16.9006V12.75C11.2 12.5246 11.2843 12.3084 11.4343 12.149C11.5843 11.9896 11.7878 11.9 12 11.9H15.9064C15.7941 12.3153 15.5844 12.6935 15.2968 12.9991L12.2344 16.2529ZM4 3.4C3.78783 3.4 3.58434 3.48955 3.43431 3.64896C3.28429 3.80837 3.2 4.02457 3.2 4.25C3.2 4.47543 3.28429 4.69163 3.43431 4.85104C3.58434 5.01045 3.78783 5.1 4 5.1H12C12.2122 5.1 12.4157 5.01045 12.5657 4.85104C12.7157 4.69163 12.8 4.47543 12.8 4.25C12.8 4.02457 12.7157 3.80837 12.5657 3.64896C12.4157 3.48955 12.2122 3.4 12 3.4H4ZM4 6.8C3.78783 6.8 3.58434 6.88955 3.43431 7.04896C3.28429 7.20837 3.2 7.42457 3.2 7.65C3.2 7.87543 3.28429 8.09163 3.43431 8.25104C3.58434 8.41045 3.78783 8.5 4 8.5H12C12.2122 8.5 12.4157 8.41045 12.5657 8.25104C12.7157 8.09163 12.8 7.87543 12.8 7.65C12.8 7.42457 12.7157 7.20837 12.5657 7.04896C12.4157 6.88955 12.2122 6.8 12 6.8H4ZM4 10.2C3.78783 10.2 3.58434 10.2896 3.43431 10.449C3.28429 10.6084 3.2 10.8246 3.2 11.05C3.2 11.2754 3.28429 11.4916 3.43431 11.651C3.58434 11.8104 3.78783 11.9 4 11.9H7.2C7.41217 11.9 7.61566 11.8104 7.76569 11.651C7.91571 11.4916 8 11.2754 8 11.05C8 10.8246 7.91571 10.6084 7.76569 10.449C7.61566 10.2896 7.41217 10.2 7.2 10.2H4Z" fill="#0373BB"/>
</svg>
