<svg width="15" height="18" viewBox="0 0 15 18" fill="none" xmlns="http://www.w3.org/2000/svg">
<path id="Vector" d="M6.75325 18C6.34921 18 5.97056 17.9143 5.61732 17.7429C5.26407 17.5714 4.9645 17.3286 4.71861 17.0143L0 11.0786L0.411256 10.65C0.699856 10.35 1.04618 10.1714 1.45022 10.1143C1.85426 10.0571 2.22944 10.1357 2.57576 10.35L4.17749 11.3143V4.28571C4.17749 4.04286 4.26061 3.83914 4.42684 3.67457C4.59307 3.51 4.79856 3.428 5.04329 3.42857C5.2886 3.42857 5.49784 3.51086 5.671 3.67543C5.84416 3.84 5.93074 4.04343 5.93074 4.28571V8.57143H12.4026C13.1241 8.57143 13.7374 8.82143 14.2424 9.32143C14.7475 9.82143 15 10.4286 15 11.1429V14.5714C15 15.5143 14.6609 16.3214 13.9827 16.9929C13.3045 17.6643 12.4892 18 11.5368 18H6.75325ZM1.2987 6.42857C1.11111 6.11429 0.966811 5.77486 0.865801 5.41029C0.764791 5.04571 0.714286 4.67086 0.714286 4.28571C0.714286 3.1 1.13651 2.08914 1.98095 1.25314C2.8254 0.417143 3.84618 -0.000570843 5.04329 5.8548e-07C6.24098 5.8548e-07 7.26205 0.418001 8.10649 1.254C8.95094 2.09 9.37287 3.10057 9.37229 4.28571C9.37229 4.67143 9.32179 5.04657 9.22078 5.41114C9.11977 5.77571 8.97547 6.11486 8.78788 6.42857L7.29437 5.57143C7.40981 5.37143 7.49639 5.16772 7.55411 4.96029C7.61183 4.75286 7.64069 4.528 7.64069 4.28571C7.64069 3.57143 7.38817 2.96429 6.88312 2.46429C6.37807 1.96429 5.76479 1.71429 5.04329 1.71429C4.32179 1.71429 3.70851 1.96429 3.20346 2.46429C2.69841 2.96429 2.44589 3.57143 2.44589 4.28571C2.44589 4.52857 2.47475 4.75372 2.53247 4.96114C2.59019 5.16857 2.67677 5.372 2.79221 5.57143L1.2987 6.42857Z" fill="#0373BB"/>
</svg>
