<svg width="16" height="18" viewBox="0 0 16 18" fill="none" xmlns="http://www.w3.org/2000/svg">
<g id="type 1">
<g id="Group">
<g id="Group_2">
<path id="Vector" d="M7.49503 4.77674C7.49503 5.7541 7.49503 6.73145 7.49503 7.7088C7.49503 8.18267 7.31347 8.38406 6.86524 8.38406C4.98723 8.38406 3.10354 8.38406 1.22552 8.38406C0.805665 8.38406 0.607083 8.19452 0.601409 7.76211C0.595735 6.1865 0.584388 4.60497 0.607083 3.02936C0.612757 2.06385 1.32198 1.27012 2.22978 1.21089C3.08652 1.15758 3.94893 1.18127 4.80567 1.18127C5.4695 1.17535 6.12765 1.18127 6.79148 1.18127C7.31914 1.18127 7.48936 1.35897 7.48936 1.90392C7.49503 2.85758 7.49503 3.81716 7.49503 4.77674Z" fill="#0373BB"/>
<path id="Vector_2" d="M7.49514 12.9685C7.49514 13.9281 7.49514 14.8818 7.49514 15.8413C7.49514 16.333 7.31358 16.5225 6.84266 16.5225C5.4072 16.5284 3.97174 16.5344 2.53627 16.5225C1.36181 16.5107 0.607196 15.717 0.601522 14.4908C0.590175 12.9922 0.595848 11.4936 0.601522 9.99502C0.601522 9.51523 0.788756 9.32568 1.23698 9.32568C3.115 9.32568 4.99869 9.32568 6.8767 9.32568C7.30791 9.32568 7.49514 9.52708 7.49514 9.98317C7.49514 10.9783 7.49514 11.9734 7.49514 12.9685Z" fill="#0373BB"/>
<path id="Vector_3" d="M8.39136 4.75888C8.39136 3.78153 8.39136 2.80418 8.39136 1.82683C8.39136 1.38258 8.56724 1.18118 8.9871 1.17526C10.468 1.16933 11.9545 1.15156 13.4353 1.18118C14.5133 1.20487 15.2453 1.93937 15.2736 3.05888C15.3133 4.63449 15.2906 6.21603 15.285 7.79164C15.285 8.17073 15.075 8.37212 14.7062 8.37212C12.7999 8.37805 10.8878 8.37805 8.98143 8.37212C8.58427 8.37212 8.39703 8.16481 8.39703 7.74425C8.39136 6.75505 8.39136 5.75993 8.39136 4.75888Z" fill="#0373BB"/>
<path id="Vector_4" d="M15.2907 12.323C15.2907 13.0338 15.2964 13.7446 15.2907 14.4554C15.2794 15.723 14.5191 16.5227 13.3049 16.5286C11.8978 16.5345 10.4907 16.5345 9.08363 16.5227C8.9191 16.5227 8.73753 16.4812 8.60136 16.3983C8.38009 16.2621 8.3347 15.9481 8.46519 15.7171C8.51058 15.6342 8.57867 15.5631 8.64675 15.492C10.5361 13.5195 12.4255 11.5412 14.3262 9.58053C14.4567 9.44429 14.6893 9.35544 14.8709 9.36136C15.1432 9.36729 15.2907 9.62199 15.2907 9.99516C15.2964 10.7652 15.2907 11.5412 15.2907 12.323Z" fill="#0373BB"/>
</g>
</g>
</g>
</svg>
