<svg width="63" height="39" viewBox="0 0 63 39" fill="none" xmlns="http://www.w3.org/2000/svg">
<path d="M41.8462 13.1442V14.1136C41.8462 14.4525 42.1217 14.7273 42.4615 14.7273C42.8014 14.7273 43.0769 14.4525 43.0769 14.1136V3.06818C43.0769 2.25454 42.7527 1.47413 42.1759 0.898504C41.5987 0.323222 40.816 0 40 0H19.0769C18.261 0 17.4783 0.323257 16.9011 0.898504C16.3241 1.47406 16 2.25454 16 3.06818V19.0227C16 19.8364 16.3242 20.6168 16.9011 21.1924C17.4783 21.7677 18.261 22.0909 19.0769 22.0909H35.0769C35.4168 22.0909 35.6923 21.8161 35.6923 21.4773C35.6923 21.1384 35.4168 20.8636 35.0769 20.8636H19.0769C18.5874 20.8636 18.1176 20.6697 17.7715 20.3245C17.4254 19.9793 17.2308 19.5109 17.2308 19.0228V18.0533L25.2062 10.0515L29.0955 13.9297L32.1724 16.9856C32.4103 17.2228 32.796 17.2228 33.034 16.9856C33.2719 16.7483 33.2719 16.3637 33.034 16.1265L30.4126 13.5002L36.2955 7.60927L41.8462 13.1442ZM36.2953 6.13636C36.1321 6.13445 35.9758 6.20129 35.8645 6.32045L29.5385 12.6286L25.6368 8.75031C25.5258 8.63115 25.3692 8.56431 25.206 8.56622C25.0398 8.56677 24.8805 8.63307 24.7632 8.75031L17.2308 16.3103V3.06839C17.2308 2.58023 17.4254 2.11175 17.7715 1.76664C18.1177 1.42153 18.5875 1.22752 19.077 1.22752H40C40.4896 1.22752 40.9594 1.42147 41.3055 1.76664C41.6516 2.11181 41.8462 2.58029 41.8462 3.06839V11.4012L36.7261 6.30804C36.6151 6.18888 36.4585 6.12204 36.2953 6.12395L36.2953 6.13636ZM32 6.13636C32 6.46181 31.8703 6.77411 31.6396 7.00422C31.4088 7.23433 31.0956 7.36364 30.7692 7.36364C30.4429 7.36364 30.1297 7.23433 29.8989 7.00422C29.6681 6.77411 29.5385 6.46181 29.5385 6.13636C29.5385 5.81092 29.6681 5.49862 29.8989 5.26851C30.1297 5.0384 30.4429 4.90909 30.7692 4.90909C31.0956 4.90909 31.4088 5.0384 31.6396 5.26851C31.8703 5.49862 32 5.81092 32 6.13636ZM42.4615 15.9545C40.9926 15.9545 39.5838 16.5364 38.5453 17.5722C37.5065 18.6077 36.9231 20.0125 36.9231 21.4773C36.9231 22.9421 37.5066 24.3468 38.5453 25.3824C39.5838 26.4182 40.9926 27 42.4615 27C43.9305 27 45.3393 26.4181 46.3778 25.3824C47.4165 24.3468 48 22.9421 48 21.4773C47.9967 20.0136 47.4121 18.6107 46.3742 17.5757C45.3363 16.5408 43.9294 15.9578 42.4615 15.9545ZM42.4615 25.7727C41.319 25.7727 40.2234 25.3202 39.4156 24.5145C38.6077 23.7092 38.1538 22.6167 38.1538 21.4773C38.1538 20.3379 38.6077 19.2455 39.4156 18.44C40.2233 17.6344 41.3189 17.1818 42.4615 17.1818C43.6042 17.1818 44.6997 17.6344 45.5074 18.44C46.3154 19.2454 46.7692 20.3379 46.7692 21.4773C46.7692 22.6167 46.3154 23.7091 45.5074 24.5145C44.6998 25.3202 43.6042 25.7727 42.4615 25.7727ZM44.1231 19.8205C44.361 20.0577 44.361 20.4423 44.1231 20.6795C43.8852 20.9168 43.4995 20.9168 43.2615 20.6795L43.0769 20.5078V23.9318C43.0769 24.2707 42.8014 24.5454 42.4615 24.5454C42.1217 24.5454 41.8462 24.2707 41.8462 23.9318V20.5078L41.6615 20.6795C41.4236 20.9168 41.0379 20.9168 40.8 20.6795C40.5621 20.4423 40.5621 20.0577 40.8 19.8205L42.0308 18.5932C42.0827 18.531 42.1508 18.4844 42.2278 18.4581C42.3775 18.3968 42.5456 18.3968 42.6953 18.4581C42.7723 18.4844 42.8404 18.531 42.8923 18.5932L44.1231 19.8205Z" fill="#A7A7A7"/>
<path d="M5.058 29.709V33.39C5.058 34.587 4.32 35.244 3.312 35.19C2.376 35.154 1.71 34.533 1.71 33.39V29.709H0.711V33.39C0.711 35.181 1.908 36.081 3.312 36.117C4.833 36.171 6.057 35.244 6.057 33.39V29.709H5.058ZM9.86527 35.199C9.05527 35.199 8.47027 34.578 8.47027 33.786C8.47027 32.994 9.01027 32.373 9.86527 32.373C10.7113 32.373 11.2693 32.949 11.2693 33.786C11.2693 34.614 10.6753 35.199 9.86527 35.199ZM8.38927 38.061V35.352C8.72227 35.901 9.41527 36.099 9.95527 36.099C11.3323 36.099 12.1963 35.127 12.1963 33.786C12.1963 32.445 11.2783 31.482 9.95527 31.473C9.36127 31.473 8.73127 31.743 8.38927 32.283L8.33527 31.563H7.46227V38.061H8.38927ZM13.3549 29.709V36H14.2819V29.709H13.3549ZM17.7197 31.473C16.3427 31.473 15.4337 32.481 15.4337 33.786C15.4337 35.1 16.3337 36.09 17.7197 36.09C19.1147 36.09 20.0237 35.1 20.0237 33.786C20.0237 32.481 19.0877 31.473 17.7197 31.473ZM17.7197 32.328C18.5297 32.328 19.0877 33.003 19.0877 33.786C19.0877 34.578 18.5747 35.226 17.7197 35.226C16.8737 35.226 16.3607 34.578 16.3607 33.786C16.3607 33.003 16.8737 32.328 17.7197 32.328ZM24.6758 32.265C24.3968 31.761 23.7938 31.464 23.1638 31.464C21.8858 31.464 20.8688 32.292 20.8688 33.777C20.8688 35.289 21.8498 36.126 23.1458 36.117C23.6948 36.117 24.3788 35.847 24.6758 35.28L24.7208 36H25.6028C25.6028 34.524 25.6028 33.039 25.6028 31.563H24.7028L24.6758 32.265ZM23.2358 32.31C25.1528 32.31 25.1528 35.253 23.2358 35.253C22.4438 35.253 21.7958 34.695 21.7958 33.777C21.7958 32.868 22.4438 32.31 23.2358 32.31ZM29.0564 32.337C29.8304 32.337 30.4694 32.922 30.4694 33.777C30.4694 34.65 29.8304 35.226 29.0564 35.226C28.2734 35.226 27.6524 34.668 27.6524 33.777C27.6524 32.868 28.2734 32.337 29.0564 32.337ZM30.5324 29.709V32.256C30.2444 31.734 29.5154 31.464 28.9754 31.464C27.6884 31.464 26.7254 32.265 26.7254 33.777C26.7254 35.244 27.7064 36.09 28.9934 36.09C29.5874 36.09 30.1814 35.865 30.5324 35.298L30.5864 36H31.4594V29.709H30.5324ZM36.3893 36V29.7H35.3903V36H36.3893ZM41.8724 36V33.561C41.8724 32.904 42.2954 32.364 42.9524 32.364C43.6094 32.364 43.9334 32.886 43.9334 33.543V36H44.8694V33.543C44.8694 32.265 44.2124 31.491 42.9884 31.491C42.3854 31.491 41.8274 31.716 41.4674 32.373C41.2154 31.716 40.6394 31.482 40.0724 31.482C39.6044 31.482 39.0824 31.662 38.8304 32.148L38.7674 31.554H37.9034V36H38.8304V33.561C38.8304 32.904 39.2444 32.355 39.9014 32.355C40.5584 32.355 40.9364 32.904 40.9364 33.561V36H41.8724ZM49.7404 32.265C49.4614 31.761 48.8584 31.464 48.2284 31.464C46.9504 31.464 45.9334 32.292 45.9334 33.777C45.9334 35.289 46.9144 36.126 48.2104 36.117C48.7594 36.117 49.4434 35.847 49.7404 35.28L49.7854 36H50.6674C50.6674 34.524 50.6674 33.039 50.6674 31.563H49.7674L49.7404 32.265ZM48.3004 32.31C50.2174 32.31 50.2174 35.253 48.3004 35.253C47.5084 35.253 46.8604 34.695 46.8604 33.777C46.8604 32.868 47.5084 32.31 48.3004 32.31ZM55.3901 31.734C55.0751 31.518 54.5621 31.428 54.1931 31.428C52.9871 31.428 51.7901 32.175 51.7901 33.66C51.7901 35.046 52.7531 35.874 54.1931 35.874C55.0211 35.874 55.5881 36.216 55.5881 36.837C55.5881 37.467 54.8591 37.746 54.1751 37.746C53.4371 37.737 52.7351 37.368 52.7621 36.675H51.8351C51.7991 37.908 52.7261 38.646 54.1751 38.646C55.3631 38.646 56.5511 38.043 56.5511 36.837C56.5511 36.306 56.2901 35.694 55.3811 35.388C56.1731 35.082 56.5601 34.443 56.5601 33.66C56.5601 33.111 56.3891 32.715 56.0201 32.283L56.5511 31.662L55.8761 31.14L55.3901 31.734ZM54.1931 32.292C54.9581 32.292 55.6331 32.787 55.6331 33.66C55.6331 34.461 55.0121 35.019 54.1931 35.019C53.3921 35.019 52.7261 34.542 52.7261 33.66C52.7261 32.733 53.4371 32.292 54.1931 32.292ZM62.0164 34.128C62.1874 32.319 61.2154 31.446 59.7844 31.446C58.3984 31.446 57.4534 32.409 57.4534 33.759C57.4534 35.181 58.3894 36.108 59.8474 36.108C60.5314 36.108 61.2964 35.856 61.7554 35.352L61.1524 34.767C60.8824 35.073 60.3154 35.244 59.8654 35.244C59.0554 35.244 58.4974 34.803 58.4164 34.128H62.0164ZM58.4344 33.345C58.5784 32.643 59.1364 32.274 59.8114 32.274C60.5584 32.274 61.0714 32.643 61.1254 33.345H58.4344Z" fill="#A7A7A7"/>
</svg>
