<svg width="13" height="12" viewBox="0 0 13 12" fill="none" xmlns="http://www.w3.org/2000/svg">
<g id="fluent:web-asset-24-regular">
<g id="Group">
<path id="Vector" d="M10.1562 1.5C10.3874 1.5 10.6163 1.54203 10.8299 1.6237C11.0434 1.70536 11.2375 1.82506 11.401 1.97595C11.5644 2.12685 11.6941 2.30599 11.7826 2.50314C11.8711 2.70029 11.9166 2.9116 11.9166 3.125V8.875C11.9166 9.0884 11.8711 9.29971 11.7826 9.49686C11.6941 9.69401 11.5644 9.87315 11.401 10.024C11.2375 10.1749 11.0434 10.2946 10.8299 10.3763C10.6163 10.458 10.3874 10.5 10.1562 10.5H2.84367C2.37678 10.5 1.92901 10.3288 1.59887 10.024C1.26872 9.7193 1.08325 9.30598 1.08325 8.875V3.125C1.08325 2.69402 1.26872 2.2807 1.59887 1.97595C1.92901 1.6712 2.37678 1.5 2.84367 1.5H10.1562ZM10.1562 2.25H2.84367C2.59227 2.25 2.35116 2.34219 2.17339 2.50628C1.99562 2.67038 1.89575 2.89294 1.89575 3.125V8.875C1.89575 9.358 2.32042 9.75 2.84367 9.75H10.1562C10.4076 9.75 10.6487 9.65781 10.8264 9.49372C11.0042 9.32962 11.1041 9.10706 11.1041 8.875V3.125C11.1041 2.89294 11.0042 2.67038 10.8264 2.50628C10.6487 2.34219 10.4076 2.25 10.1562 2.25ZM3.65509 3.25H9.34584C9.44876 3.25003 9.54784 3.28612 9.62306 3.35099C9.69827 3.41585 9.744 3.50465 9.75102 3.59944C9.75803 3.69423 9.72581 3.78795 9.66085 3.86165C9.5959 3.93535 9.50305 3.98355 9.40109 3.9965L9.34584 4H3.65509C3.5522 3.99985 3.45321 3.96366 3.37811 3.89876C3.303 3.83386 3.25737 3.74506 3.25042 3.65031C3.24348 3.55556 3.27574 3.4619 3.34069 3.38825C3.40565 3.3146 3.49845 3.26644 3.60038 3.2535L3.65509 3.25H9.34584H3.65509Z" fill="#0373BB"/>
</g>
</g>
</svg>
