<svg width="20" height="19" viewBox="0 0 20 19" fill="none" xmlns="http://www.w3.org/2000/svg">
<g id="fluent:web-asset-24-regular">
<g id="Group">
<path id="Vector" d="M15.6251 2.375C15.9807 2.375 16.3329 2.44155 16.6615 2.57085C16.9901 2.70015 17.2887 2.88967 17.5402 3.12859C17.7917 3.36751 17.9912 3.65114 18.1273 3.9633C18.2634 4.27546 18.3334 4.61004 18.3334 4.94792V14.0521C18.3334 14.39 18.2634 14.7245 18.1273 15.0367C17.9912 15.3489 17.7917 15.6325 17.5402 15.8714C17.2887 16.1103 16.9901 16.2998 16.6615 16.4291C16.3329 16.5585 15.9807 16.625 15.6251 16.625H4.37508C3.65679 16.625 2.96791 16.3539 2.46 15.8714C1.95209 15.3889 1.66675 14.7345 1.66675 14.0521V4.94792C1.66675 4.26554 1.95209 3.61111 2.46 3.12859C2.96791 2.64607 3.65679 2.375 4.37508 2.375H15.6251ZM15.6251 3.5625H4.37508C3.98831 3.5625 3.61738 3.70846 3.34388 3.96828C3.07039 4.2281 2.91675 4.58048 2.91675 4.94792V14.0521C2.91675 14.8168 3.57008 15.4375 4.37508 15.4375H15.6251C16.0119 15.4375 16.3828 15.2915 16.6563 15.0317C16.9298 14.7719 17.0834 14.4195 17.0834 14.0521V4.94792C17.0834 4.58048 16.9298 4.2281 16.6563 3.96828C16.3828 3.70846 16.0119 3.5625 15.6251 3.5625ZM5.62342 5.14583H14.3784C14.5368 5.14588 14.6892 5.20303 14.8049 5.30573C14.9206 5.40843 14.991 5.54903 15.0018 5.69911C15.0126 5.8492 14.963 5.99758 14.8631 6.11428C14.7631 6.23098 14.6203 6.30729 14.4634 6.32779L14.3784 6.33333H5.62342C5.46513 6.33309 5.31284 6.2758 5.1973 6.17304C5.08175 6.07027 5.01154 5.92968 5.00086 5.77966C4.99018 5.62963 5.03981 5.48135 5.13974 5.36473C5.23966 5.24812 5.38244 5.17187 5.53925 5.15138L5.62342 5.14583H14.3784H5.62342Z" fill="#0373BB"/>
</g>
</g>
</svg>
